<?xml version="1.0" encoding="UTF-8"?>
<!DOCTYPE svg PUBLIC "-//W3C//DTD SVG 1.1//EN" "http://www.w3.org/Graphics/SVG/1.1/DTD/svg11.dtd">
<!-- Creator: CorelDRAW X8 -->
<svg xmlns="http://www.w3.org/2000/svg" xml:space="preserve" width="177px" height="177px" version="1.1" style="shape-rendering:geometricPrecision; text-rendering:geometricPrecision; image-rendering:optimizeQuality; fill-rule:evenodd; clip-rule:evenodd"
viewBox="0 0 177 177"
 xmlns:xlink="http://www.w3.org/1999/xlink">
 <defs>
  <style type="text/css">
   <![CDATA[
    .fil1 {fill:#FEFEFE}
    .fil5 {fill:#D2A351}
    .fil3 {fill:#FEFEFE;fill-rule:nonzero}
    .fil2 {fill:#FEFEFE;fill-rule:nonzero}
    .fil0 {fill:#EBECEC;fill-rule:nonzero}
    .fil4 {fill:#D2A351;fill-rule:nonzero}
    .fil6 {fill:#D2A351;fill-opacity:0.501961}
    .fil7 {fill:#D2A351;fill-rule:nonzero;fill-opacity:0.501961}
   ]]>
  </style>
 </defs>
 <g id="Layer_x0020_1">
  <metadata id="CorelCorpID_0Corel-Layer"/>
  <g id="_2303294111968">
   <path class="fil0" d="M-683 5402c-2,0 -4,-1 -6,-3 -2,-1 -3,-3 -3,-6 0,-2 1,-4 3,-6 2,-2 4,-3 6,-3 3,0 5,1 6,3 2,2 3,4 3,6 0,3 -1,5 -3,6 -1,2 -3,3 -6,3zm0 -16c-2,0 -4,0 -5,2 -2,1 -3,3 -3,5 0,2 1,4 3,6 1,1 3,2 5,2 2,0 4,-1 5,-2 2,-2 3,-4 3,-6 0,-2 -1,-4 -3,-5 -1,-2 -3,-2 -5,-2zm4 11c-2,1 -3,1 -4,1 -1,0 -2,0 -3,-1 -1,-1 -2,-2 -2,-4 0,-1 1,-3 2,-3 1,-1 2,-2 3,-2 1,0 3,1 4,1l0 2 0 0c-2,-1 -3,-1 -4,-1 -2,0 -3,1 -3,3 0,2 1,4 3,4 1,0 2,-1 3,-2l1 0 0 2z"/>
   <path id="1" class="fil0" d="M-522 5400l0 -15 4 0c1,0 2,0 2,0 1,0 1,0 2,0 0,0 1,0 1,1 0,0 1,0 1,1 0,0 0,1 0,1 0,2 -1,3 -2,3l0 0c1,1 2,1 3,2 0,0 0,1 0,2 0,2 0,3 -1,4 -1,1 -3,1 -5,1l-5 0zm2 -14l0 5 3 0c1,0 2,0 2,-1 1,0 1,-1 1,-2 0,0 0,-1 0,-1 -1,0 -2,-1 -4,-1l-2 0zm0 7l0 5 3 0c2,0 3,0 3,0 1,-1 1,-2 1,-3 0,0 0,-1 0,-1 0,-1 -1,-1 -1,-1 0,0 -1,0 -3,0l-3 0z"/>
   <path id="2" class="fil0" d="M-500 5399c-1,1 -2,1 -3,1 -2,0 -4,0 -5,-1 -1,-1 -1,-3 -1,-5 0,-2 0,-3 2,-4 1,-1 2,-2 4,-2 1,0 2,1 3,1l0 2 0 0c-1,-1 -2,-1 -3,-1 -2,0 -3,0 -3,1 -1,1 -1,2 -1,3 0,2 0,3 1,4 0,0 1,1 3,1 1,0 2,-1 3,-2l0 0 0 2z"/>
   <path id="3" class="fil0" d="M-496 5386l-2 0 0 -2 2 0 0 2zm0 14l-2 0 0 -11 2 0 0 11z"/>
   <polygon id="4" class="fil0" points="-476,5400 -478,5400 -478,5390 -483,5390 -483,5400 -485,5400 -485,5389 -476,5389 "/>
   <path id="5" class="fil0" d="M-471 5399l0 5 -1 0 0 -15 1 0 0 1c2,-1 3,-2 4,-2 2,0 3,1 4,2 0,1 1,2 1,4 0,2 -1,3 -2,5 -1,1 -2,1 -3,1 -1,0 -2,0 -4,-1zm0 -8l0 7c2,0 2,1 3,1 1,0 2,-1 3,-1 1,-1 1,-2 1,-4 0,-3 -1,-4 -3,-4 -1,0 -2,0 -4,1z"/>
   <path id="6" class="fil0" d="M-453 5397l0 -3c-2,0 -4,0 -5,1 0,0 -1,1 -1,2 0,1 1,2 3,2 1,0 2,-1 3,-2zm0 3l0 -1c-1,0 -1,1 -2,1 -1,0 -1,0 -2,0 -1,0 -2,0 -2,-1 -1,0 -2,-1 -2,-2 0,-2 1,-3 2,-3 1,-1 3,-1 6,-1l0 -1c0,-1 0,-1 0,-2 -1,0 -2,0 -3,0 -1,0 -2,0 -3,1l-1 0 0 -2c2,-1 3,-1 4,-1 2,0 3,1 4,1 1,1 1,2 1,3l0 8 -2 0z"/>
   <path id="7" class="fil0" d="M-448 5400l0 -11 5 0c2,0 3,0 3,0 1,1 1,1 1,2 0,1 0,2 -2,3l0 0c2,0 3,1 3,3 0,1 -1,1 -1,2 -1,1 -2,1 -4,1l-5 0zm2 -10l0 3 3 0c1,0 1,0 2,0 0,0 0,-1 0,-2 0,0 0,0 0,-1 -1,0 -1,0 -3,0l-2 0zm0 5l0 4 2 0c2,0 3,-1 3,-1 1,0 1,-1 1,-1 0,-1 0,-1 0,-1 0,-1 -1,-1 -1,-1 0,0 -1,0 -2,0l-3 0z"/>
   <path id="8" class="fil0" d="M-429 5397l0 -3c-2,0 -4,0 -4,1 -1,0 -2,1 -2,2 0,1 1,2 3,2 1,0 2,-1 3,-2zm0 3l0 -1c-1,0 -1,1 -2,1 -1,0 -1,0 -2,0 -1,0 -2,0 -2,-1 -1,0 -1,-1 -1,-2 0,-2 0,-3 1,-3 1,-1 3,-1 6,-1l0 -1c0,-1 0,-1 0,-2 -1,0 -2,0 -3,0 -1,0 -2,0 -3,1l0 0 0 -2c1,-1 2,-1 3,-1 2,0 3,1 4,1 1,1 1,2 1,3l0 8 -2 0z"/>
   <path id="9" class="fil0" d="M-418 5399l0 -2 1 0c1,1 2,2 4,2 1,0 1,0 2,-1 0,0 1,-1 1,-1 0,-1 0,-1 -1,-2 0,0 -1,0 -2,0l-2 0 0 -2 1 0c2,0 2,0 3,0 0,-1 0,-1 0,-2 0,-1 0,-1 -2,-1 -2,0 -3,0 -4,1l0 0 0 -2c1,0 3,-1 4,-1 1,0 2,1 3,1 1,1 1,1 1,2 0,2 0,2 -2,3l0 0c2,0 3,1 3,3 0,1 -1,2 -2,2 -1,1 -2,1 -3,1 -2,0 -3,0 -5,-1z"/>
   <path id="10" class="fil0" d="M-399 5397l0 -3c-2,0 -4,0 -5,1 0,0 -1,1 -1,2 0,1 1,2 3,2 1,0 2,-1 3,-2zm0 3l0 -1c-1,0 -2,1 -2,1 -1,0 -1,0 -2,0 -1,0 -2,0 -3,-1 0,0 -1,-1 -1,-2 0,-2 1,-3 2,-3 1,-1 3,-1 6,-1l0 -1c0,-1 0,-1 0,-2 -1,0 -2,0 -3,0 -1,0 -2,0 -3,1l-1 0 0 -2c2,-1 3,-1 4,-1 2,0 3,1 4,1 1,1 1,2 1,3l0 8 -2 0z"/>
   <polygon id="11" class="fil0" points="-384,5400 -386,5400 -390,5396 -393,5400 -395,5400 -391,5394 -395,5389 -393,5389 -390,5393 -386,5389 -384,5389 -389,5394 "/>
   <polygon id="12" class="fil0" points="-373,5400 -374,5400 -374,5391 -380,5400 -382,5400 -382,5389 -380,5389 -380,5397 -374,5389 -373,5389 "/>
   <polygon id="13" class="fil0" points="-355,5400 -369,5400 -369,5389 -367,5389 -367,5399 -363,5399 -363,5389 -361,5389 -361,5399 -356,5399 -356,5389 -355,5389 -355,5399 -353,5399 -353,5403 -355,5403 "/>
   <path id="14" class="fil0" d="M-350 5393l7 0c0,-2 -1,-3 -3,-3 -1,0 -2,0 -3,1 -1,0 -1,1 -1,2zm4 7c-2,0 -3,0 -4,-1 -1,-1 -2,-3 -2,-5 0,-2 1,-3 2,-4 1,-1 2,-2 4,-2 1,0 2,1 3,2 1,1 1,2 1,3l0 1 -8 0c0,2 0,3 1,4 1,0 2,1 3,1 2,0 3,-1 4,-2l0 0 0 2c-1,1 -3,1 -4,1z"/>
   <polygon id="15" class="fil0" points="-329,5400 -331,5400 -331,5395 -337,5395 -337,5400 -339,5400 -339,5389 -337,5389 -337,5393 -331,5393 -331,5389 -329,5389 "/>
   <path id="16" class="fil0" d="M-322 5400c-1,0 -3,0 -3,-1 -1,-1 -2,-3 -2,-5 0,-2 1,-3 2,-4 1,-1 2,-2 3,-2 2,0 3,1 4,2 1,1 2,2 2,4 0,2 -1,4 -2,5 -1,1 -2,1 -4,1zm0 -10c-1,0 -2,0 -2,1 -1,1 -1,2 -1,3 0,2 0,3 1,4 0,0 1,1 2,1 2,0 2,-1 3,-1 1,-1 1,-2 1,-4 0,-3 -1,-4 -4,-4z"/>
   <path id="17" class="fil0" d="M-651 5399c-3,1 -4,1 -6,1 -2,0 -4,0 -5,-2 -2,-1 -2,-3 -2,-6 0,-2 0,-4 2,-5 1,-2 3,-3 5,-3 2,0 4,1 6,2l0 2 -1 0c-1,-1 -3,-2 -5,-2 -2,0 -3,1 -4,2 -1,1 -2,2 -2,4 0,2 1,4 2,5 1,1 2,2 4,2 1,0 3,-1 4,-1l0 -4 -4 0 0 -2 6 0 0 7z"/>
   <path id="18" class="fil0" d="M-641 5394l-2 -7 -3 7 5 0zm3 6l-2 -4 -7 0 -1 4 -2 0 6 -15 2 0 6 15 -2 0z"/>
   <path id="19" class="fil0" d="M-628 5400c-3,0 -4,0 -5,-2 -2,-1 -2,-3 -2,-6 0,-2 0,-4 2,-5 1,-2 3,-3 5,-3 2,0 4,1 5,3 1,1 2,3 2,5 0,3 -1,5 -2,6 -1,2 -3,2 -5,2zm0 -14c-2,0 -3,1 -4,2 -1,1 -1,2 -1,4 0,2 0,4 1,5 1,1 2,2 4,2 1,0 2,-1 3,-2 1,-1 2,-3 2,-5 0,-2 -1,-3 -2,-4 -1,-1 -2,-2 -3,-2z"/>
   <path id="20" class="fil0" d="M-603 5399c-1,1 -3,1 -4,1 -1,0 -3,0 -4,-1 -1,-1 -1,-3 -1,-5 0,-2 0,-3 1,-4 1,-1 3,-2 4,-2 1,0 3,1 4,1l0 2 0 0c-1,-1 -3,-1 -4,-1 -1,0 -2,0 -2,1 -1,1 -1,2 -1,3 0,2 0,3 1,4 0,0 1,1 2,1 1,0 3,-1 4,-2l0 0 0 2z"/>
   <path id="21" class="fil0" d="M-596 5400c-2,0 -3,0 -4,-1 -1,-1 -2,-3 -2,-5 0,-2 1,-3 2,-4 1,-1 2,-2 4,-2 1,0 3,1 3,2 1,1 2,2 2,4 0,2 -1,4 -2,5 0,1 -2,1 -3,1zm0 -10c-2,0 -2,0 -3,1 -1,1 -1,2 -1,3 0,2 0,3 1,4 1,0 1,1 3,1 1,0 2,-1 2,-1 1,-1 1,-2 1,-4 0,-3 -1,-4 -3,-4z"/>
   <path id="22" class="fil0" d="M-574 5400l0 -6c0,-2 0,-2 0,-3 0,0 0,-1 -1,-1 0,0 -1,0 -1,0 -1,0 -2,0 -3,1 0,1 0,1 0,2l0 7 -2 0 0 -6c0,-2 0,-3 0,-3 -1,0 -1,-1 -1,-1 0,0 -1,0 -1,0 -1,0 -3,0 -4,1l0 9 -1 0 0 -11 1 0 0 1c2,-1 3,-2 4,-2 2,0 3,1 3,2 2,-1 3,-2 5,-2 2,0 3,2 3,5l0 7 -2 0z"/>
   <polygon id="23" class="fil0" points="-565,5400 -568,5400 -568,5397 -565,5397 "/>
   <path id="24" class="fil0" d="M-552 5400l-2 0 0 -1c-1,1 -2,1 -4,1 -1,0 -2,0 -2,-1 -1,0 -1,-2 -1,-3l0 -7 1 0 0 6c0,1 1,2 1,3 0,0 1,1 2,1 1,0 2,-1 3,-2l0 -8 2 0 0 11z"/>
   <path id="25" class="fil0" d="M-541 5397l0 -3c-3,0 -5,0 -5,1 -1,0 -1,1 -1,2 0,1 0,2 2,2 1,0 2,-1 4,-2zm0 3l0 -1c-1,0 -2,1 -3,1 0,0 -1,0 -2,0 -1,0 -2,0 -2,-1 -1,0 -1,-1 -1,-2 0,-2 0,-3 1,-3 1,-1 3,-1 7,-1l0 -1c0,-1 -1,-1 -1,-2 -1,0 -1,0 -3,0 -1,0 -2,0 -3,1l0 0 0 -2c1,-1 2,-1 3,-1 2,0 3,1 4,1 1,1 1,2 1,3l0 8 -1 0z"/>
   <polygon id="26" class="fil0" points="-616,5400 -618,5400 -618,5397 -616,5397 "/>
   <g>
    <g>
     <polygon class="fil1" points="880,5398 878,5403 887,5403 882,5394 "/>
     <polygon class="fil1" points="872,5380 868,5386 868,5386 870,5384 873,5394 873,5394 877,5388 "/>
     <path class="fil1" d="M854 5380l-4 6 2 -2 3 10 0 0 4 -6 -5 -8zm-4 6l5 8 0 0 -5 -8z"/>
     <polygon class="fil1" points="835,5378 830,5378 827,5378 822,5370 822,5370 827,5378 830,5378 822,5370 830,5370 "/>
     <path class="fil1" d="M822 5370l14 24 -5 9 -14 -25 5 -8zm9 22l1 2 1 0 -1 0 0 2 -1 -1 -1 1 0 -2 -1 0 2 0 0 -2zm-2 -4l0 1 2 0 -2 1 1 2 -1 -1 -2 1 1 -2 -1 -1 1 0 1 -1zm-3 -4l1 1 1 0 -1 1 1 2 -2 -1 -1 1 1 -2 -2 -1 2 0 0 -1zm-2 -4l1 1 1 0 -1 1 0 2 -1 -1 -1 1 0 -2 -1 -1 2 0 0 -1zm-2 -4l0 1 2 0 -1 1 0 2 -1 -1 -1 1 0 -2 -1 -1 1 0 1 -1z"/>
     <polygon class="fil1" points="821,5403 813,5403 817,5396 "/>
     <polygon class="fil1" points="840,5370 855,5394 850,5403 831,5370 "/>
     <polygon class="fil1" points="859,5370 873,5394 868,5403 850,5370 "/>
     <path class="fil1" d="M830 5401l1 2 0 0 -1 -2zm1 2l-9 0 -4 -9 6 0 7 9 0 0z"/>
     <polygon class="fil1" points="877,5370 882,5378 878,5386 868,5370 "/>
    </g>
    <path class="fil2" d="M812 5417l0 -7 1 0 2 5c0,1 0,1 0,1 1,0 1,-1 1,-1l1 -5 2 0 0 7 -1 0 0 -6 -2 6 -1 0 -2 -6 0 6 -1 0z"/>
    <path id="1" class="fil2" d="M823 5416c0,1 0,1 -1,1 0,0 0,0 -1,0 0,0 -1,0 -1,0 0,0 0,-1 0,-1 0,0 0,-1 0,-1 0,0 0,0 0,0 1,0 1,-1 1,-1 0,0 0,0 1,0 0,0 1,0 1,0 0,0 0,0 0,0 0,-1 0,-1 0,-1 0,0 -1,0 -1,0 0,0 -1,0 -1,0 0,0 0,0 0,1l-1 0c0,-1 0,-1 0,-1 0,-1 1,-1 1,-1 0,0 1,0 1,0 1,0 1,0 1,0 0,0 1,0 1,1 0,0 0,0 0,0 0,0 0,1 0,1l0 1c0,1 0,1 0,2 0,0 0,0 0,0l-1 0c0,0 0,0 0,-1zm0 -1c0,0 -1,0 -1,0 0,0 -1,0 -1,0 0,0 0,0 0,0 0,0 0,1 0,1 0,0 0,0 0,0 0,0 0,1 1,1 0,0 0,-1 1,-1 0,0 0,0 0,0 0,0 0,-1 0,-1l0 0z"/>
    <polygon id="2" class="fil2" points="825,5417 825,5410 826,5410 826,5414 828,5412 829,5412 827,5414 830,5417 829,5417 827,5415 826,5415 826,5417 "/>
    <path id="3" class="fil2" d="M834 5415l1 1c-1,0 -1,1 -1,1 -1,0 -1,0 -2,0 0,0 -1,0 -1,0 -1,-1 -1,-2 -1,-2 0,-1 0,-2 1,-2 0,-1 1,-1 1,-1 1,0 2,0 2,1 0,0 1,1 1,2 0,0 0,0 0,0l-4 0c0,0 0,1 0,1 1,0 1,1 1,1 1,0 1,-1 1,-1 0,0 1,0 1,-1zm-3 -1l3 0c0,0 0,-1 -1,-1 0,0 0,0 -1,0 0,0 0,0 -1,0 0,0 0,1 0,1z"/>
    <path id="4" class="fil2" d="M839 5417l-1 0 0 -7 1 0 0 3c0,-1 1,-1 1,-1 1,0 1,0 1,0 1,0 1,0 1,1 0,0 0,0 0,1 1,0 1,0 1,1 0,0 -1,1 -1,2 0,0 -1,0 -2,0 0,0 -1,0 -1,-1l0 1zm0 -2c0,0 0,1 0,1 1,0 1,1 1,1 1,0 1,-1 1,-1 1,0 1,-1 1,-1 0,-1 0,-2 -1,-2 0,0 0,0 -1,0 0,0 0,0 -1,0 0,0 0,1 0,2z"/>
    <path id="5" class="fil2" d="M844 5419l0 -1c0,0 0,0 0,0 0,0 0,0 0,0 1,0 1,0 1,0 0,0 0,0 0,-1 0,0 0,0 0,0l-2 -5 1 0 1 3c0,0 0,1 0,1 1,0 1,-1 1,-1l1 -3 1 0 -2 5c0,1 -1,1 -1,1 0,1 0,1 0,1 0,0 -1,0 -1,0 0,0 0,0 0,0z"/>
    <path id="6" class="fil2" d="M851 5415l1 0c0,0 0,0 0,1 0,0 0,0 1,0 0,0 0,0 1,0 0,0 1,0 1,0 0,0 0,0 0,0 1,0 1,-1 1,-1 0,0 0,0 -1,0 0,0 0,-1 0,-1 0,0 -1,0 -1,0 -1,0 -2,0 -2,0 0,-1 0,-1 -1,-1 0,0 0,-1 0,-1 0,0 0,-1 1,-1 0,0 0,-1 0,-1 1,0 1,0 2,0 0,0 1,0 1,0 0,0 1,1 1,1 0,0 0,1 0,1l-1 0c0,0 0,-1 0,-1 0,0 -1,0 -1,0 -1,0 -1,0 -2,0 0,0 0,1 0,1 0,0 0,0 0,1 1,0 1,0 2,0 0,0 1,0 1,0 1,1 1,1 1,1 0,0 0,1 0,1 0,1 0,1 0,1 0,1 0,1 -1,1 0,0 -1,0 -1,0 -1,0 -1,0 -2,0 0,0 0,-1 -1,-1 0,0 0,-1 0,-1z"/>
    <path id="7" class="fil2" d="M859 5416l1 1c-1,0 -1,0 -1,0 0,0 -1,0 -1,0 0,0 0,0 0,0 0,-1 0,-1 0,-1l0 -3 -1 0 0 -1 1 0 0 -1 1 -1 0 2 0 0 0 1 0 0 0 3c0,0 0,0 0,0 0,0 0,0 0,0 0,0 0,0 0,0 0,0 0,0 0,0z"/>
    <path id="8" class="fil2" d="M864 5416c-1,1 -1,1 -1,1 -1,0 -1,0 -1,0 -1,0 -1,0 -2,0 0,0 0,-1 0,-1 0,0 0,-1 0,-1 0,0 0,0 1,0 0,0 0,-1 0,-1 0,0 1,0 1,0 1,0 1,0 1,0 0,0 0,0 0,0 0,-1 0,-1 0,-1 0,0 0,0 -1,0 0,0 0,0 -1,0 0,0 0,0 0,1l-1 0c0,-1 0,-1 1,-1 0,-1 0,-1 0,-1 1,0 1,0 1,0 1,0 1,0 1,0 1,0 1,0 1,1 0,0 0,0 0,0 0,0 0,1 0,1l0 1c0,1 0,1 0,2 0,0 0,0 1,0l-1 0c0,0 0,0 0,-1zm-1 -1c0,0 0,0 -1,0 0,0 -1,0 -1,0 0,0 0,0 0,0 0,0 0,1 0,1 0,0 0,0 0,0 0,0 1,1 1,1 0,0 1,-1 1,-1 0,0 0,0 0,0 0,0 0,-1 0,-1l0 0z"/>
    <path id="9" class="fil2" d="M866 5417l0 -5 0 0 0 1c1,0 1,-1 1,-1 0,0 0,0 0,0 1,0 1,0 1,0l0 1c0,0 0,0 -1,0 0,0 0,0 0,0 0,0 0,0 0,1 0,0 -1,0 -1,0l0 3 0 0z"/>
    <path id="10" class="fil2" d="M873 5417l-2 -7 1 0 1 5c0,0 0,1 0,1 0,-1 1,-1 1,-1l1 -5 1 0 1 4c0,1 0,1 1,2 0,0 0,-1 0,-1l1 -5 1 0 -2 7 -1 0 -1 -5c0,-1 -1,-1 -1,-1 0,0 0,1 0,1l-1 5 -1 0z"/>
    <path id="11" class="fil2" d="M884 5416c-1,1 -1,1 -1,1 -1,0 -1,0 -1,0 -1,0 -1,0 -2,0 0,0 0,-1 0,-1 0,0 0,-1 0,-1 0,0 0,0 1,0 0,0 0,-1 0,-1 0,0 1,0 1,0 1,0 1,0 1,0 0,0 0,0 0,0 0,-1 0,-1 0,-1 0,0 0,0 -1,0 0,0 0,0 -1,0 0,0 0,0 0,1l-1 0c0,-1 0,-1 1,-1 0,-1 0,-1 0,-1 1,0 1,0 1,0 1,0 1,0 1,0 1,0 1,0 1,1 0,0 0,0 0,0 0,0 0,1 0,1l0 1c0,1 0,1 0,2 0,0 1,0 1,0l-1 0c0,0 0,0 0,-1zm-1 -1c0,0 0,0 -1,0 0,0 -1,0 -1,0 0,0 0,0 0,0 0,0 0,1 0,1 0,0 0,0 0,0 0,0 1,1 1,1 0,0 1,-1 1,-1 0,0 0,0 0,0 0,0 0,-1 0,-1l0 0z"/>
    <path id="12" class="fil2" d="M886 5419l0 -1c0,0 0,0 0,0 0,0 0,0 0,0 1,0 1,0 1,0 0,0 0,0 0,-1 0,0 0,0 0,0l-2 -5 1 0 1 3c0,0 0,1 0,1 1,0 1,-1 1,-1l1 -3 1 0 -2 5c0,1 -1,1 -1,1 0,1 0,1 0,1 0,0 -1,0 -1,0 0,0 0,0 0,0z"/>
   </g>
   <g>
    <polygon class="fil0" points="79,5400 77,5400 77,5386 70,5386 70,5400 68,5400 68,5384 79,5384 "/>
    <path id="1" class="fil0" d="M85 5399l0 5 -2 0 0 -16 2 0 0 2c1,-2 2,-2 4,-2 1,0 2,0 3,1 1,2 1,3 1,5 0,2 -1,3 -1,4 -1,1 -3,2 -4,2 -1,0 -2,0 -3,-1zm0 -8l0 7c1,0 2,0 3,0 1,0 2,0 2,-1 1,-1 1,-2 1,-3 0,-3 -1,-4 -3,-4 -1,0 -2,0 -3,1z"/>
    <path id="2" class="fil0" d="M100 5400c-2,0 -3,-1 -4,-2 -1,-1 -1,-2 -1,-4 0,-2 0,-3 1,-4 1,-2 2,-2 4,-2 2,0 3,0 4,2 1,1 1,2 1,4 0,2 0,3 -1,4 -1,1 -2,2 -4,2zm0 -11c-1,0 -2,1 -3,2 0,0 0,2 0,3 0,1 0,3 0,3 1,1 2,2 3,2 1,0 2,-1 3,-2 0,0 0,-2 0,-3 0,-3 -1,-5 -3,-5z"/>
    <polygon id="3" class="fil0" points="125,5400 123,5400 123,5394 117,5394 117,5400 115,5400 115,5388 117,5388 117,5393 123,5393 123,5388 125,5388 "/>
    <path id="4" class="fil0" d="M135 5397l0 -3c-3,0 -4,0 -5,0 -1,1 -1,2 -1,2 0,2 1,2 2,2 2,0 3,0 4,-1zm0 3l0 -2c-1,1 -2,2 -2,2 -1,0 -2,0 -2,0 -1,0 -2,0 -3,-1 -1,-1 -1,-2 -1,-3 0,-1 1,-2 2,-3 1,0 3,-1 6,-1l0 0c0,-1 0,-2 -1,-2 0,0 -1,0 -2,0 -1,0 -3,0 -4,0l0 0 0 -2c1,0 3,0 4,0 1,0 3,0 4,1 0,1 1,2 1,3l0 8 -2 0z"/>
    <path id="5" class="fil0" d="M148 5399c-1,1 -2,1 -3,1 -2,0 -3,-1 -4,-2 -1,-1 -2,-2 -2,-4 0,-2 1,-3 2,-4 1,-2 2,-2 4,-2 1,0 2,0 3,1l0 2 0 0c-1,-1 -2,-2 -3,-2 -1,0 -2,1 -3,2 -1,0 -1,2 -1,3 0,1 0,3 1,3 1,1 2,1 3,1 1,0 2,0 3,-1l0 0 0 2z"/>
    <path class="fil0" d="M511 5400l0 -16 10 0 0 2 -8 0 0 4 4 0c2,0 3,1 4,2 1,0 2,2 2,3 0,1 -1,3 -2,3 -1,1 -2,2 -4,2l-6 0zm2 -8l0 6 3 0c2,0 3,0 4,-1 0,0 1,-1 1,-2 0,-1 -1,-1 -1,-2 0,0 -1,-1 -1,-1 -1,0 -2,0 -3,0l-3 0z"/>
    <path id="1" class="fil0" d="M534 5400l-2 0 0 -10 -4 0 0 3c0,1 0,2 0,3 -1,1 -1,2 -1,2 -1,1 -1,1 -1,1 -1,1 -1,1 -2,1l-1 0 0 -2 1 0 0 0c0,0 1,0 1,0 0,0 1,-1 1,-2 0,-1 0,-1 0,-2 0,-1 0,-3 0,-6l8 0 0 12z"/>
    <path id="2" class="fil0" d="M542 5400c-2,0 -3,-1 -4,-2 -1,-1 -1,-2 -1,-4 0,-2 0,-3 1,-4 1,-2 2,-2 4,-2 2,0 3,0 4,2 1,1 1,2 1,4 0,2 0,3 -1,4 -1,1 -2,2 -4,2zm0 -11c-1,0 -2,1 -2,2 -1,0 -1,2 -1,3 0,1 0,3 1,3 0,1 1,2 2,2 1,0 2,-1 3,-2 0,0 1,-2 1,-3 0,-3 -2,-5 -4,-5z"/>
    <polygon id="3" class="fil0" points="558,5390 552,5390 552,5400 550,5400 550,5388 558,5388 "/>
    <polygon class="fil0" points="366,5400 364,5400 364,5386 356,5386 356,5400 355,5400 355,5384 366,5384 "/>
    <path id="1" class="fil0" d="M372 5399l0 5 -2 0 0 -16 2 0 0 2c1,-2 2,-2 3,-2 2,0 3,0 4,1 1,2 1,3 1,5 0,2 -1,3 -2,4 -1,1 -2,2 -3,2 -1,0 -2,0 -3,-1zm0 -8l0 7c1,0 2,0 2,0 2,0 2,0 3,-1 1,-1 1,-2 1,-3 0,-3 -1,-4 -3,-4 -1,0 -2,0 -3,1z"/>
    <path id="2" class="fil0" d="M389 5397l0 -3c-2,0 -4,0 -4,0 -1,1 -1,2 -1,2 0,2 0,2 2,2 1,0 2,0 3,-1zm0 3l0 -2c0,1 -1,2 -2,2 -1,0 -1,0 -2,0 -1,0 -2,0 -2,-1 -1,-1 -1,-2 -1,-3 0,-1 0,-2 1,-3 1,0 3,-1 6,-1l0 0c0,-1 0,-2 0,-2 -1,0 -2,0 -3,0 -1,0 -2,0 -3,0l0 0 0 -2c1,0 2,0 3,0 2,0 3,0 4,1 1,1 1,2 1,3l0 8 -2 0z"/>
    <path id="3" class="fil0" d="M405 5400l-3 0 -4 -6 -2 0 0 6 -1 0 0 -12 1 0 0 5c1,0 2,0 2,0 0,0 1,-1 1,-1 0,-1 1,-1 1,-2 0,0 0,0 1,-1 0,0 0,0 1,-1 0,0 1,0 1,0l1 0 0 2 -1 0c0,0 -1,0 -1,0 0,0 -1,1 -1,1 0,1 -1,2 -2,3l6 6z"/>
    <polygon id="4" class="fil0" points="415,5390 411,5390 411,5400 409,5400 409,5390 405,5390 405,5388 415,5388 "/>
    <polygon id="5" class="fil0" points="426,5400 425,5400 425,5391 418,5400 417,5400 417,5388 419,5388 419,5397 425,5388 426,5388 "/>
    <path id="6" class="fil0" d="M440 5400l-2 0 -5 -6 -1 0 0 6 -2 0 0 -12 2 0 0 5c0,0 1,0 1,0 1,0 1,-1 1,-1 1,-1 1,-1 1,-2 0,0 0,0 1,-1 0,0 0,0 1,-1 0,0 1,0 1,0l1 0 0 2 -1 0c0,0 -1,0 -1,0 0,0 -1,1 -1,1 0,1 -1,2 -2,3l6 6z"/>
    <polygon id="7" class="fil0" points="451,5400 449,5400 449,5391 443,5400 442,5400 442,5388 443,5388 443,5397 450,5388 451,5388 "/>
    <path class="fil0" d="M220 5400l-2 0 -6 -7 -2 0 0 7 -2 0 0 -16 2 0 0 7c1,0 1,0 2,0 0,0 1,0 1,-1 0,0 0,0 1,0 0,-1 0,-1 1,-3 0,-1 1,-2 1,-2 1,0 2,-1 3,-1l1 0 0 2 -1 0c-1,0 -2,0 -2,1 0,0 -1,1 -1,1 0,1 -1,2 -1,2 0,1 -1,1 -2,2l7 8z"/>
    <path id="1" class="fil0" d="M226 5400c-2,0 -3,-1 -4,-2 -1,-1 -1,-2 -1,-4 0,-2 0,-3 1,-4 1,-2 2,-2 4,-2 2,0 3,0 4,2 1,1 1,2 1,4 0,2 0,3 -1,4 -1,1 -2,2 -4,2zm0 -11c-1,0 -2,1 -3,2 0,0 0,2 0,3 0,1 0,3 0,3 1,1 2,2 3,2 1,0 2,-1 3,-2 0,0 0,-2 0,-3 0,-3 -1,-5 -3,-5z"/>
    <polygon id="2" class="fil0" points="245,5400 243,5400 243,5390 240,5397 239,5397 236,5390 236,5400 234,5400 234,5388 236,5388 239,5395 242,5388 245,5388 "/>
    <path id="3" class="fil0" d="M255 5397l0 -3c-2,0 -4,0 -5,0 -1,1 -1,2 -1,2 0,2 1,2 3,2 1,0 2,0 3,-1zm0 3l0 -2c-1,1 -2,2 -2,2 -1,0 -2,0 -2,0 -1,0 -2,0 -3,-1 0,-1 -1,-2 -1,-3 0,-1 1,-2 2,-3 1,0 3,-1 6,-1l0 0c0,-1 0,-2 -1,-2 0,0 -1,0 -2,0 -1,0 -2,0 -4,0l0 0 0 -2c2,0 3,0 4,0 2,0 3,0 4,1 0,1 1,2 1,3l0 8 -2 0z"/>
    <polygon id="4" class="fil0" points="270,5400 268,5400 268,5394 262,5394 262,5400 260,5400 260,5388 262,5388 262,5393 268,5393 268,5388 270,5388 "/>
    <path id="5" class="fil0" d="M284 5402l-2 0 0 -2 -9 0 0 2 -2 0 0 -4 2 0c0,-1 1,-3 1,-4 1,-2 1,-4 1,-6l7 0 0 10 2 0 0 4zm-4 -4l0 -8 -3 0c0,3 -1,6 -3,8l6 0z"/>
    <path id="6" class="fil0" d="M293 5397l0 -3c-3,0 -4,0 -5,0 -1,1 -1,2 -1,2 0,2 1,2 2,2 1,0 3,0 4,-1zm0 3l0 -2c-1,1 -2,2 -3,2 0,0 -1,0 -1,0 -1,0 -2,0 -3,-1 -1,-1 -1,-2 -1,-3 0,-1 1,-2 2,-3 1,0 3,-1 6,-1l0 0c0,-1 0,-2 -1,-2 0,0 -1,0 -2,0 -1,0 -3,0 -4,0l0 0 0 -2c1,0 2,0 4,0 1,0 3,0 3,1 1,1 2,2 2,3l0 8 -2 0z"/>
    <path class="fil0" d="M630 5400l-3 0 -6 -7 -1 0 0 7 -2 0 0 -16 2 0 0 7c0,0 1,0 1,0 1,0 1,0 1,-1 1,0 1,0 1,0 0,-1 0,-1 1,-3 0,-1 1,-2 2,-2 0,0 1,-1 2,-1l1 0 0 2 -1 0c-1,0 -1,0 -2,1 0,0 0,1 -1,1 0,1 0,2 -1,2 0,1 0,1 -1,2l7 8z"/>
    <path id="1" class="fil0" d="M635 5400c-1,0 -3,-1 -3,-2 -1,-1 -2,-2 -2,-4 0,-2 1,-3 2,-4 1,-2 2,-2 3,-2 2,0 3,0 4,2 1,1 2,2 2,4 0,2 -1,3 -2,4 -1,1 -2,2 -4,2zm0 -11c-1,0 -2,1 -2,2 -1,0 -1,2 -1,3 0,1 0,3 1,3 0,1 1,2 2,2 2,0 2,-1 3,-2 1,0 1,-2 1,-3 0,-3 -1,-5 -4,-5z"/>
    <polygon id="2" class="fil0" points="653,5400 651,5400 651,5394 645,5394 645,5400 643,5400 643,5388 645,5388 645,5393 651,5393 651,5388 653,5388 "/>
    <polygon id="3" class="fil0" points="665,5390 661,5390 661,5400 659,5400 659,5390 655,5390 655,5388 665,5388 "/>
    <path id="4" class="fil0" d="M673 5397l0 -3c-2,0 -4,0 -4,0 -1,1 -2,2 -2,2 0,2 1,2 3,2 1,0 2,0 3,-1zm0 3l0 -2c-1,1 -1,2 -2,2 -1,0 -1,0 -2,0 -1,0 -2,0 -2,-1 -1,-1 -1,-2 -1,-3 0,-1 0,-2 1,-3 1,0 3,-1 6,-1l0 0c0,-1 0,-2 0,-2 -1,0 -2,0 -3,0 -1,0 -2,0 -3,0l0 0 0 -2c1,0 2,0 3,0 2,0 3,0 4,1 1,1 1,2 1,3l0 8 -2 0z"/>
    <path id="5" class="fil0" d="M689 5400l-3 0 -4 -6 -2 0 0 6 -1 0 0 -12 1 0 0 5c1,0 2,0 2,0 0,0 1,-1 1,-1 0,-1 1,-1 1,-2 0,0 0,0 1,-1 0,0 0,0 1,-1 0,0 1,0 1,0l1 0 0 2 -1 0c0,0 -1,0 -1,0 0,0 -1,1 -1,1 0,1 -1,2 -2,3l6 6z"/>
    <polygon id="6" class="fil0" points="699,5390 695,5390 695,5400 693,5400 693,5390 689,5390 689,5388 699,5388 "/>
    <polygon id="7" class="fil0" points="710,5400 709,5400 709,5391 702,5400 701,5400 701,5388 703,5388 703,5397 709,5388 710,5388 "/>
   </g>
  </g>
  <g id="_2303294110272">
   <g>
    <path class="fil3" d="M-625 -4678l1 0 3 -10 3 0 3 10 1 0 0 1 -4 0 0 -1 1 0 -1 -2 -3 0 -1 2 1 0 0 1 -4 0 0 -1zm4 -3l3 0 -2 -4 0 0 -1 4zm8 3c0,-1 1,-2 1,-2 0,0 0,-1 0,-2l0 -1 -1 -1 0 -1 7 0 1 0 0 1 -1 1 0 5 1 0 0 4 -2 0 0 -3 -5 0 0 3 -2 0 0 -4 1 0zm3 -4c0,1 0,1 0,2 0,1 0,1 -1,2l3 0 0 -5 -2 0 0 1zm11 -3c1,0 2,0 2,1 1,0 1,1 1,1 0,1 0,1 0,1 0,1 -1,1 -1,1 0,0 1,0 1,1 1,0 1,0 1,1 0,1 -1,1 -1,2 -1,0 -2,0 -3,0l-5 0 0 -1 2 0 0 -5 -2 -1 0 -1 2 0 3 0zm-1 5l0 2 1 0c1,0 1,-1 1,-1 0,0 1,0 1,0 0,-1 -1,-1 -1,-1 0,0 0,0 -1,0l-1 0zm0 -2l1 0c0,0 1,0 1,0 0,0 0,0 0,0 0,-1 0,-1 0,-1 0,0 -1,0 -1,0l-1 0 0 1zm6 1c0,-1 0,-2 1,-3 0,-1 1,-1 2,-1 2,0 2,0 3,1 1,1 1,2 1,3l0 0c0,1 0,2 -1,3 -1,1 -1,1 -3,1 -1,0 -2,0 -2,-1 -1,-1 -1,-2 -1,-3l0 0zm2 0c0,1 0,2 0,2 0,0 1,1 1,1 1,0 1,-1 2,-1 0,0 0,-1 0,-2l0 0c0,-1 0,-1 0,-2 -1,0 -1,0 -2,0 0,0 -1,0 -1,0 0,1 0,1 0,2l0 0zm6 -3l0 -1 5 0 0 1 -1 1 0 1 0 0 2 -2c0,0 0,0 0,-1 1,0 1,0 2,0 0,0 0,0 0,0 1,0 1,0 1,0l0 2c-1,0 -1,0 -1,0 0,0 0,0 0,0 0,0 0,0 0,0 -1,0 -1,0 -1,0l-1 2 2 3 1 0 0 1 -3 0 -2 -3 0 0 0 2 1 0 0 1 -5 0 0 -1 1 0 0 -5 -1 -1zm15 7c0,0 0,0 0,0 0,0 0,-1 0,-1 -1,1 -1,1 -1,1 -1,0 -1,0 -2,0 0,0 -1,0 -1,0 -1,-1 -1,-1 -1,-2 0,-1 0,-1 1,-2 0,0 1,0 2,0l2 0 0 -1c0,-1 -1,-1 -1,-1 0,0 0,0 -1,0 0,0 0,0 0,0 -1,0 -1,0 -1,0l0 1 -2 0 0 -2c1,0 1,0 2,-1 0,0 1,0 1,0 1,0 2,0 3,1 0,0 1,1 1,2l0 3c0,0 0,0 0,0 0,1 0,1 0,1l0 0 0 1 -2 0zm-2 -1c0,0 1,0 1,0 0,-1 0,-1 1,-1l0 -1 -2 0c0,0 0,0 -1,0 0,0 0,1 0,1 0,0 0,0 0,1 1,0 1,0 1,0zm13 -7l0 3 -1 0 0 -1 -2 0 0 5 1 0 0 1 -4 0 0 -1 1 0 0 -5 -1 0 0 1 -2 0 0 -3 8 0zm4 7c1,0 1,0 1,-1 1,0 1,0 1,-1l2 0 0 0c0,1 -1,2 -1,3 -1,0 -2,0 -3,0 -1,0 -2,0 -2,-1 -1,-1 -1,-2 -1,-3l0 0c0,-1 0,-2 1,-3 0,-1 1,-1 3,-1 0,0 1,0 1,0 1,1 1,1 2,1l0 2 -2 0 -1 -1c0,0 0,0 0,0 0,0 0,0 0,0 -1,0 -1,0 -2,0 0,1 0,1 0,2l0 0c0,1 0,2 0,2 0,0 1,1 1,1zm8 -7l0 3 2 0c1,0 2,0 2,0 1,1 1,2 1,2 0,1 0,2 -1,2 0,1 -1,1 -2,1l-5 0 0 -1 1 0 0 -5 -1 -1 0 -1 1 0 2 0zm0 4l0 3 2 0c0,0 0,-1 1,-1 0,0 0,0 0,-1 0,0 0,0 0,0 -1,-1 -1,-1 -1,-1l-2 0zm1 -4l0 1 -1 1 0 -2 1 0zm5 1l0 -1 4 0 0 1 -1 1 0 1 1 0 1 -2c1,0 1,0 1,-1 1,0 1,0 1,0 1,0 1,0 1,0 0,0 1,0 1,0l-1 2c0,0 0,0 0,0 0,0 0,0 0,0 0,0 0,0 -1,0 0,0 0,0 0,0l-1 2 2 3 1 0 0 1 -3 0 -2 -3 -1 0 0 2 1 0 0 1 -4 0 0 -1 1 0 0 -5 -1 -1zm13 7c-1,0 -2,0 -2,-1 -1,-1 -1,-1 -1,-3l0 0c0,-1 0,-2 1,-3 0,-1 1,-1 2,-1 1,0 2,0 3,1 0,1 1,2 1,3l0 1 -5 0 0 0c0,0 0,1 0,1 1,1 1,1 2,1 0,0 0,0 1,0 0,-1 0,-1 1,-1l0 1c0,1 0,1 -1,1 0,0 -1,0 -2,0zm0 -6c0,0 -1,0 -1,0 0,0 0,1 0,1l0 0 2 0 0 0c0,0 0,-1 0,-1 0,0 0,0 -1,0zm8 2c0,-1 1,-2 1,-3 1,-1 2,-1 3,-1 1,0 2,0 3,1 0,1 1,2 1,3l0 0c0,1 -1,2 -1,3 -1,1 -2,1 -3,1 -1,0 -2,0 -3,-1 0,-1 -1,-2 -1,-3l0 0zm2 0c0,1 1,2 1,2 0,0 0,1 1,1 1,0 1,-1 1,-1 1,0 1,-1 1,-2l0 0c0,-1 0,-1 -1,-2 0,0 0,0 -1,0 -1,0 -1,0 -1,0 0,1 -1,1 -1,2l0 0zm11 -3c1,0 2,0 2,1 1,0 1,1 1,2l0 1c0,1 0,2 -1,2 0,1 -1,1 -2,1 -1,0 -2,0 -3,-1 -1,0 -1,-1 -1,-3l0 -1c0,-1 0,-3 1,-4 1,-1 2,-1 3,-1 0,0 0,-1 1,-1 0,0 0,0 0,0l2 0 0 0c0,1 -1,1 -1,2 0,0 -1,0 -2,0 -1,0 -1,1 -2,1 0,0 0,1 0,1l0 0c0,0 0,0 1,0 0,0 0,0 1,0zm0 1c-1,0 -1,0 -2,1 0,0 0,1 0,1l0 0c0,1 0,2 0,2 1,0 1,1 2,1 0,0 1,-1 1,-1 0,0 0,-1 0,-1l0 -1c0,0 0,-1 0,-1 0,-1 -1,-1 -1,-1zm12 5c0,0 0,0 1,-1 0,0 0,0 0,-1l2 0 0 0c0,1 0,2 -1,3 -1,0 -1,0 -2,0 -1,0 -2,0 -3,-1 -1,-1 -1,-2 -1,-3l0 0c0,-1 0,-2 1,-3 1,-1 2,-1 3,-1 0,0 1,0 2,0 0,1 0,1 1,1l0 2 -2 0 0 -1c0,0 -1,0 -1,0 0,0 0,0 0,0 -1,0 -1,0 -1,0 -1,1 -1,1 -1,2l0 0 2 0 0 1 -2 0 0 0c0,0 0,1 1,1 0,1 0,1 1,1zm5 0c0,-1 0,-2 1,-2 0,0 0,-1 0,-2l0 -1 -1 -1 0 -1 7 0 1 0 0 1 -1 1 0 5 1 0 0 4 -2 0 0 -3 -5 0 0 3 -2 0 0 -4 1 0zm3 -4c0,1 0,1 0,2 0,1 -1,1 -1,2l3 0 0 -5 -2 0 0 1zm6 -2l0 -1 4 0 0 1 -1 1 0 1 3 0 0 -1 -1 -1 0 -1 1 0 2 0 1 0 0 1 -1 1 0 5 1 0 0 1 -4 0 0 -1 1 0 0 -2 -3 0 0 2 1 0 0 1 -4 0 0 -1 1 0 0 -5 -1 -1zm15 7c0,0 0,0 0,0 0,0 0,-1 0,-1 0,1 0,1 -1,1 0,0 -1,0 -1,0 -1,0 -1,0 -2,0 0,-1 -1,-1 -1,-2 0,-1 1,-1 1,-2 1,0 2,0 3,0l1 0 0 -1c0,-1 0,-1 0,-1 -1,0 -1,0 -1,0 -1,0 -1,0 -1,0 0,0 0,0 0,0l-1 1 -1 0 0 -2c0,0 1,0 1,-1 1,0 1,0 2,0 1,0 2,0 2,1 1,0 1,1 1,2l0 3c0,0 0,0 0,0 0,1 0,1 0,1l1 0 0 1 -3 0zm-1 -1c0,0 0,0 0,0 1,-1 1,-1 1,-1l0 -1 -1 0c-1,0 -1,0 -1,0 0,0 0,1 0,1 0,0 0,0 0,1 0,0 0,0 1,0zm5 -6l0 -1 4 0 0 1 -1 1 0 1 3 0 0 -1 -1 -1 0 -1 1 0 2 0 1 0 0 1 -1 1 0 5 1 0 0 1 -4 0 0 -1 1 0 0 -2 -3 0 0 2 1 0 0 1 -4 0 0 -1 1 0 0 -5 -1 -1zm10 0l0 -1 4 0 0 1 -1 1 0 1 3 0 0 -1 -1 -1 0 -1 1 0 2 0 1 0 0 1 -1 1 0 5 1 0 0 1 -4 0 0 -1 1 0 0 -2 -3 0 0 2 1 0 0 1 -4 0 0 -1 1 0 0 -5 -1 -1zm15 6l1 0 0 -2 -1 0 -2 3 -2 0 0 -1 1 0 1 -2c-1,0 -1,0 -2,-1 0,0 0,-1 0,-1 0,-1 0,-2 1,-2 1,-1 1,-1 2,-1l4 0 1 0 0 1 -1 1 0 5 1 0 0 1 -4 0 0 -1zm-2 -4c0,0 0,0 1,1 0,0 0,0 0,0l2 0 0 -2 -2 0c0,0 0,0 0,0 -1,0 -1,1 -1,1zm-61 -5c0,1 0,1 -1,2 0,0 0,1 -1,1l-1 -1c1,0 1,0 1,-1 0,0 0,0 0,-1l0 -1 2 0 0 1z"/>
    <path class="fil4" d="M-625 -4733l2 0 0 -12 -2 -1 0 -2 13 0 0 5 -3 0 0 -2 -5 0 0 12 2 0 0 2 -7 0 0 -2zm12 0l1 0 5 -15 4 0 5 15 1 0 0 2 -6 0 0 -2 1 0 0 -2 -6 0 -1 2 1 0 0 2 -5 0 0 -2zm6 -5l4 0 -2 -6 0 0 -2 6zm18 -7l0 5c-1,3 -1,6 -2,7 -1,1 -2,2 -4,2l-1 0 0 -2 0 0c2,-1 2,-1 3,-2 0,-1 0,-3 0,-5l0 -5 -2 -1 0 -2 14 0 1 0 0 2 -1 1 0 12 1 0 0 2 -6 0 0 -2 1 0 0 -12 -4 0zm18 -3l0 2 -2 1 0 7 0 1 7 -7 0 -1 -2 -1 0 -2 2 0 3 0 2 0 0 2 -2 1 0 12 2 0 0 2 -7 0 0 -2 2 0 0 -8 0 0 -7 7 0 1 2 0 0 2 -7 0 0 -2 2 0 0 -12 -2 -1 0 -2 2 0 3 0 2 0zm29 2l-2 1 0 12 2 0 0 6 -3 0 0 -4 -15 0 0 -2 2 0 0 -12 -2 -1 0 -2 2 0 4 0 1 0 0 2 -1 1 0 12 6 0 0 -12 -1 -1 0 -2 7 0 0 2zm6 -2l0 7 3 0c2,0 4,0 5,1 1,1 2,2 2,4 0,1 -1,3 -2,4 -1,1 -3,1 -5,1l-8 0 0 -2 2 0 0 -12 -2 -1 0 -2 2 0 3 0zm0 9l0 6 3 0c1,0 2,-1 3,-1 0,-1 0,-1 0,-2 0,-1 0,-2 0,-2 -1,-1 -2,-1 -3,-1l-3 0zm2 -9l0 2 -2 1 0 -3 2 0zm9 15l2 0 0 -12 -2 -1 0 -2 7 0 0 2 -2 1 0 4 2 0 3 -4c0,-1 1,-2 1,-2 1,-1 2,-1 3,-1 0,0 0,0 1,0 0,0 0,1 1,1l-1 2c0,0 0,0 -1,0 0,0 0,0 0,0 0,0 -1,0 -1,0 0,1 -1,1 -1,2l-3 3 5 7 2 0 0 2 -7 0 0 -2 1 0 -3 -5 -2 0 0 5 2 0 0 2 -7 0 0 -2zm17 0l1 0 5 -15 3 0 5 15 2 0 0 2 -6 0 0 -2 1 0 -1 -2 -5 0 -1 2 1 0 0 2 -5 0 0 -2zm6 -5l4 0 -2 -6 0 0 -2 6zm-123 36l2 0 0 -12 -2 0 0 -2 17 0 0 2 -1 0 0 12 1 0 0 2 -6 0 0 -2 1 0 0 -12 -7 0 0 12 2 0 0 2 -7 0 0 -2zm27 -14c2,0 3,0 4,1 1,1 2,2 2,4 0,1 -1,3 -2,4 -1,1 -2,1 -4,1l-3 0 0 4 2 0 0 2 -7 0 0 -2 1 0 0 -12 -1 0 0 -2 1 0 7 0zm-3 8l3 0c1,0 1,-1 2,-1 0,-1 1,-1 1,-2 0,-1 -1,-2 -1,-2 -1,-1 -1,-1 -2,-1l-3 0 0 6zm7 6l1 0 5 -14 4 0 5 14 1 0 0 2 -6 0 0 -2 2 0 -1 -2 -6 0 0 2 1 0 0 2 -6 0 0 -2zm6 -5l4 0 -2 -6 0 0 -2 6zm19 -9c2,0 3,0 4,1 1,0 2,2 2,3 0,1 0,2 -1,2 0,1 -1,1 -1,2 1,0 1,0 2,1 0,1 1,2 1,2 0,2 -1,3 -2,4 -1,1 -3,1 -4,1l-9 0 0 -2 2 0 0 -12 -2 0 0 -2 2 0 6 0zm-3 9l0 5 4 0c0,0 1,0 2,-1 0,0 0,-1 0,-2 0,0 0,-1 0,-1 -1,-1 -1,-1 -2,-1l-4 0zm0 -2l3 0c1,0 1,-1 2,-1 0,0 1,-1 1,-2 0,0 -1,-1 -1,-1 -1,-1 -1,-1 -2,-1l-3 0 0 5zm11 -5l0 -2 7 0 0 2 -2 0 0 5 7 0 0 -5 -2 0 0 -2 2 0 3 0 2 0 0 2 -2 0 0 12 2 0 0 2 -7 0 0 -2 2 0 0 -5 -7 0 0 5 2 0 0 2 -7 0 0 -2 2 0 0 -12 -2 0zm25 -2l0 2 -1 0 0 8 0 0 7 -7 0 -1 -2 0 0 -2 2 0 3 0 2 0 0 2 -2 0 0 12 2 0 0 2 -7 0 0 -2 2 0 0 -8 -1 0 -6 7 0 1 1 0 0 2 -6 0 0 -2 1 0 0 -12 -1 0 0 -2 1 0 4 0 1 0zm21 14l2 0 0 -4c0,0 -1,0 -2,0 0,0 -1,0 -1,0 -2,0 -4,0 -5,-1 -1,-1 -2,-2 -2,-4l0 -3 -2 0 0 -2 6 0 1 0 0 2 -1 0 0 3c0,1 0,2 0,2 1,0 2,1 3,1 0,0 1,0 1,0 1,-1 2,-1 2,-1l0 -5 -2 0 0 -2 2 0 4 0 1 0 0 2 -1 0 0 12 1 0 0 2 -7 0 0 -2zm8 0l2 0 5 -14 3 0 5 14 1 0 0 2 -5 0 0 -2 1 0 -1 -2 -5 0 -1 2 1 0 0 2 -6 0 0 -2zm6 -5l4 0 -2 -6 0 0 -2 6zm23 5l2 0 0 -12 -2 0 0 -2 13 0 0 4 -3 0 0 -2 -5 0 0 12 2 0 0 2 -7 0 0 -2zm22 -14c2,0 4,0 5,1 1,1 1,2 1,4 0,1 0,3 -1,4 -1,1 -3,1 -5,1l-3 0 0 4 2 0 0 2 -7 0 0 -2 2 0 0 -12 -2 0 0 -2 2 0 6 0zm-3 8l3 0c1,0 2,-1 2,-1 1,-1 1,-1 1,-2 0,-1 0,-2 -1,-2 0,-1 -1,-1 -2,-1l-3 0 0 6zm26 -6l-2 0 -5 11c0,1 -1,2 -1,3 -1,0 -2,1 -3,1 0,0 -1,0 -1,0 0,0 0,0 0,0l0 -3c0,0 0,0 0,0 0,0 0,0 1,0 0,0 1,0 1,0 0,-1 1,-1 1,-2l0 0 -5 -10 -2 0 0 -2 7 0 0 2 -1 0 2 5 0 1 0 0 3 -6 -1 0 0 -2 6 0 0 2zm1 12l2 0 0 -12 -2 0 0 -2 17 0 0 2 -2 0 0 12 2 0 0 2 -7 0 0 -2 2 0 0 -12 -7 0 0 12 2 0 0 2 -7 0 0 -2zm18 0l1 0 5 -14 4 0 5 14 1 0 0 2 -6 0 0 -2 2 0 -1 -2 -6 0 0 2 1 0 0 2 -6 0 0 -2zm6 -5l4 0 -2 -6 0 0 -2 6z"/>
   </g>
   <g>
    <path class="fil5" d="M-692 -4686l-9 0 0 -4 4 0 0 -39 -21 0 0 7 10 0 0 3 -13 0 0 -14 27 0 0 43 2 0 2 0 0 -43 27 0 0 14 -14 0 0 -3 11 0 0 -7 -21 0 0 39 4 0 0 4 -9 0zm12 3l-12 0 -12 0 0 4 12 0 12 0 0 -4zm-12 -56l9 0 0 3 3 0 0 -7 -12 0 -12 0 0 7 3 0 0 -3 9 0zm9 13l0 21c0,6 5,11 11,11 7,0 12,-5 12,-12l0 -1 -3 0 0 1c0,5 -4,9 -9,9 -4,0 -8,-4 -8,-9l0 -20 -3 0zm-18 0l0 21c0,6 -5,11 -12,11 -6,0 -11,-5 -11,-12l0 -1 3 0 0 1c0,5 4,9 8,9 5,0 9,-4 9,-9l0 -20 3 0z"/>
    <path class="fil4" d="M-692 -4669c12,0 22,-5 30,-12 7,-8 12,-19 12,-30 0,-12 -5,-22 -12,-30 -8,-7 -18,-12 -30,-12 -12,0 -22,5 -30,12 -7,8 -12,18 -12,30 0,11 5,22 12,30 8,7 18,12 30,12zm32 -10c-8,8 -20,13 -32,13 -13,0 -24,-5 -32,-13 -8,-8 -13,-20 -13,-32 0,-13 5,-24 13,-32 8,-8 19,-14 32,-14 12,0 24,6 32,14 8,8 13,19 13,32 0,12 -5,24 -13,32z"/>
   </g>
  </g>
  <g id="_2303294109696">
   <path class="fil6" d="M-4538 5292c0,-1 1,-1 1,-2 2,-1 3,-2 4,-3 1,-2 1,-3 1,-5 0,-2 0,-3 -1,-5 -1,-1 -2,-3 -4,-4 0,0 -1,-1 -1,-1 0,-1 0,-2 0,-3 0,-1 1,-1 1,-2 1,0 2,0 2,0 2,0 4,-1 6,-2 1,0 3,-1 4,-3 1,-1 1,-3 2,-4 0,-2 0,-4 -1,-5 0,-1 0,-2 0,-2 0,-1 1,-2 1,-2 1,-1 2,-1 2,-1 1,0 2,0 3,1 1,1 3,1 5,2 1,0 3,0 5,-1 2,0 3,-1 4,-2 2,-2 2,-3 3,-5 0,0 1,-1 1,-1 1,-1 2,-1 2,-1 1,0 2,0 3,1 0,0 1,1 1,1 0,2 1,3 2,5 2,1 3,2 5,2 2,1 3,1 5,1 2,-1 4,-1 5,-2 1,-1 2,-1 2,-1 1,0 2,0 3,1 0,0 1,1 1,2 0,0 0,1 0,2 -1,1 -1,3 -1,5 0,1 1,3 2,4 1,1 2,3 4,3 2,1 3,2 5,2l0 0c1,0 2,0 3,0 0,1 1,1 1,2 0,1 0,2 0,3 0,0 -1,1 -1,1 -2,1 -3,3 -4,4 -1,2 -1,3 -1,5 0,2 0,3 1,5 1,1 2,2 4,3 0,1 1,1 1,2 0,1 0,2 0,2 0,1 -1,2 -1,2 -1,1 -2,1 -2,1 -2,0 -4,0 -6,1 -1,1 -3,2 -4,4 -1,1 -2,3 -2,4 0,2 0,3 1,5 0,1 0,1 0,2 0,1 -1,2 -1,2 -1,0 -2,1 -3,1 0,0 -1,0 -2,-1 -1,-1 -3,-2 -5,-2 -2,0 -3,0 -5,0 -2,1 -3,2 -5,3 -1,1 -2,3 -2,4 0,1 -1,2 -1,2 -1,1 -2,1 -3,1 0,0 -1,0 -2,-1 0,0 -1,-1 -1,-2 -1,-1 -1,-3 -3,-4 -1,-1 -2,-2 -4,-3 -2,0 -4,0 -5,0 -2,0 -4,1 -5,2 -1,1 -2,1 -3,1 0,0 -1,0 -2,-1 0,0 -1,-1 -1,-2 0,-1 0,-1 0,-2 1,-2 1,-3 1,-5 -1,-1 -1,-3 -2,-4 -1,-2 -3,-3 -4,-4 -2,-1 -4,-1 -6,-1 0,0 -1,0 -2,-1 0,0 -1,-1 -1,-2 0,0 0,-1 0,-2zm53 3c-3,3 -8,5 -13,5 -4,0 -9,-2 -12,-5 -4,-4 -6,-8 -6,-13 0,-5 2,-10 6,-13 3,-3 8,-5 12,-5 5,0 10,2 13,5 3,3 5,8 5,13 0,5 -2,9 -5,13zm-4 -21c-2,-3 -5,-4 -9,-4 -3,0 -6,1 -8,4 -2,2 -3,5 -3,8 0,3 1,6 3,8 2,2 5,4 8,4 4,0 7,-2 9,-4 2,-2 3,-5 3,-8 0,-3 -1,-6 -3,-8zm-35 -3c-1,1 -2,1 -3,2 0,1 1,2 1,3 1,2 1,4 1,6 0,2 0,4 -1,6 0,1 -1,2 -1,3 1,1 2,1 3,2 2,1 4,3 5,4 1,2 2,4 2,6 1,1 1,2 1,3l1 0c1,0 2,-1 3,-1 1,0 2,1 3,1 1,0 2,0 3,0 2,1 4,2 6,3 1,1 2,2 2,3 1,-1 2,-2 3,-3 2,-1 4,-2 6,-3 2,0 4,-1 6,-1 1,1 3,1 4,1 0,-1 0,-2 1,-3 0,-2 1,-4 2,-6 1,-1 3,-3 5,-4 1,-1 2,-1 3,-2 0,-1 -1,-2 -1,-3 -1,-2 -1,-4 -1,-6 0,-2 0,-4 1,-6 0,-1 1,-2 1,-3 -1,-1 -2,-1 -3,-2 -2,-1 -4,-3 -5,-5 -1,-1 -2,-3 -2,-5 -1,-1 -1,-2 -1,-3 -1,0 -3,0 -4,0 -2,0 -4,0 -6,-1 -2,0 -4,-1 -6,-3 -1,0 -2,-1 -3,-2 0,1 -1,2 -2,2 -2,2 -4,3 -6,3 -2,1 -4,1 -6,1 -1,0 -3,0 -4,0 0,1 0,2 -1,3 0,2 -1,4 -2,5 -1,2 -3,4 -5,5z"/>
   <path class="fil6" d="M-4578 5316c31,1 73,14 100,27 19,-5 42,-11 61,-12 2,0 4,2 4,4 0,2 -1,4 -3,4 -18,1 -40,6 -56,11 -39,11 -75,31 -104,60 -1,0 -1,1 -3,1 -1,0 -2,-1 -2,-2 -2,-1 -2,-4 0,-5 8,-8 16,-15 25,-22 -8,-3 -16,-5 -23,-7 -3,0 -4,-3 -3,-5 0,-2 2,-3 4,-3 10,3 20,6 30,9 4,-2 8,-5 12,-7 -14,-5 -29,-9 -43,-12 -2,0 -4,-2 -3,-4 0,-3 2,-4 4,-4 17,4 34,9 51,15 4,-2 9,-5 13,-7 -21,-8 -43,-14 -65,-17 -2,0 -4,-2 -3,-4 0,-3 2,-4 4,-4 25,4 51,11 74,21 5,-2 10,-4 15,-6 -26,-12 -62,-22 -90,-23 -2,0 -4,-2 -3,-4 0,-2 1,-4 4,-4zm165 70c0,1 0,2 0,3 -1,1 -2,1 -3,1 -9,3 -19,6 -28,9 -9,3 -18,7 -27,11l0 1 -1 0c-1,0 -2,-1 -2,-1 -1,0 -1,-1 -2,-1 0,-1 0,-2 0,-3 1,-1 1,-2 2,-3 9,-4 18,-8 27,-11 10,-3 20,-6 30,-9 1,0 2,0 2,1 1,0 2,1 2,2zm-99 24c0,0 0,0 -1,0 0,0 -1,0 -2,0 0,0 -1,-1 -1,-1 0,-1 -1,-2 0,-3 0,-1 0,-2 1,-2 16,-10 31,-18 46,-24 20,-8 38,-12 52,-15 1,0 2,0 3,1 0,0 1,1 1,2l0 0c0,1 0,2 0,3 -1,1 -2,1 -3,1 -14,3 -31,8 -50,15 -15,6 -30,13 -45,23 0,0 0,0 -1,0zm23 -42c28,-12 55,-18 72,-20 1,0 2,0 3,1 0,0 1,1 1,2l0 0c0,1 0,2 -1,3 0,1 -1,1 -2,1 -17,3 -42,8 -70,20 -20,8 -40,19 -59,35 -1,0 -1,0 -1,0 -1,0 -1,0 -2,0 0,0 -1,0 -1,0 -1,0 -1,0 -1,-1l-1 0c0,-1 0,-2 0,-3 0,-1 0,-1 1,-2l0 0c20,-16 41,-28 61,-36z"/>
  </g>
  <g id="_2303294107104">
   <path class="fil7" d="M-4415 6664l-54 -7 0 -12c0,-1 -1,-2 -3,-2l-79 0c-2,-5 -7,-9 -13,-9 -5,0 -10,4 -12,9l-4 0c-1,0 -2,1 -2,2l0 156c0,2 1,3 2,3l108 0c2,0 3,-1 3,-3l0 -4 35 5c0,0 1,0 1,0 1,0 2,-1 2,-3l18 -132c1,-1 -1,-2 -2,-3zm-4 6l0 0 -1 12 -14 12 -35 -4 0 -27 50 7zm-145 -30l0 0c3,0 5,1 6,3l-11 0c1,-2 3,-3 5,-3zm89 158l0 0 -102 0 0 -150 21 0c0,0 0,1 0,1l0 26c1,2 -1,5 -4,5 -3,0 -5,-3 -5,-5l0 -2c0,0 0,-1 0,-1l0 -12c0,-1 1,-2 1,-2 1,0 1,1 1,2l0 12 6 0 0 -12c0,-4 -3,-7 -7,-8 -4,1 -7,4 -6,8l0 7c0,0 0,0 0,0l0 8c-1,6 4,10 10,11 6,-1 10,-5 10,-11l0 -26c0,0 0,-1 0,-1l75 0 0 150zm39 -2l0 0 -33 -5 0 -96 35 5c0,0 0,0 1,0 0,0 1,0 2,0l10 -10 -15 106z"/>
   <polygon class="fil7" points="-4495,6660 -4481,6660 -4481,6665 -4495,6665 "/>
   <polygon class="fil7" points="-4506,6671 -4481,6671 -4481,6677 -4506,6677 "/>
   <polygon class="fil7" points="-4571,6697 -4481,6697 -4481,6702 -4571,6702 "/>
   <polygon class="fil7" points="-4571,6708 -4481,6708 -4481,6714 -4571,6714 "/>
   <polygon class="fil7" points="-4571,6719 -4481,6719 -4481,6725 -4571,6725 "/>
   <polygon class="fil7" points="-4571,6731 -4531,6731 -4531,6736 -4571,6736 "/>
   <polygon class="fil7" points="-4520,6768 -4483,6768 -4483,6774 -4520,6774 "/>
   <path class="fil7" d="M-4512 6760c-2,-2 -2,-3 -3,-5 0,-1 0,-2 0,-3 1,-1 2,-2 2,-1 1,0 2,1 2,2 0,1 0,2 0,3 0,1 0,2 1,2 0,2 0,3 1,4 1,1 2,2 4,2 0,0 0,0 1,0 1,-1 3,-2 3,-4 0,-1 1,-2 1,-3 0,-1 1,-2 1,-3 0,0 0,1 0,1 0,1 0,2 1,3 0,2 2,4 5,5l0 0c1,-1 3,-1 4,-2l4 -3 -3 -5 -5 3 0 1c0,0 0,-1 0,-1 0,0 0,-1 0,-1 0,-1 0,-2 -1,-3 0,-3 -3,-5 -6,-4 -1,0 -2,1 -3,2 -1,1 -2,3 -2,4 0,-1 0,-2 0,-2 -1,-3 -3,-6 -6,-7 -3,-1 -7,1 -8,3 -2,3 -2,6 -1,9 0,2 1,4 3,6l5 -3z"/>
  </g>
  <path class="fil7" d="M-4449 8356c1,0 1,-1 1,-2 0,0 0,-1 0,-2l0 -1 31 0c1,0 2,-1 3,-1 1,-1 1,-2 1,-4 0,-1 0,-2 -1,-3 -1,-1 -2,-1 -3,-1l-34 0 0 -1c-1,0 -1,-1 -1,-1 -1,-1 -1,-1 -2,-2l-1 0 0 -1c0,-2 0,-5 -1,-7 0,-3 -1,-5 -3,-7l-1 -2 43 0c1,0 2,-1 3,-2 1,0 1,-2 1,-3 0,-1 0,-2 -1,-3 -1,-1 -2,-2 -3,-2l-54 0 0 0c-3,-1 -6,-2 -9,-3 -3,-1 -6,-1 -10,-1 -3,0 -6,0 -10,1 -3,1 -6,2 -8,3l-1 0 -64 0 0 -5c0,-1 -1,-2 -1,-3 -1,-1 -2,-2 -4,-2l0 0c-1,0 -2,1 -3,2 -1,1 -1,2 -1,3l0 151c0,1 0,2 1,3 1,1 2,1 3,1l0 0c2,0 3,0 4,-1 0,-1 1,-2 1,-3l0 -16 16 0 0 10c0,1 1,2 1,3 1,1 2,2 4,2l15 0 0 11c0,1 0,2 1,3 1,1 2,1 3,1l86 0c2,0 3,0 4,-1 0,-1 1,-2 1,-3l0 -11 15 0c1,0 2,-1 3,-2 1,-1 2,-2 2,-3l0 -10 5 0c1,0 2,0 3,-1 1,-1 1,-2 1,-4 0,-1 0,-2 -1,-3 -1,-1 -2,-1 -3,-1l-5 0 0 -2c0,-3 -1,-6 -3,-9 -1,-3 -3,-5 -6,-7l-2 -3 16 0c1,0 2,0 3,-1 1,-1 1,-2 1,-4 0,-1 0,-2 -1,-3 -1,-1 -2,-1 -3,-1 -9,0 -24,-1 -33,0l0 0c-3,-2 -5,-3 -8,-3 -3,-2 -6,-2 -8,-3l0 0 0 0c-3,-1 -4,-3 -4,-5 -1,-2 -1,-4 -1,-4l1 -1 -1 -1 1 0c0,-1 1,-1 1,-2 1,0 1,-1 1,-1l1 -1 50 0c1,0 2,-1 3,-1 1,-1 1,-2 1,-4 0,-1 0,-2 -1,-3 -1,-1 -2,-1 -3,-1l-49 0 8 -3c2,-1 4,-3 6,-5 1,-2 3,-5 3,-8zm-15 -17l0 2c0,1 1,3 1,3 1,1 2,2 3,2l1 0c0,0 0,0 1,1 0,0 0,1 0,1 1,1 1,2 1,3 0,1 0,2 0,3 -1,2 -1,3 -2,4 -1,2 -3,2 -4,2l0 0 0 0c-1,0 -2,0 -3,1 -1,0 -2,1 -2,2 -2,6 -5,12 -10,16 -3,4 -7,6 -12,6 -4,0 -8,-2 -12,-6 -4,-4 -7,-10 -9,-16 -1,-1 -1,-2 -2,-2 -1,-1 -2,-1 -3,-1 0,0 0,0 -1,0l0 0 0 0c-1,0 -2,0 -3,-2 -1,-1 -2,-2 -2,-4 0,-1 0,-2 0,-3 0,-1 0,-2 0,-3 0,0 1,-1 1,-1 0,-1 1,-1 1,-1l0 0c1,0 2,-1 3,-2 1,0 1,-2 1,-3l0 -2c0,-7 3,-13 7,-16 5,-5 12,-7 19,-7 7,0 14,2 19,7 5,3 7,9 7,16l0 0zm-8 66c-2,3 -4,6 -7,8 -3,2 -7,3 -11,3 -3,0 -7,-1 -10,-3 -3,-2 -6,-5 -7,-8l-1 -1 1 -1c2,-1 3,-2 4,-4 2,-1 2,-3 3,-5l0 -2 2 1c1,0 2,1 4,1 1,0 3,0 4,0 2,0 3,0 5,0 1,0 3,-1 4,-1l2 -1 0 2c0,2 1,4 2,5 1,2 3,3 4,4l1 1 0 1zm-58 -3l-43 0 0 -21 61 0 0 1c1,0 1,1 2,1 0,1 0,1 1,2l0 0 0 1 0 1c0,0 1,3 0,6 -1,1 -2,3 -4,3l0 0 -1 0c-1,1 -4,1 -8,3 -2,0 -5,1 -7,3l-1 0 0 0zm-1 -50c0,1 0,2 0,2 0,1 0,2 0,2 1,3 2,6 4,8 2,2 4,4 6,5l7 3 -59 0 0 -21 42 0 0 1zm10 -29c-1,2 -2,4 -3,7 0,2 -1,5 -1,7l0 1 0 0c-1,1 -1,1 -2,2 0,0 -1,1 -1,1l-1 1 -44 0 0 -21 54 0 -2 2zm-51 88l26 0 -2 3c-3,2 -5,4 -7,7 -1,3 -2,6 -2,9l0 2 -16 0 0 -21 1 0zm119 51l-75 0 0 -21 77 0 0 21 -2 0zm20 -16l-9 0 0 -10c0,-1 -1,-2 -1,-3 -1,-1 -2,-1 -4,-1l-86 0c-1,0 -2,0 -3,1 -1,1 -1,2 -1,3l0 10 -11 0 0 -15c0,-5 4,-9 8,-13 7,-5 15,-8 22,-11l2 0 0 1c2,5 6,9 10,12 5,4 11,5 16,5 6,0 11,-1 16,-5 5,-3 9,-7 10,-12l1 -1 1 0c7,3 16,6 22,11 5,4 8,8 8,13l0 15 -1 0z"/>
  <path class="fil6" d="M-4498 11257c-9,0 -17,3 -23,8 -7,5 -12,13 -13,21l0 2 -44 0c-1,0 -2,0 -3,1 -1,1 -1,2 -1,3l0 65c0,1 0,2 1,3 1,1 2,2 3,2l5 0 0 60c0,1 0,2 1,3 1,1 2,1 4,1l141 0c2,0 3,0 4,-1 1,-1 1,-2 1,-3l0 -60 5 0c1,0 2,-1 3,-2 1,-1 1,-2 1,-3l0 -65c0,-1 0,-2 -1,-3 -1,-1 -2,-1 -3,-1l-44 0 0 -2c-2,-8 -6,-16 -13,-21 -6,-5 -14,-8 -24,-8zm0 160l-66 0 0 -55 17 0 0 7c0,1 1,2 2,3 0,1 2,1 3,1l24 0c2,0 3,0 4,-1 1,-1 1,-2 1,-3l0 -7 31 0 0 7c0,1 0,2 1,3 1,1 2,1 4,1l24 0c1,0 2,0 3,-1 1,-1 2,-2 2,-3l0 -7 17 0 0 55 -67 0zm0 -65l-15 0 0 -7c0,-1 0,-2 -1,-3 -1,-1 -2,-1 -4,-1l-24 0c-1,0 -3,0 -3,1 -1,1 -2,2 -2,3l0 7 -26 0 0 -55 151 0 0 55 -26 0 0 -7c0,-1 -1,-2 -2,-3 -1,-1 -2,-1 -3,-1l-24 0c-2,0 -3,0 -4,1 -1,1 -1,2 -1,3l0 7 -16 0zm0 -64l-27 0 1 -2c2,-6 5,-11 10,-15 4,-3 10,-5 16,-5 7,0 13,2 17,5 5,4 8,9 10,15l1 2 -28 0zm27 62l13 0 0 14 -15 0 0 -14 2 0zm-64 0l13 0 0 14 -15 0 0 -14 2 0z"/>
  <g id="_2303294100768">
   <path class="fil7" d="M29 55c14,0 26,-12 26,-26 0,-14 -12,-25 -26,-25 -14,0 -25,11 -25,25 0,14 11,26 25,26zm11 -10l0 0c-6,5 -15,5 -22,0l0 -5c0,-3 2,-5 5,-5 0,0 0,0 0,0 1,0 3,-2 3,-3 0,-1 -1,-1 -1,-2 -1,-1 -2,-2 -2,-4 0,-3 3,-5 6,-5 3,0 5,1 6,4 0,2 -1,4 -2,5 -1,1 -1,3 0,4 1,0 2,1 2,1 3,0 5,2 5,5l0 5zm-11 -36l0 0c11,0 20,9 20,20 0,4 -1,7 -3,10 0,-4 -3,-7 -6,-9 0,-2 1,-4 0,-6 -1,-6 -7,-10 -13,-9 -6,1 -9,6 -9,11 0,2 0,3 0,4 -1,1 -2,1 -3,2 -2,2 -3,5 -3,7 -6,-9 -3,-21 7,-27 3,-2 6,-3 10,-3z"/>
   <path class="fil7" d="M148 4c-14,0 -26,11 -26,25 0,14 12,26 26,26 14,0 25,-12 25,-26 0,-14 -11,-25 -25,-25zm11 41l0 0c-7,5 -16,5 -22,0l0 -5c0,-3 2,-5 5,-5 0,0 0,0 0,0 1,0 2,-2 2,-3 0,-1 0,-1 0,-2 -1,-1 -2,-2 -2,-4 0,-3 3,-5 6,-5 3,0 5,1 5,4 1,2 0,4 -1,5 -1,1 -1,3 0,4 1,0 2,1 2,1 3,0 5,2 5,5l0 5zm6 -6l0 0c0,-4 -3,-7 -6,-9 0,-2 0,-4 0,-6 -1,-6 -7,-10 -13,-9 -6,1 -9,6 -9,11 0,2 0,3 0,4 -1,1 -2,1 -3,2 -2,2 -3,5 -3,7 -6,-9 -3,-21 7,-27 9,-6 21,-3 27,7 4,6 4,14 0,20z"/>
   <path class="fil7" d="M89 83c-2,0 -3,-1 -3,-3l-6 0c0,4 2,7 6,8l0 3 5 0 0 -3c4,-1 6,-4 6,-8 0,-6 -5,-7 -8,-8 -3,-1 -3,-2 -3,-3 0,-2 1,-3 3,-3 1,0 2,1 2,3l6 0c0,-4 -2,-7 -6,-8l0 -4 -5 0 0 4c-4,1 -6,4 -6,8 0,6 5,7 8,8 3,1 3,1 3,3 0,2 -1,3 -2,3z"/>
   <polygon class="fil7" points="86,32 91,32 91,40 86,40 "/>
   <polygon class="fil7" points="122,72 131,72 131,77 122,77 "/>
   <polygon class="fil7" points="46,72 55,72 55,77 46,77 "/>
   <polygon class="fil7" points="56,46 60,42 66,48 62,52 "/>
   <polygon class="fil7" points="111,48 117,42 121,46 115,52 "/>
   <path class="fil7" d="M173 171l0 -66c0,-1 -1,-2 -2,-2 0,0 0,0 0,0l-34 0 0 -14c0,-2 -2,-3 -3,-3 0,0 0,0 0,0l-20 0c7,-15 0,-31 -14,-38 -14,-6 -31,1 -37,15 -4,7 -4,15 0,23l-20 0c-1,0 -3,1 -3,3 0,0 0,0 0,0l0 14 -31 0c-1,0 -3,1 -3,2 0,0 0,0 0,0l0 66c0,1 2,2 3,2 0,0 0,0 0,0l162 0c1,0 2,-1 2,-2 0,0 0,0 0,0zm-133 -3l0 0 -28 0 0 -60 28 0 0 60zm49 -116l0 0c12,0 22,10 22,22 0,13 -10,23 -22,23 -13,0 -23,-10 -23,-23 0,-12 10,-22 23,-22zm5 116l0 0 -11 0 0 -20c0,-3 2,-6 6,-6 3,0 5,3 5,6l0 20zm37 0l0 0 -31 0 0 -20c0,-6 -5,-11 -11,-11 -7,0 -12,5 -12,11l0 20 -31 0 0 -77 20 0c9,13 27,15 39,6 3,-2 4,-3 6,-6l20 0 0 77zm37 0l0 0 -31 0 0 -60 31 0 0 60z"/>
   <path class="fil7" d="M69 108l-12 0c-1,0 -2,2 -2,3 0,0 0,0 0,0l0 11c0,2 1,3 2,3 0,0 0,0 0,0l12 0c1,0 3,-1 3,-3 0,0 0,0 0,0l0 -11c0,-1 -2,-3 -3,-3 0,0 0,0 0,0zm-3 12l0 0 -6 0 0 -6 6 0 0 6z"/>
   <path class="fil7" d="M21 162l11 0c1,0 3,-1 3,-3 0,0 0,0 0,0l0 -42c0,-2 -2,-3 -3,-3 0,0 0,0 0,0l-11 0c-2,0 -3,1 -3,3 0,0 0,0 0,0l0 42c0,2 1,3 3,3 0,0 0,0 0,0zm2 -42l0 0 6 0 0 36 -6 0 0 -36z"/>
   <path class="fil7" d="M148 162l11 0c2,0 3,-1 3,-3 0,0 0,0 0,0l0 -42c0,-2 -1,-3 -3,-3 0,0 0,0 0,0l-11 0c-2,0 -3,1 -3,3 0,0 0,0 0,0l0 42c0,2 1,3 3,3 0,0 0,0 0,0zm3 -42l0 0 5 0 0 36 -5 0 0 -36z"/>
   <path class="fil7" d="M94 108l-11 0c-2,0 -3,2 -3,3 0,0 0,0 0,0l0 11c0,2 1,3 3,3 0,0 0,0 0,0l11 0c2,0 3,-1 3,-3 0,0 0,0 0,0l0 -11c0,-1 -1,-3 -3,-3 0,0 0,0 0,0zm-3 12l0 0 -5 0 0 -6 5 0 0 6z"/>
   <path class="fil7" d="M120 137l-12 0c-1,0 -3,1 -3,2 0,0 0,0 0,0l0 12c0,1 2,3 3,3 0,0 0,0 0,0l12 0c1,0 2,-2 2,-3 0,0 0,0 0,0l0 -12c0,-1 -1,-2 -2,-2 0,0 0,0 0,0zm-3 11l0 0 -6 0 0 -6 6 0 0 6z"/>
   <path class="fil7" d="M69 137l-12 0c-1,0 -2,1 -2,2 0,0 0,0 0,0l0 12c0,1 1,3 2,3 0,0 0,0 0,0l12 0c1,0 3,-2 3,-3 0,0 0,0 0,0l0 -12c0,-1 -2,-2 -3,-2 0,0 0,0 0,0zm-3 11l0 0 -6 0 0 -6 6 0 0 6z"/>
   <path class="fil7" d="M105 111l0 11c0,2 2,3 3,3 0,0 0,0 0,0l12 0c1,0 2,-1 2,-3 0,0 0,0 0,0l0 -11c0,-1 -1,-3 -2,-3 0,0 0,0 0,0l-12 0c-1,0 -3,2 -3,3 0,0 0,0 0,0zm6 3l0 0 6 0 0 6 -6 0 0 -6z"/>
  </g>
 </g>
</svg>
