<?xml version="1.0" encoding="UTF-8"?>
<!DOCTYPE svg PUBLIC "-//W3C//DTD SVG 1.1//EN" "http://www.w3.org/Graphics/SVG/1.1/DTD/svg11.dtd">
<!-- Creator: CorelDRAW X8 -->
<svg xmlns="http://www.w3.org/2000/svg" xml:space="preserve" width="35px" height="35px" version="1.1" style="shape-rendering:geometricPrecision; text-rendering:geometricPrecision; image-rendering:optimizeQuality; fill-rule:evenodd; clip-rule:evenodd"
viewBox="0 0 35 35"
 xmlns:xlink="http://www.w3.org/1999/xlink">
 <defs>
  <style type="text/css">
   <![CDATA[
    .fil0 {fill:#727271}
   ]]>
  </style>
 </defs>
 <g id="Layer_x0020_1">
  <metadata id="CorelCorpID_0Corel-Layer"/>
  <path class="fil0" d="M8 5c-1,0 -3,2 -3,3l0 19c0,1 2,3 3,3l19 0c1,0 3,-2 3,-3l0 -19c0,-1 -2,-3 -3,-3l-19 0zm0 2l19 0c0,0 1,1 1,1l0 8 -5 0c0,-2 -3,-4 -6,-4 -2,0 -5,2 -5,4l-5 0 0 -8c0,0 1,-1 1,-1zm17 2c-1,0 -2,1 -2,2 0,1 1,1 2,1 0,0 1,0 1,-1 0,-1 -1,-2 -1,-2zm-8 5c3,0 4,1 4,3 0,3 -1,4 -4,4 -2,0 -3,-1 -3,-4 0,-2 1,-3 3,-3zm-10 5l5 0c0,2 3,4 5,4 3,0 6,-2 6,-4l5 0 0 8c0,0 -1,1 -1,1l-19 0c0,0 -1,-1 -1,-1l0 -8z" display="inline"/>
 </g>
</svg>
