<?xml version="1.0" encoding="UTF-8"?>
<!DOCTYPE svg PUBLIC "-//W3C//DTD SVG 1.1//EN" "http://www.w3.org/Graphics/SVG/1.1/DTD/svg11.dtd">
<!-- Creator: CorelDRAW X8 -->
<svg xmlns="http://www.w3.org/2000/svg" xml:space="preserve" width="21.1666mm" height="21.1666mm" version="1.1" style="shape-rendering:geometricPrecision; text-rendering:geometricPrecision; image-rendering:optimizeQuality; fill-rule:evenodd; clip-rule:evenodd"
viewBox="0 0 2117 2117"
 xmlns:xlink="http://www.w3.org/1999/xlink">
 <defs>
  <style type="text/css">
   <![CDATA[
    .fil0 {fill:#D2A351;fill-rule:nonzero}
   ]]>
  </style>
 </defs>
 <g id="Layer_x0020_1">
  <metadata id="CorelCorpID_0Corel-Layer"/>
  <path class="fil0" d="M212 477c0,-72 30,-139 78,-187l0 0c48,-48 115,-78 187,-78l1162 0c73,0 140,30 188,78 48,48 78,115 78,187l0 1162c0,73 -30,140 -78,188 -48,48 -115,78 -188,78l-1162 0c-72,0 -139,-30 -187,-78 -48,-48 -78,-115 -78,-188l0 -1162zm1427 1298c37,0 71,-15 96,-40 25,-25 40,-59 40,-96l0 -1162c0,-37 -15,-71 -40,-96 -25,-24 -59,-40 -96,-40l-1162 0c-37,0 -71,15 -96,40l0 0c-25,25 -40,59 -40,96l0 1162c0,37 16,71 40,96 25,25 59,40 96,40 941,0 720,0 1162,0z"/>
  <path class="fil0" d="M1272 1039c36,37 53,85 52,134 -2,48 -22,98 -61,136l-246 246c-20,20 -42,35 -66,45 -25,10 -51,16 -77,16 -23,0 -47,-5 -69,-14 -21,-8 -40,-21 -58,-38l-140 -140c-18,-17 -32,-39 -41,-62 -8,-23 -13,-48 -11,-74 1,-25 7,-50 17,-73 10,-22 25,-43 43,-60l132 -132 6 17c6,15 13,29 22,42 8,13 18,25 30,36 4,3 12,12 16,17 -37,37 -75,75 -112,112 -7,7 -12,14 -16,23 -3,7 -5,15 -5,24l0 0c0,8 1,15 3,21 2,6 5,11 10,15l139 140c10,10 24,14 39,12 16,-1 32,-8 44,-21l246 -246c13,-12 20,-28 21,-44 2,-15 -2,-29 -12,-39 -22,-22 -131,-125 -141,-141 -12,-13 -18,-29 -18,-45 0,-17 6,-33 18,-45l1 -1c7,-7 14,-11 22,-15 8,-3 17,-4 25,-4 9,0 18,1 26,5 8,3 15,7 21,14l140 139zm98 -486l141 139c35,37 52,85 51,134 -1,49 -21,98 -58,136 -4,8 -112,112 -132,131l-6 -16c-6,-14 -13,-28 -22,-42 -9,-13 -19,-25 -30,-36l-17 -17c25,-26 96,-91 111,-114 13,-12 20,-29 21,-44 2,-15 -2,-29 -12,-39l-140 -139c-9,-10 -24,-14 -39,-13 -15,2 -31,9 -44,21l-246 246c-6,7 -11,15 -15,23 -3,8 -5,16 -6,24 0,7 1,14 3,21 2,6 5,11 10,16 46,47 93,94 140,141 13,13 19,29 19,45 0,16 -6,33 -19,45 0,1 -1,1 -1,2 -6,6 -14,11 -21,14 -9,3 -18,5 -26,5 -9,0 -17,-1 -26,-5 -7,-3 -14,-8 -21,-14l-140 -141c-36,-36 -53,-84 -51,-132 1,-49 21,-97 59,-135l247 -248c39,-38 88,-58 137,-60 49,-2 97,16 133,52z"/>
 </g>
</svg>
