<?xml version="1.0" encoding="UTF-8"?>
<!DOCTYPE svg PUBLIC "-//W3C//DTD SVG 1.1//EN" "http://www.w3.org/Graphics/SVG/1.1/DTD/svg11.dtd">
<!-- Creator: CorelDRAW X8 -->
<svg xmlns="http://www.w3.org/2000/svg" xml:space="preserve" width="50px" height="57px" version="1.1" style="shape-rendering:geometricPrecision; text-rendering:geometricPrecision; image-rendering:optimizeQuality; fill-rule:evenodd; clip-rule:evenodd"
viewBox="0 0 50 57"
 xmlns:xlink="http://www.w3.org/1999/xlink">
 <defs>
  <style type="text/css">
   <![CDATA[
    .fil0 {fill:#054C23}
   ]]>
  </style>
 </defs>
 <g id="Layer_x0020_1">
  <metadata id="CorelCorpID_0Corel-Layer"/>
  <g id="_2534921674864">
   <g>
    <g>
     <path class="fil0" d="M12 34l-2 0 0 4 2 0c1,0 2,-1 2,-2 0,-1 -1,-2 -2,-2z"/>
     <path class="fil0" d="M22 34l-3 0 0 7 3 0c3,0 4,-7 0,-7z"/>
     <path class="fil0" d="M41 27l-39 0c-1,0 -1,1 -1,1l0 18c0,1 0,2 1,2l39 0c1,0 1,-1 1,-2l0 -18c0,0 0,-1 -1,-1zm-29 13l-2 0 0 1c0,1 0,1 -1,1 0,0 -1,0 -1,-1l0 -7c0,-1 1,-1 1,-1l3 0c2,0 4,1 4,3 0,2 -2,4 -4,4zm10 2l-3 0c-1,0 -1,0 -1,0l0 -8c0,-1 0,-1 1,-1l3 0c6,0 6,9 0,9zm12 -7l-4 0 0 2 4 0c0,0 1,0 1,1 0,0 -1,1 -1,1l-4 0 0 3c0,0 0,0 -1,0 0,0 -1,0 -1,0l0 -8c0,-1 1,-1 1,-1l5 0c1,0 1,0 1,1 0,0 0,1 -1,1z"/>
    </g>
    <path class="fil0" d="M48 14l-12 -12c-1,-1 -3,-1 -4,-1l-19 0c-3,0 -5,2 -5,5l0 17c0,1 0,2 1,2 1,0 2,-1 2,-2l0 -17c0,-1 1,-2 2,-2l15 0c2,0 4,2 4,4l0 6c0,2 2,4 4,4l6 0c2,0 4,2 4,4l0 29c0,1 -1,2 -2,2l-31 0c-1,0 -2,-1 -2,-2 0,-1 -1,-2 -2,-2 -1,0 -1,1 -1,2 0,3 2,5 5,5l31 0c3,0 5,-2 5,-5l0 -33c0,-1 0,-3 -1,-4z"/>
   </g>
  </g>
 </g>
</svg>
