<?xml version="1.0" encoding="UTF-8"?>
<!DOCTYPE svg PUBLIC "-//W3C//DTD SVG 1.1//EN" "http://www.w3.org/Graphics/SVG/1.1/DTD/svg11.dtd">
<!-- Creator: CorelDRAW X8 -->
<svg xmlns="http://www.w3.org/2000/svg" xml:space="preserve" width="354px" height="94px" version="1.1" style="shape-rendering:geometricPrecision; text-rendering:geometricPrecision; image-rendering:optimizeQuality; fill-rule:evenodd; clip-rule:evenodd"
viewBox="0 0 354 94"
 xmlns:xlink="http://www.w3.org/1999/xlink">
 <defs>
  <style type="text/css">
   <![CDATA[
    .fil1 {fill:#FEFEFE}
    .fil5 {fill:#D2A351}
    .fil3 {fill:#FEFEFE;fill-rule:nonzero}
    .fil2 {fill:#FEFEFE;fill-rule:nonzero}
    .fil0 {fill:#EBECEC;fill-rule:nonzero}
    .fil4 {fill:#D2A351;fill-rule:nonzero}
   ]]>
  </style>
 </defs>
 <g id="Layer_x0020_1">
  <metadata id="CorelCorpID_0Corel-Layer"/>
  <g id="_2303295973040">
   <path class="fil0" d="M-594 5361c-3,0 -5,-1 -7,-3 -1,-2 -2,-4 -2,-6 0,-3 1,-5 2,-6 2,-2 4,-3 7,-3 2,0 4,1 6,3 2,1 2,3 2,6 0,2 0,4 -2,6 -2,2 -4,3 -6,3zm0 -17c-3,0 -4,1 -6,2 -1,2 -2,4 -2,6 0,2 1,4 2,5 2,2 3,3 6,3 2,0 4,-1 5,-3 1,-1 2,-3 2,-5 0,-2 -1,-4 -2,-6 -1,-1 -3,-2 -5,-2zm3 12c-1,0 -2,1 -3,1 -2,0 -3,-1 -4,-2 -1,0 -1,-2 -1,-3 0,-2 0,-3 1,-4 1,-1 2,-1 4,-1 1,0 2,0 3,1l0 2 0 0c-1,-1 -2,-2 -3,-2 -2,0 -3,2 -3,4 0,2 1,3 3,3 1,0 2,0 3,-1l0 0 0 2z"/>
   <path id="1" class="fil0" d="M-434 5359l0 -16 5 0c1,0 1,0 2,0 0,0 1,1 1,1 1,0 1,0 2,0 0,1 0,1 0,1 1,1 1,1 1,2 0,1 -1,2 -2,3l0 0c1,0 1,1 2,1 1,1 1,2 1,3 0,1 -1,3 -2,3 -1,1 -2,2 -4,2l-6 0zm2 -14l0 5 3 0c1,0 2,-1 3,-1 0,0 1,-1 1,-2 0,-1 -1,-1 -1,-1 0,-1 -1,-1 -3,-1l-3 0zm0 6l0 6 3 0c2,0 3,0 4,-1 1,0 1,-1 1,-2 0,0 0,-1 0,-1 -1,-1 -1,-1 -2,-1 0,-1 -1,-1 -2,-1l-4 0z"/>
   <path id="2" class="fil0" d="M-411 5358c-2,1 -3,1 -4,1 -2,0 -3,-1 -4,-2 -1,-1 -2,-2 -2,-4 0,-2 1,-3 2,-4 1,-1 2,-2 4,-2 1,0 2,0 4,1l0 2 0 0c-2,-1 -3,-1 -4,-1 -1,0 -2,0 -3,1 0,0 -1,2 -1,3 0,1 1,3 1,3 1,1 2,1 3,1 1,0 2,0 4,-1l0 0 0 2z"/>
   <path id="3" class="fil0" d="M-407 5345l-2 0 0 -2 2 0 0 2zm0 14l-2 0 0 -12 2 0 0 12z"/>
   <polygon id="4" class="fil0" points="-387,5359 -389,5359 -389,5349 -395,5349 -395,5359 -397,5359 -397,5347 -387,5347 "/>
   <path id="5" class="fil0" d="M-382 5358l0 5 -2 0 0 -16 2 0 0 2c1,-2 3,-2 4,-2 1,0 2,0 3,2 1,1 1,2 1,4 0,2 0,3 -1,4 -1,1 -2,2 -4,2 -1,0 -2,0 -3,-1zm0 -8l0 7c1,0 2,0 3,0 1,0 2,0 2,-1 1,-1 1,-2 1,-3 0,-3 -1,-4 -3,-4 -1,0 -2,0 -3,1z"/>
   <path id="6" class="fil0" d="M-364 5356l0 -3c-3,0 -4,0 -5,1 -1,0 -1,1 -1,1 0,2 1,2 2,2 1,0 3,0 4,-1zm0 3l0 -2c-1,1 -2,2 -3,2 0,0 -1,0 -1,0 -1,0 -2,0 -3,-1 -1,-1 -1,-1 -1,-3 0,-1 0,-2 1,-3 2,0 4,-1 7,-1l0 0c0,-1 0,-1 -1,-2 0,0 -1,0 -2,0 -1,0 -3,0 -4,0l0 0 0 -1c1,-1 2,-1 4,-1 1,0 3,0 3,1 1,1 2,2 2,3l0 8 -2 0z"/>
   <path id="7" class="fil0" d="M-359 5359l0 -12 4 0c2,0 3,0 4,1 0,0 1,1 1,2 0,1 -1,2 -2,2l0 0c2,1 2,2 2,3 0,1 0,2 -1,3 -1,0 -2,1 -3,1l-5 0zm2 -10l0 3 2 0c1,0 2,0 2,0 1,-1 1,-1 1,-2 0,0 0,-1 -1,-1 0,0 -1,0 -2,0l-2 0zm0 4l0 4 2 0c1,0 2,0 3,0 0,-1 0,-1 0,-2 0,0 0,0 0,-1 0,0 0,0 -1,0 0,-1 -1,-1 -2,-1l-2 0z"/>
   <path id="8" class="fil0" d="M-340 5356l0 -3c-3,0 -4,0 -5,1 -1,0 -1,1 -1,1 0,2 1,2 2,2 2,0 3,0 4,-1zm0 3l0 -2c-1,1 -2,2 -2,2 -1,0 -2,0 -2,0 -1,0 -2,0 -3,-1 -1,-1 -1,-1 -1,-3 0,-1 1,-2 2,-3 1,0 3,-1 6,-1l0 0c0,-1 0,-1 -1,-2 0,0 -1,0 -2,0 -1,0 -3,0 -4,0l0 0 0 -1c1,-1 3,-1 4,-1 1,0 3,0 4,1 0,1 1,2 1,3l0 8 -2 0z"/>
   <path id="9" class="fil0" d="M-329 5358l0 -2 0 0c1,1 3,1 4,1 1,0 2,0 2,0 1,0 1,-1 1,-2 0,0 0,-1 0,-1 -1,0 -2,0 -3,0l-2 0 0 -2 2 0c1,0 2,0 2,0 1,-1 1,-1 1,-2 0,-1 -1,-1 -3,-1 -1,0 -2,0 -3,1l0 0 0 -2c1,-1 2,-1 3,-1 2,0 3,0 4,1 0,0 1,1 1,2 0,1 -1,2 -2,3l0 0c1,0 2,1 2,3 0,1 0,1 -1,2 -1,1 -2,1 -4,1 -1,0 -3,0 -4,-1z"/>
   <path id="10" class="fil0" d="M-310 5356l0 -3c-3,0 -4,0 -5,1 -1,0 -1,1 -1,1 0,2 1,2 2,2 1,0 3,0 4,-1zm0 3l0 -2c-1,1 -2,2 -3,2 0,0 -1,0 -2,0 -1,0 -1,0 -2,-1 -1,-1 -1,-1 -1,-3 0,-1 0,-2 1,-3 1,0 4,-1 7,-1l0 0c0,-1 -1,-1 -1,-2 0,0 -1,0 -2,0 -2,0 -3,0 -4,0l0 0 0 -1c1,-1 2,-1 4,-1 1,0 3,0 3,1 1,1 2,2 2,3l0 8 -2 0z"/>
   <polygon id="11" class="fil0" points="-296,5359 -298,5359 -301,5354 -304,5359 -306,5359 -302,5353 -306,5347 -304,5347 -301,5352 -298,5347 -296,5347 -300,5353 "/>
   <polygon id="12" class="fil0" points="-284,5359 -286,5359 -286,5350 -292,5359 -294,5359 -294,5347 -292,5347 -292,5356 -286,5347 -284,5347 "/>
   <polygon id="13" class="fil0" points="-266,5359 -281,5359 -281,5347 -279,5347 -279,5357 -274,5357 -274,5347 -272,5347 -272,5357 -268,5357 -268,5347 -266,5347 -266,5357 -265,5357 -265,5361 -266,5361 "/>
   <path id="14" class="fil0" d="M-262 5352l7 0c0,-2 -1,-4 -3,-4 -1,0 -2,1 -2,1 -1,1 -1,2 -2,3zm5 7c-2,0 -4,-1 -5,-2 -1,-1 -1,-2 -1,-4 0,-2 0,-3 1,-4 1,-2 3,-2 4,-2 2,0 3,0 4,1 1,1 1,2 1,4l0 1 -9 0c0,2 1,3 2,3 0,1 1,1 3,1 1,0 2,0 4,-1l0 0 0 2c-2,1 -3,1 -4,1z"/>
   <polygon id="15" class="fil0" points="-241,5359 -243,5359 -243,5353 -249,5353 -249,5359 -250,5359 -250,5347 -249,5347 -249,5352 -243,5352 -243,5347 -241,5347 "/>
   <path id="16" class="fil0" d="M-233 5359c-2,0 -3,0 -4,-2 -1,-1 -1,-2 -1,-4 0,-2 0,-3 1,-4 1,-2 2,-2 4,-2 2,0 3,0 4,2 1,1 1,2 1,4 0,2 0,3 -1,4 -1,2 -2,2 -4,2zm0 -11c-1,0 -2,1 -3,2 0,0 -1,2 -1,3 0,1 1,3 1,3 1,1 2,2 3,2 1,0 2,-1 2,-2 1,0 1,-2 1,-3 0,-3 -1,-5 -3,-5z"/>
   <path id="17" class="fil0" d="M-563 5358c-2,1 -4,1 -5,1 -3,0 -5,-1 -6,-2 -1,-1 -2,-3 -2,-6 0,-2 1,-4 2,-6 1,-1 3,-2 6,-2 1,0 3,1 5,2l0 2 0 0c-2,-2 -4,-2 -6,-2 -1,0 -3,0 -4,1 -1,2 -1,3 -1,5 0,2 0,4 1,5 2,1 3,1 5,1 1,0 2,0 3,0l0 -4 -4 0 0 -2 6 0 0 7z"/>
   <path id="18" class="fil0" d="M-552 5353l-3 -8 -3 8 6 0zm2 6l-1 -5 -7 0 -2 5 -2 0 6 -16 2 0 6 16 -2 0z"/>
   <path id="19" class="fil0" d="M-540 5359c-2,0 -4,-1 -5,-2 -1,-1 -2,-3 -2,-6 0,-2 1,-4 2,-6 1,-1 3,-2 5,-2 2,0 4,1 5,2 2,2 2,4 2,6 0,3 0,5 -2,6 -1,1 -3,2 -5,2zm0 -14c-1,0 -3,0 -4,1 0,2 -1,3 -1,5 0,2 1,4 1,5 1,1 3,1 4,1 2,0 3,0 4,-1 1,-1 1,-3 1,-5 0,-2 0,-4 -1,-5 -1,-1 -2,-1 -4,-1z"/>
   <path id="20" class="fil0" d="M-515 5358c-1,1 -2,1 -3,1 -2,0 -3,-1 -4,-2 -1,-1 -2,-2 -2,-4 0,-2 1,-3 2,-4 1,-1 2,-2 4,-2 1,0 2,0 3,1l0 2 0 0c-1,-1 -2,-1 -3,-1 -1,0 -2,0 -3,1 -1,0 -1,2 -1,3 0,1 0,3 1,3 1,1 2,1 3,1 1,0 2,0 3,-1l0 0 0 2z"/>
   <path id="21" class="fil0" d="M-508 5359c-2,0 -3,0 -4,-2 -1,-1 -1,-2 -1,-4 0,-2 0,-3 1,-4 1,-2 2,-2 4,-2 2,0 3,0 4,2 1,1 1,2 1,4 0,2 0,3 -1,4 -1,2 -2,2 -4,2zm0 -11c-1,0 -2,1 -2,2 -1,0 -1,2 -1,3 0,1 0,3 1,3 0,1 1,2 2,2 1,0 2,-1 3,-2 0,0 1,-2 1,-3 0,-3 -2,-5 -4,-5z"/>
   <path id="22" class="fil0" d="M-485 5359l0 -7c0,-1 0,-2 0,-2 -1,-1 -1,-1 -1,-1 -1,0 -1,0 -2,0 -1,0 -2,0 -3,1 0,1 0,1 0,2l0 7 -2 0 0 -7c0,-1 0,-2 0,-2 0,-1 0,-1 -1,-1 0,0 0,0 -1,0 -1,0 -2,0 -3,1l0 9 -2 0 0 -12 2 0 0 2c1,-1 2,-2 4,-2 1,0 2,1 3,2 1,-1 3,-2 4,-2 2,0 4,1 4,4l0 8 -2 0z"/>
   <polygon id="23" class="fil0" points="-477,5359 -479,5359 -479,5356 -477,5356 "/>
   <path id="24" class="fil0" d="M-463 5359l-2 0 0 -2c-2,1 -3,2 -4,2 -1,0 -2,0 -3,-1 -1,-1 -1,-2 -1,-3l0 -8 2 0 0 7c0,1 0,2 1,3 0,0 1,0 1,0 2,0 3,0 4,-1l0 -9 2 0 0 12z"/>
   <path id="25" class="fil0" d="M-453 5356l0 -3c-2,0 -4,0 -5,1 -1,0 -1,1 -1,1 0,2 1,2 3,2 1,0 2,0 3,-1zm0 3l0 -2c-1,1 -2,2 -2,2 -1,0 -2,0 -2,0 -1,0 -2,0 -3,-1 0,-1 -1,-1 -1,-3 0,-1 1,-2 2,-3 1,0 3,-1 6,-1l0 0c0,-1 0,-1 -1,-2 0,0 -1,0 -2,0 -1,0 -2,0 -4,0l0 0 0 -1c2,-1 3,-1 4,-1 2,0 3,0 4,1 0,1 1,2 1,3l0 8 -2 0z"/>
   <polygon id="26" class="fil0" points="-527,5359 -529,5359 -529,5356 -527,5356 "/>
   <g>
    <g>
     <polygon class="fil1" points="969,5356 966,5361 975,5361 971,5353 "/>
     <polygon class="fil1" points="961,5338 957,5345 957,5345 959,5342 962,5353 962,5353 966,5346 "/>
     <path class="fil1" d="M942 5338l-4 7 2 -3 3 11 0 0 4 -7 -5 -8zm-4 7l5 8 0 0 -5 -8z"/>
     <polygon class="fil1" points="923,5337 918,5337 915,5337 910,5329 910,5329 915,5337 918,5337 911,5329 918,5329 "/>
     <path class="fil1" d="M910 5329l15 24 -5 8 -14 -24 4 -8zm10 22l0 1 2 0 -2 1 1 2 -1 -1 -2 1 1 -2 -1 -1 1 0 1 -1zm-3 -4l1 1 1 0 -1 1 0 2 -1 -1 -1 1 0 -2 -1 -1 2 0 0 -1zm-2 -4l0 1 2 0 -1 1 0 1 -1 0 -1 0 0 -1 -1 -1 1 0 1 -1zm-2 -4l0 1 2 0 -2 1 1 1 -1 0 -2 0 1 -1 -1 -1 1 0 1 -1zm-3 -4l1 1 1 0 -1 1 0 1 -1 -1 -1 1 0 -1 -1 -1 2 0 0 -1z"/>
     <polygon class="fil1" points="909,5361 901,5361 905,5354 "/>
     <polygon class="fil1" points="929,5329 943,5353 938,5361 920,5329 "/>
     <polygon class="fil1" points="947,5329 962,5353 957,5361 938,5329 "/>
     <path class="fil1" d="M919 5360l1 1 0 0 -1 -1zm1 1l-9 0 -5 -8 6 0 8 8 0 0z"/>
     <polygon class="fil1" points="966,5329 971,5337 966,5345 957,5329 "/>
    </g>
    <path class="fil2" d="M901 5376l0 -7 1 0 2 5c0,0 0,1 0,1 0,0 0,-1 0,-1l2 -5 1 0 0 7 -1 0 0 -6 -2 6 -1 0 -2 -6 0 6 0 0z"/>
    <path id="1" class="fil2" d="M912 5375c-1,0 -1,1 -1,1 0,0 -1,0 -1,0 -1,0 -1,0 -1,0 -1,-1 -1,-1 -1,-2 0,0 0,0 0,0 1,0 1,-1 1,-1 0,0 0,0 0,0 1,0 1,0 1,0 1,0 1,0 2,0 0,0 0,-1 0,-1 0,0 0,0 0,0 -1,-1 -1,-1 -1,-1 -1,0 -1,0 -1,1 -1,0 -1,0 -1,0l-1 0c0,0 1,0 1,-1 0,0 0,0 1,0 0,0 0,0 1,0 0,0 0,0 1,0 0,0 0,0 0,0 0,0 1,1 1,1 0,0 0,0 0,1l0 1c0,0 0,1 0,1 0,0 0,1 0,1l-1 0c0,0 0,-1 0,-1zm0 -2c-1,0 -1,1 -2,1 0,0 0,0 0,0 -1,0 -1,0 -1,0 0,0 0,0 0,0 0,1 0,1 0,1 1,0 1,0 1,0 0,0 1,0 1,0 0,0 0,0 1,-1 0,0 0,0 0,0l0 -1z"/>
    <polygon id="2" class="fil2" points="914,5376 914,5369 915,5369 915,5373 917,5371 918,5371 916,5373 918,5376 917,5376 915,5373 915,5374 915,5376 "/>
    <path id="3" class="fil2" d="M922 5374l1 0c0,1 0,1 -1,1 0,1 -1,1 -1,1 -1,0 -1,0 -2,-1 0,0 -1,-1 -1,-2 0,0 1,-1 1,-2 1,0 1,0 2,0 0,0 1,0 1,0 1,1 1,1 1,2 0,0 0,0 0,1l-4 0c0,0 1,0 1,1 0,0 0,0 1,0 0,0 0,0 1,0 0,0 0,0 0,-1zm-3 -1l3 0c0,-1 0,-1 0,-1 0,0 -1,-1 -1,-1 -1,0 -1,1 -1,1 0,0 -1,0 -1,1z"/>
    <path id="4" class="fil2" d="M928 5376l-1 0 0 -7 1 0 0 2c0,0 0,0 1,0 0,0 1,0 1,0 0,0 0,0 1,0 0,1 0,1 0,1 0,1 0,1 0,1 0,1 0,2 -1,2 0,1 0,1 -1,1 -1,0 -1,0 -1,-1l0 1zm0 -3c0,1 0,1 0,2 0,0 0,0 1,0 0,0 1,0 1,0 0,-1 0,-1 0,-2 0,0 0,-1 0,-1 0,0 -1,-1 -1,-1 0,0 -1,1 -1,1 0,0 0,1 0,1z"/>
    <path id="5" class="fil2" d="M932 5378l0 -1c0,0 0,0 0,0 1,0 1,0 1,0 0,0 0,0 0,0 0,0 0,-1 0,-1 1,0 1,0 1,0l-2 -5 1 0 1 3c0,0 0,0 0,1 0,-1 0,-1 0,-1l1 -3 1 0 -2 5c0,0 0,1 0,1 0,0 0,1 -1,1 0,0 0,0 0,0 -1,0 -1,0 -1,0z"/>
    <path id="6" class="fil2" d="M939 5374l1 0c0,0 0,0 1,0 0,1 0,1 0,1 1,0 1,0 1,0 1,0 1,0 1,0 1,0 1,0 1,0 0,-1 0,-1 0,-1 0,0 0,0 0,-1 0,0 0,0 -1,0 0,0 0,0 -1,0 -1,-1 -1,-1 -1,-1 -1,0 -1,0 -1,0 0,-1 0,-1 0,-1 0,-1 0,-1 0,-1 0,-1 1,-1 1,-1 0,0 1,0 1,0 1,0 1,0 2,0 0,0 0,0 0,1 1,0 1,0 1,1l-1 0c0,-1 0,-1 -1,-1 0,0 0,0 -1,0 0,0 -1,0 -1,0 0,0 0,0 0,1 0,0 0,0 0,0 0,0 1,1 1,1 1,0 2,0 2,0 0,0 0,1 1,1 0,0 0,0 0,1 0,0 0,1 0,1 -1,0 -1,0 -1,1 -1,0 -1,0 -2,0 0,0 -1,0 -1,0 -1,-1 -1,-1 -1,-1 0,-1 -1,-1 -1,-1z"/>
    <path id="7" class="fil2" d="M948 5375l0 1c0,0 0,0 -1,0 0,0 0,0 0,0 0,0 -1,0 -1,-1 0,0 0,0 0,-1l0 -3 0 0 0 0 0 0 0 -1 1 -1 0 2 1 0 0 0 -1 0 0 3c0,1 0,1 0,1 0,0 0,0 0,0 0,0 0,0 1,0 0,0 0,0 0,0z"/>
    <path id="8" class="fil2" d="M952 5375c0,0 -1,1 -1,1 0,0 0,0 -1,0 0,0 -1,0 -1,0 0,-1 -1,-1 -1,-2 0,0 1,0 1,0 0,0 0,-1 0,-1 0,0 0,0 1,0 0,0 0,0 0,0 1,0 2,0 2,0 0,0 0,-1 0,-1 0,0 0,0 0,0 0,-1 -1,-1 -1,-1 -1,0 -1,0 -1,1 0,0 0,0 -1,0l0 0c0,0 0,0 0,-1 0,0 0,0 1,0 0,0 0,0 1,0 0,0 1,0 1,0 0,0 0,0 1,0 0,0 0,1 0,1 0,0 0,0 0,1l0 1c0,0 0,1 0,1 0,0 0,1 0,1l-1 0c0,0 0,-1 0,-1zm0 -2c0,0 -1,1 -1,1 -1,0 -1,0 -1,0 0,0 0,0 0,0 -1,0 -1,0 -1,0 0,1 0,1 1,1 0,0 0,0 0,0 1,0 1,0 1,0 1,0 1,0 1,-1 0,0 0,0 0,0l0 -1z"/>
    <path id="9" class="fil2" d="M954 5376l0 -5 1 0 0 1c0,-1 0,-1 0,-1 1,0 1,0 1,0 0,0 1,0 1,0l0 1c-1,0 -1,0 -1,0 0,0 0,0 -1,0 0,0 0,0 0,0 0,1 0,1 0,1l0 3 -1 0z"/>
    <path id="10" class="fil2" d="M961 5376l-1 -7 0 0 1 4c1,1 1,1 1,2 0,-1 0,-1 0,-1l1 -5 2 0 1 3c0,1 0,2 0,3 0,-1 0,-1 0,-2l1 -4 1 0 -1 7 -1 0 -2 -5c0,-1 0,-1 0,-1 0,0 0,0 0,1l-2 5 -1 0z"/>
    <path id="11" class="fil2" d="M972 5375c0,0 -1,1 -1,1 0,0 0,0 -1,0 0,0 -1,0 -1,0 0,-1 -1,-1 -1,-2 0,0 1,0 1,0 0,0 0,-1 0,-1 0,0 0,0 1,0 0,0 0,0 0,0 1,0 2,0 2,0 0,0 0,-1 0,-1 0,0 0,0 0,0 0,-1 -1,-1 -1,-1 -1,0 -1,0 -1,1 0,0 0,0 -1,0l0 0c0,0 0,0 0,-1 0,0 0,0 1,0 0,0 0,0 1,0 0,0 1,0 1,0 0,0 0,0 1,0 0,0 0,1 0,1 0,0 0,0 0,1l0 1c0,0 0,1 0,1 0,0 0,1 0,1l-1 0c0,0 0,-1 0,-1zm0 -2c0,0 -1,1 -1,1 -1,0 -1,0 -1,0 0,0 0,0 0,0 -1,0 -1,0 -1,0 0,1 0,1 1,1 0,0 0,0 0,0 1,0 1,0 1,0 1,0 1,0 1,-1 0,0 0,0 0,0l0 -1z"/>
    <path id="12" class="fil2" d="M974 5378l0 -1c0,0 0,0 1,0 0,0 0,0 0,0 0,0 0,0 0,0 0,0 0,-1 0,-1 1,0 1,0 1,0l-2 -5 1 0 1 3c0,0 0,0 0,1 0,-1 0,-1 0,-1l1 -3 1 0 -2 5c0,0 0,1 0,1 0,0 0,1 -1,1 0,0 0,0 0,0 -1,0 -1,0 -1,0z"/>
   </g>
   <g>
    <polygon class="fil0" points="168,5358 166,5358 166,5345 158,5345 158,5358 156,5358 156,5343 168,5343 "/>
    <path id="1" class="fil0" d="M173 5358l0 5 -2 0 0 -16 2 0 0 1c2,-1 3,-1 4,-1 1,0 2,0 3,1 1,1 1,3 1,5 0,1 0,3 -1,4 -1,1 -2,2 -4,2 -1,0 -2,-1 -3,-1zm0 -8l0 6c1,1 2,1 3,1 1,0 2,0 3,-1 0,-1 1,-2 1,-3 0,-3 -1,-5 -3,-5 -2,0 -3,1 -4,2z"/>
    <path id="2" class="fil0" d="M189 5359c-2,0 -3,-1 -4,-2 -1,-1 -2,-2 -2,-4 0,-2 1,-4 2,-5 1,-1 2,-1 4,-1 1,0 2,0 3,1 1,1 2,3 2,5 0,2 -1,3 -2,4 -1,1 -2,2 -3,2zm0 -11c-2,0 -2,1 -3,1 -1,1 -1,2 -1,4 0,1 0,2 1,3 1,1 1,1 3,1 1,0 1,0 2,-1 1,-1 1,-2 1,-3 0,-3 -1,-5 -3,-5z"/>
    <polygon id="3" class="fil0" points="213,5358 211,5358 211,5353 205,5353 205,5358 204,5358 204,5347 205,5347 205,5352 211,5352 211,5347 213,5347 "/>
    <path id="4" class="fil0" d="M223 5356l0 -4c-2,0 -4,1 -4,1 -1,1 -2,1 -2,2 0,1 1,2 3,2 1,0 2,0 3,-1zm0 2l0 -1c-1,1 -1,1 -2,1 -1,1 -1,1 -2,1 -1,0 -2,-1 -2,-1 -1,-1 -1,-2 -1,-3 0,-1 0,-2 1,-3 1,-1 3,-1 6,-1l0 0c0,-1 0,-2 0,-2 -1,-1 -2,-1 -3,-1 -1,0 -2,0 -3,1l0 0 0 -2c1,0 2,0 3,0 2,0 3,0 4,1 1,0 1,1 1,3l0 7 -2 0z"/>
    <path id="5" class="fil0" d="M237 5358c-1,0 -3,1 -4,1 -1,0 -3,-1 -4,-2 -1,-1 -1,-2 -1,-4 0,-2 0,-4 1,-5 1,-1 3,-1 4,-1 1,0 3,0 4,1l0 2 0 0c-1,-1 -3,-2 -4,-2 -1,0 -2,1 -2,1 -1,1 -1,2 -1,4 0,1 0,2 1,3 0,1 1,1 2,1 1,0 3,0 4,-1l0 0 0 2z"/>
    <path class="fil0" d="M600 5358l0 -15 10 0 0 2 -8 0 0 4 3 0c2,0 4,1 5,1 1,1 1,2 1,4 0,1 0,2 -1,3 -2,1 -3,1 -5,1l-5 0zm2 -7l0 6 2 0c2,0 4,0 4,-1 1,-1 1,-1 1,-2 0,-1 0,-2 0,-2 -1,-1 -1,-1 -2,-1 0,0 -1,0 -2,0l-3 0z"/>
    <path id="1" class="fil0" d="M623 5358l-2 0 0 -10 -4 0 -1 4c0,1 0,2 0,3 0,1 0,2 -1,2 0,1 -1,1 -1,1 0,0 -1,0 -1,0l-1 0 0 -1 0 0 1 0c0,0 0,0 1,0 0,-1 0,-1 0,-2 0,-1 1,-2 1,-3 0,-1 0,-2 0,-5l8 0 0 11z"/>
    <path id="2" class="fil0" d="M631 5359c-2,0 -3,-1 -4,-2 -1,-1 -2,-2 -2,-4 0,-2 1,-4 2,-5 1,-1 2,-1 4,-1 1,0 2,0 3,1 1,1 2,3 2,5 0,2 -1,3 -2,4 -1,1 -2,2 -3,2zm0 -11c-2,0 -2,1 -3,1 -1,1 -1,2 -1,4 0,1 0,2 1,3 1,1 1,1 3,1 1,0 2,0 2,-1 1,-1 1,-2 1,-3 0,-3 -1,-5 -3,-5z"/>
    <polygon id="3" class="fil0" points="646,5348 640,5348 640,5358 638,5358 638,5347 646,5347 "/>
    <polygon class="fil0" points="455,5358 453,5358 453,5345 445,5345 445,5358 443,5358 443,5343 455,5343 "/>
    <path id="1" class="fil0" d="M460 5358l0 5 -2 0 0 -16 2 0 0 1c1,-1 3,-1 4,-1 1,0 2,0 3,1 1,1 1,3 1,5 0,1 0,3 -1,4 -1,1 -2,2 -4,2 -1,0 -2,-1 -3,-1zm0 -8l0 6c1,1 2,1 3,1 1,0 2,0 3,-1 0,-1 1,-2 1,-3 0,-3 -1,-5 -4,-5 -1,0 -2,1 -3,2z"/>
    <path id="2" class="fil0" d="M478 5356l0 -4c-3,0 -4,1 -5,1 -1,1 -1,1 -1,2 0,1 1,2 3,2 1,0 2,0 3,-1zm0 2l0 -1c-1,1 -2,1 -2,1 -1,1 -2,1 -2,1 -1,0 -2,-1 -3,-1 0,-1 -1,-2 -1,-3 0,-1 1,-2 2,-3 1,-1 3,-1 6,-1l0 0c0,-1 0,-2 -1,-2 0,-1 -1,-1 -2,-1 -1,0 -2,0 -4,1l0 0 0 -2c1,0 3,0 4,0 2,0 3,0 4,1 0,0 1,1 1,3l0 7 -2 0z"/>
    <path id="3" class="fil0" d="M493 5358l-2 0 -5 -5 -1 0 0 5 -2 0 0 -11 2 0 0 5c1,0 1,0 2,0 0,-1 0,-1 1,-2 0,0 0,-1 0,-1 0,0 1,-1 1,-1 0,0 1,-1 1,-1 1,0 1,0 2,0l0 0 0 1 0 0c-1,0 -1,1 -2,1 0,0 0,0 0,1 -1,1 -1,2 -2,2l5 6z"/>
    <polygon id="4" class="fil0" points="503,5348 499,5348 499,5358 497,5358 497,5348 493,5348 493,5347 503,5347 "/>
    <polygon id="5" class="fil0" points="515,5358 513,5358 513,5350 507,5358 505,5358 505,5347 507,5347 507,5356 513,5347 515,5347 "/>
    <path id="6" class="fil0" d="M528 5358l-2 0 -5 -5 -1 0 0 5 -2 0 0 -11 2 0 0 5c1,0 1,0 2,0 0,-1 0,-1 1,-2 0,0 0,-1 0,-1 1,0 1,-1 1,-1 1,0 1,-1 1,-1 1,0 1,0 2,0l1 0 0 1 -1 0c-1,0 -1,1 -1,1 -1,0 -1,0 -1,1 -1,1 -1,2 -2,2l5 6z"/>
    <polygon id="7" class="fil0" points="540,5358 538,5358 538,5350 532,5358 530,5358 530,5347 532,5347 532,5356 538,5347 540,5347 "/>
    <path class="fil0" d="M309 5358l-2 0 -7 -7 -1 0 0 7 -2 0 0 -15 2 0 0 7c0,0 1,0 1,0 1,0 1,-1 1,-1 1,0 1,0 1,-1 0,0 1,-1 1,-2 1,-1 1,-2 2,-2 0,-1 1,-1 2,-1l1 0 0 2 -1 0c-1,0 -1,0 -1,0 -1,1 -1,1 -2,2 0,1 0,2 0,2 -1,1 -1,1 -2,1l7 8z"/>
    <path id="1" class="fil0" d="M315 5359c-2,0 -3,-1 -4,-2 -1,-1 -2,-2 -2,-4 0,-2 1,-4 2,-5 1,-1 2,-1 4,-1 1,0 2,0 3,1 1,1 2,3 2,5 0,2 -1,3 -2,4 -1,1 -2,2 -3,2zm0 -11c-2,0 -2,1 -3,1 -1,1 -1,2 -1,4 0,1 0,2 1,3 1,1 1,1 3,1 1,0 1,0 2,-1 1,-1 1,-2 1,-3 0,-3 -1,-5 -3,-5z"/>
    <polygon id="2" class="fil0" points="333,5358 331,5358 331,5349 328,5355 327,5355 324,5349 324,5358 322,5358 322,5347 325,5347 328,5353 331,5347 333,5347 "/>
    <path id="3" class="fil0" d="M344 5356l0 -4c-3,0 -5,1 -5,1 -1,1 -1,1 -1,2 0,1 0,2 2,2 1,0 2,0 4,-1zm0 2l0 -1c-1,1 -2,1 -3,1 0,1 -1,1 -2,1 -1,0 -2,-1 -2,-1 -1,-1 -1,-2 -1,-3 0,-1 0,-2 1,-3 1,-1 3,-1 7,-1l0 0c0,-1 -1,-2 -1,-2 -1,-1 -1,-1 -3,-1 -1,0 -2,0 -3,1l0 0 0 -2c1,0 2,0 3,0 2,0 3,0 4,1 1,0 1,1 1,3l0 7 -1 0z"/>
    <polygon id="4" class="fil0" points="358,5358 356,5358 356,5353 350,5353 350,5358 349,5358 349,5347 350,5347 350,5352 356,5352 356,5347 358,5347 "/>
    <path id="5" class="fil0" d="M372 5361l-2 0 0 -3 -8 0 0 3 -2 0 0 -4 1 0c1,-1 1,-3 2,-5 0,-1 1,-3 1,-5l7 0 0 10 1 0 0 4zm-3 -4l0 -9 -4 0c0,4 -1,7 -2,9l6 0z"/>
    <path id="6" class="fil0" d="M381 5356l0 -4c-2,0 -4,1 -5,1 0,1 -1,1 -1,2 0,1 1,2 3,2 1,0 2,0 3,-1zm0 2l0 -1c-1,1 -1,1 -2,1 -1,1 -1,1 -2,1 -1,0 -2,-1 -2,-1 -1,-1 -1,-2 -1,-3 0,-1 0,-2 1,-3 1,-1 3,-1 6,-1l0 0c0,-1 0,-2 0,-2 -1,-1 -2,-1 -3,-1 -1,0 -2,0 -3,1l0 0 0 -2c1,0 2,0 3,0 2,0 3,0 4,1 1,0 1,1 1,3l0 7 -2 0z"/>
    <path class="fil0" d="M718 5358l-2 0 -6 -7 -2 0 0 7 -2 0 0 -15 2 0 0 7c1,0 1,0 2,0 0,0 1,-1 1,-1 0,0 0,0 1,-1 0,0 0,-1 0,-2 1,-1 1,-2 2,-2 1,-1 2,-1 3,-1l1 0 0 2 -1 0c-1,0 -2,0 -2,0 0,1 -1,1 -1,2 0,1 -1,2 -1,2 0,1 -1,1 -2,1l7 8z"/>
    <path id="1" class="fil0" d="M724 5359c-2,0 -3,-1 -4,-2 -1,-1 -1,-2 -1,-4 0,-2 0,-4 1,-5 1,-1 2,-1 4,-1 2,0 3,0 4,1 1,1 1,3 1,5 0,2 0,3 -1,4 -1,1 -2,2 -4,2zm0 -11c-1,0 -2,1 -3,1 0,1 -1,2 -1,4 0,1 1,2 1,3 1,1 2,1 3,1 1,0 2,0 2,-1 1,-1 1,-2 1,-3 0,-3 -1,-5 -3,-5z"/>
    <polygon id="2" class="fil0" points="741,5358 740,5358 740,5353 734,5353 734,5358 732,5358 732,5347 734,5347 734,5352 740,5352 740,5347 741,5347 "/>
    <polygon id="3" class="fil0" points="753,5348 749,5348 749,5358 747,5358 747,5348 743,5348 743,5347 753,5347 "/>
    <path id="4" class="fil0" d="M762 5356l0 -4c-3,0 -4,1 -5,1 -1,1 -1,1 -1,2 0,1 1,2 2,2 2,0 3,0 4,-1zm0 2l0 -1c-1,1 -2,1 -2,1 -1,1 -2,1 -2,1 -1,0 -2,-1 -3,-1 -1,-1 -1,-2 -1,-3 0,-1 1,-2 2,-3 1,-1 3,-1 6,-1l0 0c0,-1 0,-2 -1,-2 0,-1 -1,-1 -2,-1 -1,0 -2,0 -4,1l0 0 0 -2c1,0 3,0 4,0 2,0 3,0 4,1 0,0 1,1 1,3l0 7 -2 0z"/>
    <path id="5" class="fil0" d="M777 5358l-2 0 -5 -5 -1 0 0 5 -2 0 0 -11 2 0 0 5c1,0 1,0 2,0 0,-1 0,-1 1,-2 0,0 0,-1 0,-1 0,0 1,-1 1,-1 0,0 1,-1 1,-1 1,0 1,0 2,0l0 0 0 1 0 0c-1,0 -1,1 -2,1 0,0 0,0 0,1 -1,1 -2,2 -2,2l5 6z"/>
    <polygon id="6" class="fil0" points="787,5348 783,5348 783,5358 781,5358 781,5348 777,5348 777,5347 787,5347 "/>
    <polygon id="7" class="fil0" points="799,5358 797,5358 797,5350 791,5358 789,5358 789,5347 791,5347 791,5356 797,5347 799,5347 "/>
   </g>
  </g>
  <g id="_2303295971888">
   <g>
    <path class="fil3" d="M-536 -4719l1 -1 3 -9 2 0 3 9 1 1 0 1 -4 0 0 -1 1 -1 0 -1 -4 0 0 1 0 1 0 1 -3 0 0 -1zm4 -4l2 0 -1 -3 0 0 -1 3zm7 3c1,0 1,-1 1,-1 1,-1 1,-1 1,-2l0 -2 -1 0 0 -1 7 0 1 0 0 1 -1 0 0 5 1 0 0 4 -2 0 0 -2 -5 0 0 2 -2 0 0 -4 0 0zm4 -3c0,0 0,1 -1,2 0,0 0,1 0,1l2 0 0 -4 -1 0 0 1zm10 -3c1,0 2,0 3,0 0,1 1,1 1,2 0,0 0,1 -1,1 0,0 0,1 -1,1 1,0 1,0 2,0 0,1 0,1 0,2 0,0 0,1 -1,1 0,1 -1,1 -2,1l-5 0 0 -1 1 -1 0 -5 -1 0 0 -1 1 0 3 0zm-1 5l0 1 2 0c0,0 1,0 1,0 0,0 0,0 0,-1 0,0 0,0 0,0 0,0 -1,0 -1,0l-2 0zm0 -2l1 0c1,0 1,0 1,0 1,0 1,0 1,-1 0,0 -1,0 -1,0 0,0 0,0 -1,0l-1 0 0 1zm6 1c0,-1 0,-2 1,-3 1,-1 2,-1 3,-1 1,0 2,0 3,1 0,1 1,2 1,3l0 0c0,1 -1,2 -1,3 -1,1 -2,1 -3,1 -1,0 -2,0 -3,-1 -1,-1 -1,-2 -1,-3l0 0zm2 0c0,1 0,1 1,2 0,0 0,0 1,0 0,0 1,0 1,0 0,-1 1,-1 1,-2l0 0c0,-1 -1,-1 -1,-2 0,0 -1,-1 -1,-1 -1,0 -1,1 -1,1 -1,1 -1,1 -1,2l0 0zm7 -3l0 -1 4 0 0 1 -1 0 0 2 1 0 1 -2c0,0 1,-1 1,-1 0,0 1,0 1,0 0,0 1,0 1,0 0,0 0,0 0,0l0 2c0,0 0,0 0,0 0,0 0,0 0,0 -1,0 -1,0 -1,0 0,0 0,0 0,0l-1 2 2 2 1 1 0 1 -3 0 -2 -3 -1 0 0 1 1 1 0 1 -4 0 0 -1 1 -1 0 -5 -1 0zm14 7c0,0 0,0 0,-1 0,0 0,0 0,0 0,0 0,1 -1,1 0,0 -1,0 -1,0 -1,0 -1,0 -2,-1 0,0 -1,-1 -1,-1 0,-1 1,-2 1,-2 1,0 2,-1 3,-1l1 0 0 0c0,-1 0,-1 0,-1 0,-1 -1,-1 -1,-1 0,0 -1,0 -1,0 0,0 0,1 0,1l0 0 -2 0 0 -1c0,-1 1,-1 1,-1 1,0 1,0 2,0 1,0 2,0 2,0 1,1 1,2 1,3l0 3c0,0 0,0 0,0 0,0 0,0 0,0l1 1 0 1 -3 0zm-1 -2c0,0 0,0 0,0 1,0 1,0 1,0l0 -2 -1 0c0,0 -1,1 -1,1 0,0 0,0 0,1 0,0 0,0 0,0 0,0 0,0 1,0zm13 -6l0 3 -2 0 0 -1 -1 0 0 4 1 1 0 1 -5 0 0 -1 2 -1 0 -4 -2 0 0 1 -2 0 0 -3 9 0zm4 6c0,0 1,0 1,0 0,0 0,0 0,-1l2 0 0 0c0,1 0,2 -1,2 0,1 -1,1 -2,1 -1,0 -2,0 -3,-1 0,-1 -1,-2 -1,-3l0 0c0,-1 1,-2 1,-3 1,-1 2,-1 3,-1 1,0 1,0 2,0 0,0 1,1 1,1l0 2 -2 0 0 -1c0,0 0,0 0,0 -1,-1 -1,-1 -1,-1 -1,0 -1,1 -1,1 0,1 -1,1 -1,2l0 0c0,1 1,1 1,2 0,0 0,0 1,0zm8 -6l0 2 1 0c1,0 2,1 3,1 0,1 1,1 1,2 0,1 -1,2 -1,2 -1,1 -2,1 -3,1l-5 0 0 -1 2 -1 0 -5 -2 0 0 -1 2 0 2 0zm0 4l0 2 1 0c1,0 1,0 1,0 0,0 0,-1 0,-1 0,0 0,0 0,-1 0,0 0,0 -1,0l-1 0zm1 -4l0 1 -1 0 0 -1 1 0zm5 1l0 -1 4 0 0 1 -1 0 0 2 1 0 1 -2c0,0 0,-1 1,-1 0,0 0,0 1,0 0,0 0,0 1,0 0,0 0,0 0,0l0 2c0,0 0,0 0,0 0,0 -1,0 -1,0 0,0 0,0 0,0 0,0 0,0 0,0l-2 2 2 2 1 1 0 1 -3 0 -1 -3 -1 0 0 1 1 1 0 1 -4 0 0 -1 1 -1 0 -5 -1 0zm13 7c-1,0 -2,0 -3,-1 -1,-1 -1,-2 -1,-3l0 0c0,-1 0,-2 1,-3 1,-1 2,-1 3,-1 1,0 2,0 2,1 1,0 1,1 1,2l0 2 -5 0 0 0c0,0 1,1 1,1 0,0 1,0 1,0 1,0 1,0 1,0 1,0 1,0 1,0l1 1c0,0 -1,1 -1,1 -1,0 -1,0 -2,0zm0 -7c-1,0 -1,1 -1,1 0,0 -1,1 -1,1l0 0 3 0 0 0c0,-1 0,-1 0,-1 -1,0 -1,-1 -1,-1zm8 3c0,-1 0,-2 1,-3 0,-1 1,-1 3,-1 1,0 2,0 2,1 1,1 1,2 1,3l0 0c0,1 0,2 -1,3 0,1 -1,1 -2,1 -2,0 -3,0 -3,-1 -1,-1 -1,-2 -1,-3l0 0zm2 0c0,1 0,1 0,2 1,0 1,0 2,0 0,0 1,0 1,0 0,-1 0,-1 0,-2l0 0c0,-1 0,-1 0,-2 0,0 -1,-1 -1,-1 -1,0 -1,1 -2,1 0,1 0,1 0,2l0 0zm10 -4c1,0 2,1 3,1 1,1 1,2 1,3l0 0c0,1 0,2 -1,3 -1,1 -2,1 -3,1 -1,0 -2,0 -3,-1 0,-1 -1,-2 -1,-3l0 -1c0,-2 1,-3 1,-4 1,-1 2,-1 3,-2 1,0 1,0 1,0 0,0 1,0 1,-1l1 0 0 0c0,1 0,2 0,2 -1,1 -2,1 -3,1 0,0 -1,0 -1,1 0,0 -1,1 -1,1l0 0c1,0 1,0 1,0 1,-1 1,-1 1,-1zm0 2c0,0 -1,0 -1,1 0,0 0,0 0,1l0 0c0,1 0,1 0,2 0,0 1,0 1,0 1,0 1,0 1,0 1,-1 1,-1 1,-2l0 0c0,-1 0,-1 -1,-1 0,-1 0,-1 -1,-1zm12 4c1,0 1,0 1,0 0,0 0,0 0,-1l2 0 0 0c0,1 0,2 0,2 -1,1 -2,1 -3,1 -1,0 -2,0 -3,-1 0,-1 -1,-2 -1,-3l0 0c0,-1 1,-2 1,-3 1,-1 2,-1 3,-1 1,0 2,0 2,0 1,0 1,1 1,1l0 2 -1 0 -1 -1c0,0 0,0 0,0 0,-1 -1,-1 -1,-1 0,0 -1,1 -1,1 0,0 0,1 0,1l0 0 2 0 0 2 -2 0 0 0c0,0 0,1 0,1 0,0 1,0 1,0zm5 0c1,0 1,-1 1,-1 0,-1 0,-1 0,-2l0 -2 -1 0 0 -1 7 0 1 0 0 1 -1 0 0 5 1 0 0 4 -2 0 0 -2 -4 0 0 2 -2 0 -1 -4 1 0zm4 -3c-1,0 -1,1 -1,2 0,0 0,1 0,1l2 0 0 -4 -1 0 0 1zm6 -2l0 -1 4 0 0 1 -1 0 0 2 2 0 0 -2 0 0 0 -1 0 0 3 0 1 0 0 1 -1 0 0 5 1 1 0 1 -4 0 0 -1 0 -1 0 -1 -2 0 0 1 1 1 0 1 -4 0 0 -1 1 -1 0 -5 -1 0zm15 7c0,0 0,0 0,-1 0,0 0,0 0,0 -1,0 -1,1 -1,1 -1,0 -1,0 -2,0 0,0 -1,0 -1,-1 -1,0 -1,-1 -1,-1 0,-1 0,-2 1,-2 0,0 1,-1 2,-1l2 0 0 0c0,-1 -1,-1 -1,-1 0,-1 0,-1 -1,-1 0,0 0,0 0,0 -1,0 -1,1 -1,1l0 0 -2 0 0 -1c1,-1 1,-1 2,-1 0,0 1,0 1,0 1,0 2,0 3,0 0,1 1,2 1,3l0 3c0,0 0,0 0,0 0,0 0,0 0,0l0 1 0 1 -2 0zm-2 -2c0,0 1,0 1,0 0,0 0,0 1,0l0 -2 -2 0c0,0 0,1 -1,1 0,0 0,0 0,1 0,0 0,0 0,0 0,0 1,0 1,0zm5 -5l0 -1 4 0 0 1 0 0 0 2 2 0 0 -2 -1 0 0 -1 1 0 2 0 1 0 0 1 -1 0 0 5 1 1 0 1 -4 0 0 -1 1 -1 0 -1 -2 0 0 1 0 1 0 1 -4 0 0 -1 1 -1 0 -5 -1 0zm11 0l0 -1 4 0 0 1 -1 0 0 2 3 0 0 -2 -1 0 0 -1 1 0 2 0 1 0 0 1 -1 0 0 5 1 1 0 1 -4 0 0 -1 1 -1 0 -1 -3 0 0 1 1 1 0 1 -4 0 0 -1 1 -1 0 -5 -1 0zm14 6l1 -1 0 -1 -1 0 -1 3 -3 0 0 -1 1 -1 1 -1c0,0 -1,-1 -1,-1 0,-1 0,-1 0,-1 0,-1 0,-2 1,-2 0,-1 1,-1 2,-1l4 0 1 0 0 1 -1 0 0 5 1 1 0 1 -5 0 0 -1zm-1 -4c0,0 0,0 0,0 0,1 1,1 1,1l1 0 0 -2 -1 0c0,0 -1,0 -1,0 0,0 0,0 0,1zm-62 -5c0,0 0,1 0,1 0,1 -1,1 -1,2l-1 -1c0,0 0,-1 0,-1 0,0 0,-1 0,-1l0 -2 2 0 0 2z"/>
    <path class="fil4" d="M-536 -4774l2 -1 0 -12 -2 0 0 -2 13 0 0 4 -3 0 0 -1 -5 0 0 11 2 1 0 2 -7 0 0 -2zm11 0l1 0 6 -15 3 0 5 15 1 0 0 2 -5 0 0 -2 1 0 -1 -3 -5 0 -1 3 1 0 0 2 -6 0 0 -2zm6 -5l4 0 -2 -6 0 0 -2 6zm18 -7l0 5c0,3 0,5 -1,7 -1,1 -3,2 -5,2l0 0 0 -3 0 0c1,0 2,0 2,-1 0,-1 1,-3 1,-5l0 -6 -2 0 0 -2 13 0 2 0 0 2 -2 0 0 12 2 1 0 2 -7 0 0 -2 2 -1 0 -11 -5 0zm18 -3l0 2 -1 0 0 8 0 0 6 -7 0 -1 -1 0 0 -2 1 0 4 0 2 0 0 2 -2 0 0 12 2 1 0 2 -7 0 0 -2 1 -1 0 -7 0 0 -6 7 0 0 1 1 0 2 -7 0 0 -2 2 -1 0 -12 -2 0 0 -2 2 0 4 0 1 0zm29 2l-2 0 0 12 3 0 -1 7 -3 0 0 -4 -14 0 0 -2 2 -1 0 -12 -2 0 0 -2 2 0 3 0 2 0 0 2 -2 0 0 12 7 0 0 -12 -2 0 0 -2 7 0 0 2zm7 -2l0 6 3 0c2,0 3,1 4,2 2,1 2,2 2,3 0,2 0,3 -2,4 -1,1 -2,2 -4,2l-8 0 0 -2 2 -1 0 -12 -2 0 0 -2 2 0 3 0zm0 9l0 5 3 0c1,0 2,0 2,-1 1,0 1,-1 1,-2 0,0 0,-1 -1,-1 0,-1 -1,-1 -2,-1l-3 0zm2 -9l0 2 -2 0 0 -2 2 0zm8 15l2 -1 0 -12 -2 0 0 -2 7 0 0 2 -1 0 0 5 1 0 3 -5c1,-1 1,-1 2,-2 0,0 1,0 2,0 0,0 1,0 1,0 0,0 1,0 1,0l-1 3c0,0 0,0 0,0 0,0 0,0 0,0 -1,0 -1,0 -1,0 -1,0 -1,1 -1,1l-3 4 5 7 1 0 0 2 -6 0 0 -2 1 0 -4 -5 -1 0 0 4 1 1 0 2 -7 0 0 -2zm17 0l1 0 5 -15 4 0 5 15 1 0 0 2 -6 0 0 -2 2 0 -1 -3 -6 0 0 3 1 0 0 2 -6 0 0 -2zm6 -5l4 0 -2 -6 0 0 -2 6zm-122 36l2 0 0 -12 -2 -1 0 -2 17 0 0 2 -2 1 0 12 2 0 0 2 -7 0 0 -2 2 0 0 -12 -7 0 0 12 2 0 0 2 -7 0 0 -2zm26 -15c2,0 4,1 5,2 1,1 1,2 1,4 0,1 0,2 -1,3 -1,1 -3,2 -5,2l-3 0 0 4 2 0 0 2 -7 0 0 -2 2 0 0 -12 -2 -1 0 -2 2 0 6 0zm-3 8l3 0c1,0 2,0 2,0 1,-1 1,-2 1,-2 0,-1 0,-2 -1,-2 0,-1 -1,-1 -2,-1l-3 0 0 5zm8 7l1 0 5 -15 3 0 5 15 2 0 0 2 -6 0 0 -2 1 0 -1 -3 -5 0 -1 3 1 0 0 2 -5 0 0 -2zm6 -5l4 0 -2 -6 0 0 -2 6zm18 -10c2,0 4,1 5,1 1,1 2,2 2,4 0,1 -1,1 -1,2 -1,1 -1,1 -2,1 1,1 2,1 2,2 1,0 1,1 1,2 0,2 0,3 -1,4 -2,1 -3,1 -5,1l-8 0 0 -2 2 0 0 -12 -2 -1 0 -2 2 0 5 0zm-2 10l0 4 3 0c1,0 2,0 2,0 1,-1 1,-1 1,-2 0,-1 0,-1 -1,-2 0,0 -1,0 -2,0l-3 0zm0 -3l2 0c1,0 2,0 2,0 1,-1 1,-1 1,-2 0,-1 0,-1 -1,-2 0,0 -1,0 -2,0l-2 0 0 4zm10 -5l0 -2 7 0 0 2 -1 1 0 4 6 0 0 -4 -1 -1 0 -2 1 0 4 0 2 0 0 2 -2 1 0 12 2 0 0 2 -7 0 0 -2 1 0 0 -5 -6 0 0 5 1 0 0 2 -7 0 0 -2 2 0 0 -12 -2 -1zm26 -2l0 2 -2 1 0 7 0 0 7 -6 0 -1 -2 -1 0 -2 2 0 3 0 2 0 0 2 -2 1 0 12 2 0 0 2 -7 0 0 -2 2 0 0 -8 0 0 -7 7 0 1 2 0 0 2 -7 0 0 -2 2 0 0 -12 -2 -1 0 -2 2 0 3 0 2 0zm21 15l2 0 0 -4c-1,0 -1,0 -2,0 -1,0 -1,0 -2,0 -2,0 -3,-1 -5,-1 -1,-1 -1,-3 -1,-5l0 -2 -2 -1 0 -2 5 0 2 0 0 2 -2 1 0 2c0,2 0,2 1,3 0,0 1,0 2,0 1,0 1,0 2,0 1,0 1,0 2,0l0 -5 -2 -1 0 -2 2 0 3 0 2 0 0 2 -2 1 0 12 2 0 0 2 -7 0 0 -2zm8 0l1 0 5 -15 4 0 5 15 1 0 0 2 -6 0 0 -2 1 0 0 -3 -6 0 -1 3 2 0 0 2 -6 0 0 -2zm6 -5l4 0 -2 -6 0 0 -2 6zm23 5l2 0 0 -12 -2 -1 0 -2 12 0 0 4 -2 0 0 -1 -5 0 0 12 2 0 0 2 -7 0 0 -2zm22 -15c2,0 3,1 4,2 1,1 2,2 2,4 0,1 -1,2 -2,3 -1,1 -2,2 -4,2l-3 0 0 4 2 0 0 2 -7 0 0 -2 2 0 0 -12 -2 -1 0 -2 2 0 6 0zm-3 8l3 0c1,0 1,0 2,0 0,-1 1,-2 1,-2 0,-1 -1,-2 -1,-2 -1,-1 -1,-1 -2,-1l-3 0 0 5zm25 -6l-1 0 -5 12c-1,1 -1,2 -2,2 0,1 -1,1 -3,1 0,0 0,0 0,0 -1,0 -1,0 -1,0l0 -2c0,0 0,0 1,0 0,0 0,0 0,0 1,0 1,0 1,-1 1,0 1,0 1,-1l0 -1 -4 -10 -2 0 0 -2 6 0 0 2 -1 0 3 6 0 1 0 0 2 -7 -1 0 0 -2 6 0 0 2zm1 13l2 0 0 -12 -2 -1 0 -2 18 0 0 2 -2 1 0 12 2 0 0 2 -7 0 0 -2 1 0 0 -12 -6 0 0 12 1 0 0 2 -7 0 0 -2zm19 0l1 0 5 -15 3 0 5 15 2 0 0 2 -6 0 0 -2 1 0 -1 -3 -5 0 -1 3 1 0 0 2 -5 0 0 -2zm6 -5l4 0 -2 -6 0 0 -2 6z"/>
   </g>
   <g>
    <path class="fil5" d="M-604 -4728l-8 0 0 -3 3 0 0 -39 -21 0 0 7 11 0 0 3 -14 0 0 -14 28 0 0 43 1 0 2 0 0 -43 28 0 0 14 -14 0 0 -3 10 0 0 -7 -20 0 0 39 3 0 0 3 -9 0zm13 4l-13 0 -12 0 0 3 12 0 13 0 0 -3zm-13 -57l9 0 0 4 3 0 0 -7 -12 0 -12 0 0 7 4 0 0 -4 8 0zm9 14l0 21c1,6 6,11 12,11 6,0 12,-5 12,-12l0 -1 -4 0 0 1c0,5 -3,8 -8,8 -5,0 -9,-3 -9,-8l0 -20 -3 0zm-17 0l0 21c-1,6 -6,11 -12,11 -7,0 -12,-5 -12,-12l0 -1 4 0 0 1c0,5 3,8 8,8 5,0 8,-3 8,-8l0 -20 4 0z"/>
    <path class="fil4" d="M-604 -4710c12,0 23,-5 30,-13 8,-7 12,-18 12,-29 0,-12 -4,-23 -12,-30 -7,-8 -18,-12 -30,-12 -11,0 -22,4 -29,12 -8,7 -13,18 -13,30 0,11 5,22 13,29 7,8 18,13 29,13zm33 -10c-9,8 -20,13 -33,13 -12,0 -23,-5 -32,-13 -8,-9 -13,-20 -13,-32 0,-13 5,-24 13,-33 9,-8 20,-13 32,-13 13,0 24,5 33,13 8,9 13,20 13,33 0,12 -5,23 -13,32z"/>
   </g>
  </g>
  <g id="_2303295971696">
   <g>
    <path class="fil3" d="M120 80l1 0 3 -9 2 0 3 9 1 0 0 2 -3 0 0 -2 0 0 0 -1 -4 0 0 1 1 0 0 2 -4 0 0 -2zm4 -3l2 0 -1 -4 0 0 -1 4zm8 3c0,-1 0,-1 1,-2 0,0 0,-1 0,-2l0 -1 -1 0 0 -1 7 0 1 0 0 1 -1 0 0 5 1 0 0 4 -2 0 0 -2 -5 0 0 2 -2 0 0 -4 1 0zm3 -4c0,1 0,2 0,2 -1,1 -1,1 -1,2l3 0 0 -5 -2 0 0 1zm11 -2c1,0 1,0 2,0 1,0 1,1 1,2 0,0 0,0 0,1 -1,0 -1,0 -2,0 1,1 2,1 2,1 0,0 0,1 0,1 0,1 0,2 -1,2 0,0 -1,1 -2,1l-5 0 0 -2 1 0 0 -5 -1 0 0 -1 1 0 4 0zm-2 4l0 2 2 0c0,0 1,0 1,0 0,0 0,-1 0,-1 0,0 0,0 0,-1 0,0 -1,0 -1,0l-2 0zm0 -1l2 0c0,0 0,0 0,0 1,-1 1,-1 1,-1 0,0 0,0 -1,-1 0,0 0,0 0,0l-2 0 0 2zm6 0c0,-1 1,-2 1,-2 1,-1 2,-2 3,-2 1,0 2,1 3,2 0,0 1,1 1,2l0 1c0,1 -1,2 -1,3 -1,0 -2,1 -3,1 -1,0 -2,-1 -3,-1 0,-1 -1,-2 -1,-3l0 -1zm2 1c0,0 1,1 1,1 0,1 0,1 1,1 1,0 1,0 1,-1 1,0 1,-1 1,-1l0 -1c0,0 0,-1 -1,-1 0,-1 0,-1 -1,-1 -1,0 -1,0 -1,1 0,0 -1,1 -1,1l0 1zm7 -3l0 -1 4 0 0 1 -1 0 0 2 1 0 1 -2c0,-1 1,-1 1,-1 0,0 1,-1 1,-1 1,0 1,0 1,1 0,0 0,0 1,0l-1 1c0,0 0,0 0,0 0,0 0,0 0,0 0,0 -1,0 -1,0 0,0 0,1 0,1l-1 1 2 3 1 0 0 2 -3 0 -2 -3 -1 0 0 1 1 0 0 2 -4 0 0 -2 1 0 0 -5 -1 0zm15 7c0,-1 -1,-1 -1,-1 0,0 0,0 0,0 0,0 0,0 -1,0 0,1 0,1 -1,1 -1,0 -1,-1 -2,-1 0,0 0,-1 0,-2 0,0 0,-1 1,-1 0,-1 1,-1 2,-1l1 0 0 -1c0,0 0,-1 0,-1 0,0 -1,0 -1,0 0,0 -1,0 -1,0 0,0 0,0 0,0l0 1 -2 0 0 -2c0,0 1,0 1,0 1,-1 1,-1 2,-1 1,0 2,1 2,1 1,1 1,1 1,2l0 3c0,1 0,1 0,1 0,0 0,0 0,0l1 0 0 2 -2 0zm-2 -2c0,0 0,0 1,0 0,0 0,0 0,-1l0 -1 -1 0c0,0 -1,0 -1,0 0,1 0,1 0,1 0,0 0,1 0,1 0,0 0,0 1,0zm13 -6l0 2 -2 0 0 -1 -1 0 0 5 1 0 0 2 -4 0 0 -2 1 0 0 -5 -2 0 0 1 -1 0 0 -2 8 0zm4 6c1,0 1,0 1,0 0,-1 0,-1 0,-1l2 0 0 0c0,1 0,1 -1,2 0,0 -1,1 -2,1 -1,0 -2,-1 -3,-1 0,-1 -1,-2 -1,-3l0 -1c0,-1 1,-2 1,-2 1,-1 2,-2 3,-2 1,0 1,0 2,1 0,0 1,0 1,0l0 3 -1 0 -1 -2c0,0 0,0 0,0 0,0 -1,0 -1,0 0,0 -1,0 -1,1 0,0 0,1 0,1l0 1c0,0 0,1 0,1 0,1 1,1 1,1zm8 -6l0 2 1 0c1,0 2,0 3,1 0,0 1,1 1,2 0,1 -1,1 -1,2 -1,0 -2,1 -3,1l-4 0 0 -2 1 0 0 -5 -1 0 0 -1 1 0 2 0zm0 4l0 2 1 0c1,0 1,0 1,0 1,-1 1,-1 1,-1 0,-1 0,-1 -1,-1 0,0 0,0 -1,0l-1 0zm1 -4l0 1 -1 0 0 -1 1 0zm5 1l0 -1 4 0 0 1 -1 0 0 2 1 0 1 -2c0,-1 1,-1 1,-1 0,0 1,-1 1,-1 0,0 1,0 1,1 0,0 0,0 0,0l0 1c0,0 0,0 0,0 0,0 0,0 0,0 -1,0 -1,0 -1,0 0,0 0,1 0,1l-1 1 1 3 2 0 0 2 -3 0 -2 -3 -1 0 0 1 1 0 0 2 -4 0 0 -2 1 0 0 -5 -1 0zm13 7c-1,0 -2,-1 -3,-1 0,-1 -1,-2 -1,-3l0 -1c0,-1 1,-2 1,-2 1,-1 2,-2 3,-2 1,0 2,1 2,1 1,1 1,2 1,3l0 1 -5 0 0 0c1,1 1,1 1,2 0,0 1,0 1,0 1,0 1,0 1,0 1,0 1,0 1,-1l1 2c0,0 -1,0 -1,0 -1,1 -1,1 -2,1zm0 -7c-1,0 -1,0 -1,1 0,0 0,0 -1,1l1 0 2 0 0 0c0,-1 0,-1 0,-2 0,0 -1,0 -1,0zm8 2c0,-1 0,-2 1,-2 1,-1 2,-2 3,-2 1,0 2,1 2,2 1,0 1,1 1,2l0 1c0,1 0,2 -1,3 0,0 -1,1 -2,1 -1,0 -2,-1 -3,-1 -1,-1 -1,-2 -1,-3l0 -1zm2 1c0,0 0,1 0,1 1,1 1,1 2,1 0,0 1,0 1,-1 0,0 0,-1 0,-1l0 -1c0,0 0,-1 0,-1 0,-1 -1,-1 -1,-1 -1,0 -1,0 -2,1 0,0 0,1 0,1l0 1zm11 -4c1,0 2,0 2,1 1,1 1,2 1,3l0 0c0,1 0,2 -1,3 -1,0 -1,1 -3,1 -1,0 -2,-1 -2,-1 -1,-1 -1,-2 -1,-3l0 -1c0,-2 0,-3 1,-4 0,-1 1,-2 2,-2 1,0 1,0 1,0 1,0 1,-1 1,-1l1 0 0 0c0,1 0,2 0,2 -1,0 -2,1 -3,1 0,0 -1,0 -1,0 0,1 0,1 -1,2l0 0c1,0 1,-1 1,-1 1,0 1,0 2,0zm-1 2c0,0 -1,0 -1,0 0,1 0,1 0,2l0 0c0,0 0,1 0,1 0,1 1,1 1,1 1,0 1,0 2,-1 0,0 0,0 0,-1l0 0c0,-1 0,-1 0,-2 -1,0 -1,0 -2,0zm12 4c1,0 1,0 1,0 1,-1 1,-1 1,-1l2 0 0 0c0,1 -1,1 -1,2 -1,0 -2,1 -3,1 -1,0 -2,-1 -2,-1 -1,-1 -1,-2 -1,-3l0 -1c0,-1 0,-2 1,-2 0,-1 1,-2 2,-2 1,0 2,0 2,1 1,0 1,0 1,0l0 3 -1 0 -1 -2c0,0 0,0 0,0 0,0 0,0 -1,0 0,0 0,0 -1,1 0,0 0,0 0,1l0 0 2 0 0 1 -2 0 0 0c0,1 0,1 0,2 1,0 1,0 1,0zm5 0c1,-1 1,-1 1,-2 0,0 1,-1 1,-2l0 -1 -2 0 0 -1 7 0 2 0 0 1 -2 0 0 5 2 0 -1 4 -2 0 0 -2 -4 0 0 2 -2 0 0 -4 0 0zm4 -4c0,1 0,2 -1,2 0,1 0,1 0,2l2 0 0 -5 -1 0 0 1zm6 -1l0 -1 4 0 0 1 -1 0 0 2 3 0 0 -2 -1 0 0 -1 1 0 2 0 1 0 0 1 -1 0 0 5 1 0 0 2 -4 0 0 -2 1 0 0 -2 -3 0 0 2 1 0 0 2 -4 0 0 -2 1 0 0 -5 -1 0zm15 7c0,-1 0,-1 0,-1 0,0 0,0 0,0 0,0 -1,0 -1,0 0,1 -1,1 -1,1 -1,0 -2,-1 -2,-1 -1,0 -1,-1 -1,-2 0,0 0,-1 1,-1 1,-1 1,-1 3,-1l1 0 0 -1c0,0 0,-1 -1,-1 0,0 0,0 -1,0 0,0 0,0 0,0 0,0 -1,0 -1,0l0 1 -1 0 0 -2c0,0 0,0 1,0 0,-1 1,-1 2,-1 1,0 1,1 2,1 1,1 1,1 1,2l0 3c0,1 0,1 0,1 0,0 0,0 0,0l1 0 0 2 -3 0zm-2 -2c1,0 1,0 1,0 0,0 1,0 1,-1l0 -1 -1 0c-1,0 -1,0 -1,0 -1,1 -1,1 -1,1 0,0 0,1 0,1 1,0 1,0 1,0zm5 -5l0 -1 5 0 0 1 -1 0 0 2 2 0 0 -2 -1 0 0 -1 1 0 3 0 1 0 0 1 -1 0 0 5 1 0 0 2 -5 0 0 -2 1 0 0 -2 -2 0 0 2 1 0 0 2 -5 0 0 -2 2 0 0 -5 -2 0zm11 0l0 -1 4 0 0 1 -1 0 0 2 3 0 0 -2 -1 0 0 -1 1 0 2 0 1 0 0 1 -1 0 0 5 1 0 0 2 -4 0 0 -2 1 0 0 -2 -3 0 0 2 1 0 0 2 -4 0 0 -2 1 0 0 -5 -1 0zm14 5l2 0 0 -1 -2 0 -1 3 -3 0 0 -2 1 0 1 -2c0,0 -1,0 -1,-1 0,0 0,0 0,-1 0,-1 0,-1 1,-2 0,0 1,0 2,0l4 0 1 0 0 1 -1 0 0 5 1 0 0 2 -5 0 0 -2zm-1 -4c0,1 0,1 0,1 0,0 1,0 1,0l2 0 0 -2 -2 0c0,0 -1,0 -1,1 0,0 0,0 0,0zm-62 -5c0,1 0,1 0,2 0,1 -1,1 -1,1l-1 0c0,-1 0,-1 0,-1 1,-1 1,-1 1,-2l0 -1 1 0 0 1z"/>
    <path class="fil4" d="M120 25l2 0 0 -12 -2 0 0 -2 13 0 0 4 -3 0 0 -2 -5 0 0 12 2 0 0 2 -7 0 0 -2zm11 0l2 0 5 -14 3 0 5 14 1 0 0 2 -5 0 0 -2 1 0 -1 -2 -5 0 -1 2 1 0 0 2 -6 0 0 -2zm7 -5l3 0 -2 -5 0 0 -1 5zm17 -7l0 5c0,4 0,6 -1,7 -1,2 -3,2 -4,2l-1 0 0 -2 0 0c1,0 2,-1 2,-2 1,0 1,-2 1,-5l0 -5 -2 0 0 -2 13 0 2 0 0 2 -2 0 0 12 2 0 0 2 -7 0 0 -2 2 0 0 -12 -5 0zm19 -2l0 2 -2 0 0 8 0 0 7 -7 0 -1 -2 0 0 -2 2 0 3 0 2 0 0 2 -2 0 0 12 2 0 0 2 -7 0 0 -2 2 0 0 -7 0 -1 -7 7 0 1 2 0 0 2 -7 0 0 -2 1 0 0 -12 -1 0 0 -2 1 0 4 0 2 0zm28 2l-2 0 0 12 3 0 0 7 -4 0 0 -5 -14 0 0 -2 2 0 0 -12 -2 0 0 -2 2 0 3 0 2 0 0 2 -2 0 0 12 7 0 0 -12 -2 0 0 -2 7 0 0 2zm7 -2l0 6 3 0c2,0 3,0 5,1 1,1 1,3 1,4 0,2 0,3 -1,4 -2,1 -3,1 -5,1l-8 0 0 -2 2 0 0 -12 -2 0 0 -2 2 0 3 0zm0 8l0 6 3 0c1,0 2,0 2,-1 1,0 1,-1 1,-2 0,-1 0,-1 -1,-2 0,0 -1,-1 -2,-1l-3 0zm2 -8l0 2 -2 0 0 -2 2 0zm9 14l1 0 0 -12 -1 0 0 -2 6 0 0 2 -1 0 0 5 1 0 3 -5c1,-1 2,-2 2,-2 1,0 1,0 2,0 1,0 1,0 1,0 1,0 1,0 1,0l0 3c-1,0 -1,0 -1,0 0,-1 0,-1 0,-1 -1,0 -1,1 -1,1 0,0 -1,0 -1,1l-3 4 5 6 2 0 0 2 -7 0 0 -2 1 0 -3 -4 -2 0 0 4 1 0 0 2 -6 0 0 -2zm16 0l1 0 6 -14 3 0 5 14 1 0 0 2 -5 0 0 -2 1 0 -1 -2 -5 0 -1 2 1 0 0 2 -6 0 0 -2zm6 -5l4 0 -2 -5 0 0 -2 5zm-122 37l2 -1 0 -12 -2 0 0 -2 17 0 0 2 -2 0 0 12 2 1 0 2 -7 0 0 -2 2 -1 0 -12 -7 0 0 12 2 1 0 2 -7 0 0 -2zm26 -15c2,0 4,0 5,1 1,1 2,3 2,4 0,2 -1,3 -2,4 -1,1 -3,2 -5,2l-2 0 0 3 1 1 0 2 -7 0 0 -2 2 -1 0 -12 -2 0 0 -2 2 0 6 0zm-2 8l2 0c1,0 2,0 2,-1 1,0 1,-1 1,-2 0,-1 0,-1 -1,-2 0,0 -1,-1 -2,-1l-2 0 0 6zm7 7l1 -1 5 -14 4 0 5 14 1 1 0 2 -6 0 0 -2 1 -1 0 -2 -6 0 -1 2 1 1 0 2 -5 0 0 -2zm6 -5l4 0 -2 -6 0 0 -2 6zm18 -10c2,0 4,0 5,1 1,1 2,2 2,3 0,1 -1,2 -1,3 0,0 -1,1 -2,1 1,0 2,1 3,1 0,1 0,2 0,3 0,1 0,3 -1,3 -1,1 -3,2 -5,2l-8 0 0 -2 2 -1 0 -12 -2 0 0 -2 2 0 5 0zm-2 9l0 5 3 0c1,0 2,0 2,0 1,-1 1,-1 1,-2 0,-1 0,-2 -1,-2 0,-1 -1,-1 -2,-1l-3 0zm0 -2l3 0c0,0 1,0 2,-1 0,0 0,-1 0,-1 0,-1 0,-2 0,-2 -1,0 -2,-1 -3,-1l-2 0 0 5zm11 -5l0 -2 7 0 0 2 -2 0 0 5 7 0 0 -5 -2 0 0 -2 2 0 3 0 2 0 0 2 -2 0 0 12 2 1 0 2 -7 0 0 -2 2 -1 0 -4 -7 0 0 4 2 1 0 2 -7 0 0 -2 1 -1 0 -12 -1 0zm25 -2l0 2 -2 0 0 8 0 0 7 -7 0 -1 -2 0 0 -2 2 0 4 0 1 0 0 2 -1 0 0 12 1 1 0 2 -7 0 0 -2 2 -1 0 -7 0 0 -7 7 0 0 2 1 0 2 -7 0 0 -2 2 -1 0 -12 -2 0 0 -2 2 0 3 0 2 0zm21 15l2 -1 0 -4c-1,0 -1,0 -2,0 -1,1 -1,1 -2,1 -2,0 -3,-1 -4,-2 -2,-1 -2,-2 -2,-4l0 -3 -2 0 0 -2 5 0 2 0 0 2 -2 0 0 3c0,1 1,2 1,2 1,1 1,1 2,1 1,0 1,0 2,0 1,0 1,0 2,0l0 -6 -2 0 0 -2 2 0 3 0 2 0 0 2 -2 0 0 12 2 1 0 2 -7 0 0 -2zm8 0l1 -1 5 -14 4 0 5 14 1 1 0 2 -6 0 0 -2 2 -1 -1 -2 -6 0 0 2 1 1 0 2 -6 0 0 -2zm6 -5l4 0 -2 -6 0 0 -2 6zm23 5l2 -1 0 -12 -2 0 0 -2 13 0 0 4 -3 0 0 -2 -5 0 0 12 2 1 0 2 -7 0 0 -2zm22 -15c2,0 3,0 4,1 2,1 2,3 2,4 0,2 0,3 -2,4 -1,1 -2,2 -4,2l-3 0 0 3 2 1 0 2 -7 0 0 -2 2 -1 0 -12 -2 0 0 -2 2 0 6 0zm-3 8l3 0c1,0 2,0 2,-1 1,0 1,-1 1,-2 0,-1 0,-1 -1,-2 0,0 -1,-1 -2,-1l-3 0 0 6zm26 -6l-2 0 -5 11c0,2 -1,2 -2,3 0,1 -1,1 -2,1 -1,0 -1,0 -1,0 0,0 -1,0 -1,0l0 -3c0,0 1,0 1,0 0,0 0,0 0,0 1,0 1,0 2,0 0,0 0,-1 0,-1l1 -1 -5 -10 -2 0 0 -2 6 0 0 2 -1 0 3 5 0 1 0 0 2 -6 -1 0 0 -2 7 0 0 2zm1 13l1 -1 0 -12 -1 0 0 -2 17 0 0 2 -2 0 0 12 2 1 0 2 -7 0 0 -2 2 -1 0 -12 -7 0 0 12 2 1 0 2 -7 0 0 -2zm18 0l1 -1 5 -14 4 0 5 14 1 1 0 2 -6 0 0 -2 1 -1 0 -2 -6 0 -1 2 2 1 0 2 -6 0 0 -2zm6 -5l4 0 -2 -6 0 0 -2 6z"/>
   </g>
   <g>
    <path class="fil5" d="M53 72l-9 0 0 -3 3 0 0 -40 -20 0 0 7 10 0 0 4 -14 0 0 -14 28 0 0 43 2 0 1 0 0 -43 28 0 0 14 -14 0 0 -4 11 0 0 -7 -21 0 0 40 3 0 0 3 -8 0zm12 4l-12 0 -13 0 0 3 13 0 12 0 0 -3zm-12 -57l8 0 0 3 4 0 0 -7 -12 0 -12 0 0 7 3 0 0 -3 9 0zm8 14l0 20c1,7 6,11 12,11 7,0 12,-5 12,-11l0 -1 -4 0 0 1c0,4 -3,8 -8,8 -5,0 -8,-4 -8,-8l0 -20 -4 0zm-17 0l0 20c0,7 -6,11 -12,11 -6,0 -12,-5 -12,-11l0 -1 4 0 0 1c0,4 3,8 8,8 5,0 9,-4 9,-8l0 -20 3 0z"/>
    <path class="fil4" d="M53 89c11,0 22,-5 29,-12 8,-8 13,-18 13,-30 0,-11 -5,-22 -13,-29 -7,-8 -18,-13 -29,-13 -12,0 -23,5 -30,13 -8,7 -12,18 -12,29 0,12 4,22 12,30 7,7 18,12 30,12zm32 -10c-9,9 -20,14 -32,14 -13,0 -24,-5 -33,-14 -8,-8 -13,-19 -13,-32 0,-12 5,-24 13,-32 9,-8 20,-13 33,-13 12,0 23,5 32,13 8,8 13,20 13,32 0,13 -5,24 -13,32z"/>
   </g>
  </g>
 </g>
</svg>
