<svg width="10" height="11" viewBox="0 0 10 11" fill="none" xmlns="http://www.w3.org/2000/svg">
<path d="M2.57672 3.28718C2.57672 3.12689 2.59264 2.96879 2.62316 2.81563C2.65423 2.65906 2.701 2.50689 2.76095 2.36196C2.8221 2.21407 2.89764 2.07343 2.98526 1.94234C3.07452 1.80872 3.17564 1.6852 3.28653 1.57442C3.39862 1.46276 3.52214 1.36132 3.65422 1.27282C3.78531 1.18543 3.92563 1.10978 4.07319 1.04874C4.21767 0.988461 4.36985 0.942019 4.52674 0.910948C4.68023 0.880096 4.83888 0.864176 4.99994 0.864176C5.16035 0.864176 5.31856 0.880315 5.47172 0.910618C5.62818 0.941689 5.78057 0.988461 5.92582 1.04841C6.07339 1.10945 6.21436 1.1851 6.34556 1.27282C6.47918 1.36208 6.60269 1.46353 6.71347 1.57442C6.82426 1.6852 6.92537 1.80872 7.01463 1.94234C7.10225 2.07343 7.1779 2.21407 7.23894 2.36196C7.29889 2.50689 7.34566 2.65906 7.37684 2.81563C7.40725 2.96879 7.42328 3.12689 7.42328 3.28718C7.42328 3.44726 7.40714 3.60569 7.37684 3.75885C7.34566 3.91531 7.29889 4.06748 7.23894 4.21273C7.17768 4.36106 7.10225 4.5016 7.01551 4.63203C6.92537 4.76653 6.82393 4.89004 6.71347 5.0006C6.60302 5.11106 6.47951 5.21239 6.34578 5.30165C6.21447 5.38927 6.07339 5.46503 5.92549 5.52629C5.78024 5.58624 5.62807 5.63301 5.47161 5.66408C5.31845 5.69438 5.16035 5.71052 4.99994 5.71052C4.83954 5.71052 4.68144 5.69438 4.52828 5.66408C4.3716 5.63301 4.21943 5.58624 4.0745 5.52629C3.92661 5.46503 3.78553 5.38927 3.65422 5.30165C3.52049 5.21239 3.39698 5.11106 3.28653 5.0006C3.06453 4.7786 2.88436 4.51093 2.76095 4.21339C2.70089 4.06781 2.65423 3.91542 2.62316 3.75885C2.59286 3.60569 2.57672 3.44759 2.57672 3.28718V3.28718ZM2.12492 5.60567C2.02336 5.64849 1.92323 5.69669 1.82607 5.74939C1.72791 5.80275 1.63151 5.86138 1.53797 5.92451C1.44476 5.98654 1.35506 6.0534 1.2692 6.12389C1.18323 6.19493 1.0999 6.27046 1.02118 6.3494C0.860114 6.5108 0.714419 6.688 0.587609 6.87783C0.462226 7.06514 0.35441 7.26573 0.267235 7.47598C0.181816 7.68272 0.114733 7.90121 0.0696087 8.12815C0.0256917 8.34938 0.00197653 8.57676 0.00164715 8.807L0 10.7588H10L9.99835 8.807C9.99802 8.57665 9.97431 8.34916 9.9305 8.12815C9.88516 7.90242 9.81851 7.68437 9.73266 7.4773C9.6457 7.26617 9.53766 7.06525 9.41239 6.87805C9.28635 6.68943 9.14065 6.51256 8.97871 6.35072C8.89988 6.27079 8.81721 6.19536 8.73168 6.12488C8.64297 6.05209 8.55338 5.98511 8.46324 5.92451C8.37288 5.8639 8.27604 5.80527 8.17371 5.74994C8.07457 5.69592 7.97444 5.6475 7.87497 5.60567L7.50738 5.45086L7.72971 5.1205C7.81985 4.98611 7.90066 4.84459 7.97071 4.69769C8.04086 4.55045 8.09993 4.39916 8.14638 4.24644C8.19216 4.09613 8.22773 3.93814 8.252 3.77444C8.27505 3.61722 8.28724 3.45396 8.28724 3.28718C8.28724 3.06628 8.2655 2.85109 8.22477 2.64424C8.1825 2.4308 8.11959 2.22494 8.03889 2.02973C7.95632 1.83002 7.85422 1.63975 7.73553 1.46243C7.6163 1.28402 7.47807 1.11637 7.3248 0.963099C7.1723 0.810268 7.0041 0.672149 6.82447 0.551927C6.64738 0.433461 6.45711 0.331243 6.25663 0.24824C6.06131 0.167323 5.85567 0.104413 5.64322 0.0624719C5.43615 0.0216291 5.22096 0 4.99994 0C4.77893 0 4.56363 0.0216291 4.35667 0.0624719C4.14334 0.104632 3.93781 0.167214 3.74304 0.247911C3.54256 0.331244 3.3524 0.43368 3.17531 0.552036C2.997 0.671491 2.82946 0.8095 2.67586 0.963099C2.52281 1.11505 2.38513 1.28227 2.26491 1.46178C2.146 1.63931 2.04357 1.82947 1.96111 2.02907C1.88041 2.22461 1.81728 2.43058 1.77512 2.64424C1.73428 2.8512 1.71276 3.0665 1.71276 3.28718C1.71276 3.45396 1.72495 3.61722 1.748 3.77444C1.77216 3.93814 1.80773 4.09613 1.85352 4.24644C1.89996 4.39916 1.95914 4.55045 2.02929 4.69769C2.09923 4.84459 2.18015 4.98611 2.27018 5.11984L2.49338 5.45086L2.12492 5.60567V5.60567ZM6.63146 6.19427C6.79714 6.20151 6.95765 6.22402 7.11103 6.25981C7.26924 6.29681 7.42295 6.34885 7.5692 6.41341C7.71742 6.47896 7.85938 6.55889 7.99245 6.65012C8.12848 6.74411 8.2543 6.84852 8.36761 6.96182C8.48849 7.08304 8.59828 7.2161 8.69402 7.35872C8.78954 7.50091 8.87155 7.65242 8.93776 7.81063C9.0021 7.96445 9.05249 8.12771 9.08675 8.298C9.11968 8.46203 9.13747 8.63265 9.1378 8.807L9.13879 9.13637H9.13615V9.90053H0.863736V9.13637H0.861431L0.86209 8.807C0.862419 8.63276 0.880205 8.46236 0.913143 8.29833C0.947288 8.12804 0.997793 7.96467 1.06202 7.81085C1.12812 7.65275 1.21013 7.50124 1.30543 7.35927C1.40249 7.21479 1.51217 7.08139 1.63206 6.9615C1.74811 6.84654 1.87416 6.74169 2.00788 6.64991C2.14062 6.55867 2.28258 6.47896 2.4308 6.41341C2.57672 6.34885 2.73032 6.29681 2.88842 6.25981C3.04191 6.22402 3.20286 6.20151 3.36821 6.19427L3.45297 6.19075L3.52895 6.22885C3.63962 6.2843 3.75589 6.33436 3.87743 6.37839C3.99436 6.42088 4.11623 6.45722 4.24172 6.48675C4.36469 6.51574 4.4904 6.53792 4.61666 6.55241C4.74105 6.56657 4.86896 6.57415 4.99994 6.57415C5.13082 6.57415 5.25916 6.56679 5.38334 6.55241C5.5096 6.53792 5.63531 6.51574 5.75828 6.48675C5.88377 6.45722 6.00564 6.42088 6.12257 6.37839C6.24411 6.33436 6.3606 6.28419 6.47105 6.22885L6.54747 6.19075L6.63146 6.19427V6.19427Z" fill="#D2A351"/>
</svg>
