<svg width="11" height="10" viewBox="0 0 11 10" fill="none" xmlns="http://www.w3.org/2000/svg">
<path d="M2.66247 9.46183H6.21094V8.49409H2.66247C2.21706 8.49409 1.85612 8.13293 1.85612 7.68775V2.52628C1.85612 2.08088 2.21706 1.71993 2.66247 1.71993H4.75918V3.65526H5.72707V1.71993H7.82385C8.26904 1.71993 8.6302 2.08088 8.6302 2.52628V4.94577H9.59802V2.52628C9.59802 1.54667 8.80354 0.752197 7.82385 0.752197H2.66247C1.68278 0.752197 0.888306 1.54667 0.888306 2.52628V7.68775C0.888306 8.66736 1.68278 9.46183 2.66247 9.46183V9.46183ZM9.92049 9.46183H10.8883V8.49409H9.92049V9.46183ZM7.66254 9.46183H8.6302V8.49409H7.66254V9.46183ZM9.92049 7.2038H10.8883V6.23599H9.92049V7.2038ZM7.66254 7.2038H8.6302V6.23599H7.66254V7.2038Z" fill="#D2A351"/>
</svg>
