<svg width="11" height="15" viewBox="0 0 11 15" fill="none" xmlns="http://www.w3.org/2000/svg">
<path d="M8.53337 2.58662C8.0349 2.08815 7.41652 1.73366 6.75157 1.54447C6.0856 1.35494 5.37271 1.33021 4.68675 1.49112C4.16593 1.61323 3.67373 1.84087 3.24014 2.15184C2.80418 2.46314 2.42919 2.85812 2.1443 3.31322C2.00051 3.54306 1.8789 3.78899 1.78303 4.04457C1.68734 4.30151 1.61637 4.56573 1.57369 4.833C1.52694 5.12432 1.5161 5.42191 1.53253 5.71967C1.54913 6.01912 1.59503 6.32229 1.66058 6.62377C1.78506 7.19642 1.98001 7.75518 2.21781 8.2965C2.45934 8.84577 2.74693 9.3798 3.05315 9.89452C3.32093 10.3451 3.60853 10.7851 3.91052 11.2136C4.2159 11.647 4.53499 12.0676 4.86358 12.4746L5.16845 12.8445C5.23755 12.9288 5.34121 13.0482 5.48009 13.2061C5.51498 13.2596 5.6183 13.3694 5.65844 13.4159C5.7792 13.2952 5.89878 13.1421 6.00955 13.0132L6.26513 12.7058C6.57542 12.3248 6.88165 11.9253 7.18177 11.5061C7.48156 11.0874 7.76171 10.6689 8.0178 10.2536C8.33588 9.73379 8.63601 9.20044 8.89125 8.65811C9.1448 8.12069 9.35973 7.56277 9.51505 6.98488C9.59753 6.67763 9.66308 6.36311 9.70068 6.04757C9.73709 5.73965 9.74726 5.42851 9.71999 5.1211C9.69153 4.79659 9.6248 4.47935 9.52335 4.1777C9.42155 3.87419 9.28301 3.58151 9.1116 3.30882C9.03098 3.18061 8.94054 3.05358 8.84247 2.93078C8.75033 2.81493 8.64617 2.69942 8.53337 2.58662V2.58662ZM6.99648 0.683211C7.80642 0.913896 8.55979 1.3458 9.16699 1.95299C9.29622 2.08223 9.42223 2.22331 9.54266 2.37439C9.65783 2.51853 9.76673 2.67198 9.86768 2.83271C10.0767 3.16502 10.2457 3.52257 10.3704 3.89417C10.4964 4.26899 10.5785 4.65567 10.6127 5.04387C10.6453 5.41276 10.6334 5.78487 10.5899 6.15275C10.547 6.51301 10.4728 6.87004 10.3799 7.21607C10.2124 7.83902 9.97743 8.44724 9.69966 9.03784C9.42376 9.62573 9.10974 10.1855 8.7798 10.7217C8.49644 11.178 8.20631 11.6135 7.90991 12.0274C7.61334 12.4417 7.29458 12.8565 6.9582 13.2693L6.69195 13.5909C6.5761 13.7249 6.44704 13.8905 6.32052 14.017C6.27834 14.0624 6.22956 14.1107 6.17266 14.1564C6.10304 14.2127 6.02411 14.2611 5.93164 14.2957L5.91639 14.3021C5.8434 14.3295 5.75498 14.3621 5.63202 14.3565C5.54361 14.3524 5.48416 14.3307 5.43216 14.3107L5.40489 14.3013C5.16286 14.2139 5.00043 14.0226 4.86459 13.8612L4.48418 13.4187C4.3851 13.3028 4.27924 13.1737 4.16695 13.0345C3.82211 12.6074 3.49115 12.1717 3.17883 11.7283C2.86312 11.2805 2.56282 10.8207 2.28285 10.3498C1.9602 9.80713 1.656 9.2421 1.39873 8.65726C1.13806 8.06378 0.923806 7.44845 0.785598 6.81279C0.711752 6.47269 0.659585 6.12311 0.639769 5.76844C0.619952 5.41276 0.63401 5.05217 0.691597 4.69276C0.744271 4.3635 0.830651 4.04051 0.946671 3.7314C1.06354 3.42213 1.21174 3.12234 1.38823 2.84068C1.73662 2.28429 2.1924 1.80327 2.71881 1.42557C3.24522 1.04651 3.84531 0.769591 4.4835 0.619697C5.32037 0.423563 6.18739 0.452695 6.99648 0.683211V0.683211ZM5.62931 4.80556C5.4872 4.80556 5.35001 4.85197 5.23704 4.93158C5.12187 5.01237 5.03075 5.12618 4.98349 5.25796C4.93539 5.39295 4.93285 5.53742 4.96977 5.67139C5.00636 5.80622 5.0841 5.93003 5.19588 6.02216C5.30411 6.11244 5.43978 6.16376 5.579 6.17392C5.7184 6.18408 5.86101 6.15275 5.98296 6.07941C6.10457 6.0059 6.1984 5.89513 6.25446 5.76811C6.31086 5.64091 6.33 5.49677 6.30222 5.35704C6.27123 5.19952 6.18366 5.06115 6.06375 4.96274C5.94434 4.86467 5.79106 4.80556 5.62931 4.80556V4.80556ZM4.72232 4.19989C4.98315 4.01612 5.29954 3.90924 5.62931 3.90924C6.00125 3.90924 6.35388 4.04559 6.63064 4.27323C6.90688 4.50018 7.10877 4.81928 7.18076 5.1853C7.24478 5.5088 7.2021 5.83873 7.07355 6.12887C6.94465 6.42036 6.72769 6.67509 6.44484 6.84616C6.1608 7.01757 5.83408 7.08972 5.516 7.06668C5.1969 7.04297 4.88305 6.92306 4.62696 6.71168C4.37138 6.50183 4.19405 6.21813 4.10902 5.90919C4.02366 5.60195 4.03094 5.26744 4.14357 4.95546C4.25655 4.64415 4.46335 4.38196 4.72232 4.19989V4.19989Z" fill="#D2A351"/>
</svg>
