<svg width="11" height="15" viewBox="0 0 11 15" fill="none" xmlns="http://www.w3.org/2000/svg">
<path d="M9.37868 14.1441H2.14152C1.76069 14.1441 1.41491 13.9886 1.16525 13.7393C0.915466 13.4891 0.760101 13.1433 0.760101 12.7627V1.66581C0.760101 1.28459 0.915467 0.939333 1.16473 0.689546C1.41452 0.439366 1.76069 0.284393 2.14152 0.284393H9.37868C9.75938 0.284393 10.1053 0.439889 10.3549 0.689154C10.6047 0.939334 10.7601 1.28511 10.7601 1.66581V12.7627C10.7601 13.1433 10.6047 13.4891 10.3555 13.7389C10.1053 13.9886 9.75938 14.1441 9.37868 14.1441V14.1441ZM3.1064 11.6225H8.83046V12.4555H2.93116V11.6225H3.1064ZM5.7599 9.14426C7.02584 9.14426 8.1682 8.38274 8.65522 7.21423C8.97667 6.44211 8.97667 5.57387 8.65522 4.80175C7.9889 3.20324 6.15263 2.44721 4.55399 3.11314C2.95509 3.77946 2.19906 5.6152 2.86486 7.21423C3.35188 8.38274 4.49423 9.14426 5.7599 9.14426V9.14426ZM8.4138 6.00793C8.41249 6.25261 8.37797 6.49639 8.30983 6.73179H7.07005C7.00204 6.49639 6.96752 6.25261 6.96608 6.00793C6.9666 5.76337 7.0006 5.5196 7.06769 5.28459H8.30983C8.37797 5.5196 8.41249 5.76337 8.4138 6.00793ZM6.5706 6.73179H6.00132V5.28459H6.57296C6.45526 5.75971 6.45526 6.25628 6.57296 6.73179H6.5706ZM6.00132 7.21423H6.72466C6.86773 7.55779 7.07005 7.87283 7.3235 8.14551C6.93665 8.431 6.47958 8.60532 6.00132 8.64953V7.21423ZM6.00132 4.80175V3.36646C6.48193 3.41066 6.94031 3.5859 7.32807 3.87283C7.07371 4.14459 6.86956 4.45872 6.72466 4.80175H6.00132ZM5.51888 4.80175H4.79502C4.65155 4.45911 4.44832 4.14459 4.19448 3.87283C4.58211 3.5859 5.04101 3.41066 5.52123 3.36646L5.51888 4.80175ZM5.51888 5.28459V6.73179H4.9496C5.06678 6.25628 5.06678 5.75971 4.9496 5.28459H5.51888ZM5.51888 7.21423V8.64953C5.03918 8.60532 4.58159 8.431 4.19448 8.14551C4.44832 7.87323 4.65195 7.55779 4.79502 7.21423H5.51888ZM3.83026 7.82444C3.65816 7.6424 3.51286 7.43682 3.39843 7.21423H4.25922C4.1457 7.43682 4.00132 7.6424 3.83026 7.82444V7.82444ZM7.68994 7.82444C7.51888 7.6424 7.3745 7.43682 7.26085 7.21423H8.11955C8.0059 7.43682 7.86152 7.6424 7.68994 7.82444V7.82444ZM8.12177 4.80175H7.25811C7.37215 4.57917 7.51796 4.37358 7.68994 4.19154C7.86191 4.37358 8.00734 4.57917 8.12177 4.80175ZM3.83026 4.19154C4.00132 4.37358 4.1457 4.57917 4.25922 4.80175H3.39843C3.51286 4.57917 3.65816 4.37358 3.83026 4.19154V4.19154ZM3.21024 5.28459H4.45016C4.58943 5.75683 4.58943 6.25902 4.45016 6.73179H3.21024C3.07319 6.25902 3.07319 5.75683 3.21024 5.28459ZM1.75337 1.27779C1.6545 1.37666 1.5929 1.51411 1.5929 1.66581V12.7627C1.5929 12.9138 1.6545 13.0518 1.75337 13.1507C1.85224 13.2495 1.99021 13.3113 2.14152 13.3113H9.37868C9.53039 13.3113 9.66797 13.2495 9.76684 13.1507C9.8657 13.0518 9.9273 12.9138 9.9273 12.7627V1.66581C9.9273 1.51411 9.8657 1.37666 9.76684 1.27779C9.66797 1.17892 9.53039 1.11719 9.37868 1.11719H2.14152C1.99021 1.11719 1.85224 1.17892 1.75337 1.27779V1.27779Z" fill="#D2A351"/>
</svg>
