<svg width="11" height="11" viewBox="0 0 11 11" fill="none" xmlns="http://www.w3.org/2000/svg">
<path fill-rule="evenodd" clip-rule="evenodd" d="M8.56092 6.69184C8.01734 6.47321 7.33431 6.19895 6.88718 6.59112L6.2369 7.142L6.17529 7.10194C5.9111 6.92936 5.65563 6.74234 5.41204 6.54403C5.16246 6.34107 4.92153 6.12377 4.6936 5.89688L4.64651 5.8479C4.43491 5.63535 4.23375 5.40998 4.04455 5.1755C3.8525 4.93741 3.67194 4.6884 3.50572 4.43237L3.46556 4.37067C3.61261 4.1958 3.85592 3.8643 4.0043 3.7295C4.41042 3.28038 4.13388 2.59108 3.91374 2.04228L3.80494 1.76385L3.73754 1.57693C3.41639 0.68647 3.25747 0.246462 2.13434 0.292029H2.12655C1.96099 0.285479 1.79553 0.320604 1.64326 0.386486C1.48035 0.45702 1.33055 0.563439 1.20895 0.691217C0.321146 1.62487 0.174382 2.67301 0.427564 3.70007C0.785076 5.1511 1.93555 6.569 2.9405 7.58201C3.10672 7.74833 3.28111 7.78497 3.41326 7.74178C3.46272 7.72564 3.50676 7.6983 3.54132 7.66403C3.57616 7.62938 3.60321 7.5859 3.61916 7.53701C3.66179 7.40639 3.62514 7.23361 3.45854 7.06682C2.91496 6.51821 2.30759 5.84277 1.84053 5.09794C1.369 4.34618 1.03959 3.52312 1.05781 2.68658C1.0638 2.4185 1.17828 1.96681 1.37887 1.60693C1.53428 1.32849 1.74455 1.09952 2.00191 1.03544C2.06067 1.01826 2.09247 1.02215 2.15408 1.02272C2.23715 1.01826 2.32686 1.01465 2.41714 1.01721C2.5116 1.02006 2.60586 1.0305 2.69168 1.05338L2.72453 1.06202L2.74532 1.08983C2.79838 1.16037 2.97382 1.60797 3.14033 2.06488C3.32459 2.5702 3.5005 3.10001 3.49423 3.16039L3.4911 3.18981L2.94259 3.85595C2.86787 3.94414 2.81215 4.04486 2.77911 4.15081C2.74741 4.25305 2.73677 4.36184 2.75025 4.47063C2.77209 4.65091 2.84053 4.75372 2.84053 4.75372L2.85411 4.77118C3.03049 5.05247 3.22776 5.32853 3.43851 5.59187C3.65429 5.86176 3.88611 6.12064 4.12629 6.36157L4.22027 6.45584C4.41564 6.65045 4.61499 6.82921 4.80391 6.98793C4.99415 7.1477 5.1711 7.28488 5.321 7.39547C5.62905 7.62388 5.83278 7.7509 5.83306 7.7509L5.84217 7.75583C5.97698 7.8425 6.13466 7.87298 6.28921 7.85807C6.456 7.84193 6.62023 7.77254 6.74906 7.66403L7.38633 7.12719L7.41576 7.12406C7.53414 7.11106 7.98117 7.25127 8.43447 7.41987C8.91122 7.59711 9.40562 7.80871 9.53387 7.90573L9.56795 7.93145L9.5727 7.97465C9.60308 8.27055 9.58229 8.44674 9.58229 8.44722C9.58333 8.51699 9.58751 8.53645 9.56957 8.60205C9.5615 8.63642 9.54669 8.67933 9.52191 8.72442C9.49694 8.76913 9.46153 8.8183 9.41056 8.86643C8.1641 10.0513 7.04334 9.51937 5.99777 9.0226C5.12506 8.60803 4.30637 8.21957 3.53923 8.9869C3.41487 9.11155 3.40186 9.25755 3.4518 9.37593C3.47154 9.42302 3.50202 9.46707 3.53923 9.50428C3.57644 9.54149 3.6204 9.57187 3.66758 9.59171C3.78567 9.64136 3.93092 9.62836 4.05528 9.504C4.21116 9.34916 4.39096 9.25812 4.61946 9.26069C4.83562 9.26306 5.0943 9.35277 5.41622 9.55573C5.80629 9.80094 6.20073 9.9872 6.6153 10.1093C7.02872 10.2311 7.4636 10.2891 7.93513 10.2782L7.9695 10.2771C8.41909 10.2589 9.01583 10.0742 9.49742 9.75898C9.96742 9.4514 10.3249 9.01899 10.314 8.50057L10.3133 8.47095C10.3585 7.34914 9.91929 7.19042 9.02903 6.86898L8.84201 6.80139L8.56092 6.69184V6.69184ZM2.2194 9.52925C2.13377 9.61488 2.08042 9.73401 2.08042 9.86597C2.08042 9.99735 2.13377 10.1163 2.2194 10.2019C2.30531 10.2875 2.42445 10.3408 2.55583 10.3408C2.6875 10.3408 2.80702 10.2875 2.89284 10.2019C2.97847 10.1163 3.03182 9.99735 3.03182 9.86597C3.03211 9.7343 2.97818 9.61488 2.89237 9.52896C2.80645 9.44333 2.68731 9.38998 2.55583 9.38998C2.42445 9.38998 2.30531 9.44333 2.2194 9.52925Z" fill="#D2A351"/>
</svg>
