<svg width="11" height="9" viewBox="0 0 11 9" fill="none" xmlns="http://www.w3.org/2000/svg">
<path fill-rule="evenodd" clip-rule="evenodd" d="M8.03811 3.49901C7.97516 3.43607 7.93573 3.34829 7.93573 3.25218C7.93573 3.15533 7.97516 3.06755 8.03811 3.0046C8.10097 2.94174 8.18883 2.90231 8.28527 2.90231H9.40816C9.5046 2.90231 9.5927 2.94207 9.65565 3.0046C9.7186 3.06755 9.75803 3.15566 9.75803 3.25218C9.75803 3.34862 9.7186 3.43607 9.65565 3.49901C9.59237 3.56188 9.5046 3.60131 9.40816 3.60131H8.28527C8.18883 3.60131 8.10097 3.56188 8.03811 3.49901ZM2.04587 0.807269L10.1728 0.805206C10.2696 0.805206 10.3571 0.84464 10.42 0.907504C10.4833 0.97078 10.5227 1.05831 10.5227 1.15508C10.5227 1.25185 10.4833 1.3393 10.4204 1.40224C10.3571 1.46519 10.2693 1.50462 10.1728 1.50462H8.19296L5.69137 4.03929C5.39685 4.33769 5.00689 4.48907 4.61725 4.49155C4.22769 4.49394 3.83525 4.34767 3.53661 4.05282L1.32888 1.87413L1.26321 2.07642L1.23244 2.19777C1.22485 2.24166 1.21998 2.28621 1.21998 2.33084V7.16556C1.21998 7.39309 1.31295 7.60016 1.46236 7.74948C1.61168 7.8988 1.81875 7.99186 2.04587 7.99186C2.51949 7.99186 4.70164 8.05893 4.98585 7.98765L6.09899 7.98699C6.19576 7.98699 6.2833 8.02642 6.34616 8.08929C6.4091 8.15256 6.44854 8.24075 6.44854 8.33719C6.44854 8.4333 6.40877 8.52149 6.34616 8.58436C6.2833 8.6473 6.19543 8.68674 6.09899 8.68674L2.04587 8.6888C1.62587 8.6888 1.24456 8.51762 0.96935 8.24249C0.693806 7.96694 0.522705 7.58564 0.522705 7.16556V2.33084C0.522705 1.91076 0.693806 1.52946 0.96935 1.25391C1.24423 0.978452 1.62554 0.807269 2.04587 0.807269V0.807269ZM4.02615 3.55602C4.18933 3.71681 4.4016 3.7956 4.61213 3.79419C4.823 3.7932 5.03452 3.71128 5.19391 3.55016L7.21255 1.50462H1.94802L4.02615 3.55602V3.55602ZM5.65202 6.86205C5.58907 6.7991 5.54964 6.71132 5.54964 6.61521C5.54964 6.51844 5.5894 6.43025 5.65202 6.36731C5.71488 6.30444 5.80274 6.26501 5.89951 6.26501H7.02206C7.1185 6.26501 7.20661 6.30444 7.26956 6.36731C7.33217 6.43025 7.37194 6.51844 7.37194 6.61521C7.37194 6.71165 7.3325 6.7991 7.26956 6.86205C7.20628 6.92499 7.1185 6.96434 7.02206 6.96434H5.89951C5.80274 6.96434 5.71488 6.92499 5.65202 6.86205ZM6.80633 5.18049C6.74339 5.11763 6.70395 5.02977 6.70395 4.93333C6.70395 4.83689 6.74339 4.74911 6.80633 4.68616C6.86961 4.62288 6.95772 4.58312 7.05383 4.58312L8.17638 4.58345C8.27282 4.58345 8.36101 4.62289 8.42387 4.68583C8.48649 4.74869 8.52625 4.83656 8.52625 4.93333C8.52625 5.02977 8.48682 5.11763 8.42387 5.18049C8.36101 5.24311 8.27282 5.28287 8.17638 5.28287H7.05383C6.95706 5.28287 6.86928 5.24311 6.80633 5.18049Z" fill="#D2A351"/>
</svg>
