<svg width="11" height="14" viewBox="0 0 11 14" fill="none" xmlns="http://www.w3.org/2000/svg">
<path fill-rule="evenodd" clip-rule="evenodd" d="M3.49612 3.22034C3.49612 1.94276 4.47327 0.940134 5.63901 0.940134C6.80475 0.940134 7.78189 1.94276 7.78189 3.22034V4.47527H8.49612V3.22034C8.49612 1.58479 7.23472 0.225906 5.63901 0.225906C4.04329 0.225906 2.78189 1.58479 2.78189 3.22034V4.51158H2.42473C1.43858 4.51158 0.639008 5.31105 0.639008 6.2973V11.2972C0.639008 12.2834 1.43858 13.0829 2.42473 13.0829H8.85329C9.83943 13.0829 10.639 12.2834 10.639 11.2972V6.2973C10.639 5.31105 9.83943 4.51158 8.85329 4.51158H3.49612V3.22034V3.22034ZM3.13906 5.22581H2.42473C1.83306 5.22581 1.35334 5.70553 1.35334 6.2973V11.2972C1.35334 11.889 1.83306 12.3686 2.42473 12.3686H8.85329C9.44495 12.3686 9.92468 11.889 9.92468 11.2972V6.2973C9.92468 5.70553 9.44495 5.22581 8.85329 5.22581H3.13906V5.22581ZM5.63901 7.35211C5.8362 7.35211 5.99617 7.51208 5.99617 7.70927V10.1145C5.99617 10.3117 5.8362 10.4715 5.63901 10.4715C5.44182 10.4715 5.28184 10.3117 5.28184 10.1145V7.70927C5.28184 7.51208 5.44182 7.35211 5.63901 7.35211Z" fill="#D2A351"/>
</svg>
