<?xml version="1.0" encoding="UTF-8"?>
<!DOCTYPE svg PUBLIC "-//W3C//DTD SVG 1.1//EN" "http://www.w3.org/Graphics/SVG/1.1/DTD/svg11.dtd">
<!-- Creator: CorelDRAW X8 -->
<svg xmlns="http://www.w3.org/2000/svg" xml:space="preserve" width="50px" height="50px" version="1.1" style="shape-rendering:geometricPrecision; text-rendering:geometricPrecision; image-rendering:optimizeQuality; fill-rule:evenodd; clip-rule:evenodd"
viewBox="0 0 21000 29700"
 xmlns:xlink="http://www.w3.org/1999/xlink" stroke="blue" fill="purple">


  <path stroke="blue" fill="purple" d="M6103 35021c0,-1 0,-3 0,-3l-58 -115c10,-6 16,-16 16,-28 0,-6 -4,-10 -10,-10 -6,0 -11,4 -11,10 0,6 -4,11 -10,11 -6,0 -11,-5 -11,-11 0,-5 -3,-9 -8,-10l-66 -15c-1,-12 -9,-21 -20,-26l0 -18 18 -18c3,-4 4,-8 2,-12l-21 -42c-4,-8 -15,-8 -19,0l-21 42c-2,4 -1,8 2,12l18 18 0 18c-6,3 -12,7 -16,13l-66 -14c-6,-1 -13,4 -13,10 0,6 -4,11 -10,11 -6,0 -11,-5 -11,-11 0,-6 -4,-10 -10,-10 -6,0 -11,4 -11,10 0,12 7,22 17,28l-57 115c-2,3 -2,8 0,11 18,22 43,35 72,35 28,0 54,-13 71,-35 3,-3 3,-8 1,-11l-57 -115c6,-3 11,-9 14,-15l55 12c2,12 10,22 21,26l0 170 -21 0c-3,0 -6,1 -8,3l-31 31c-3,3 -4,8 -2,12 1,4 5,6 9,6l126 0c5,0 8,-2 10,-6 2,-4 1,-8 -2,-11l-32 -32c-2,-2 -4,-3 -7,-3l-21 0 0 -170c7,-3 13,-7 16,-13l59 13c2,8 8,15 15,19l-57 115c-2,3 -2,8 1,11 17,22 42,35 71,35 28,0 54,-13 71,-35 2,-3 3,-6 2,-8 0,-2 1,2 0,0 0,-2 1,2 0,0zm-304 -20c-13,0 -26,-4 -37,-10l73 0c-10,6 -23,10 -36,10zm46 -31l-92 0 46 -92 46 92zm69 -208l9 17 -9 8 -8 -8 8 -17zm28 313l10 10 -75 0 10 -10 55 0zm-28 -210c-5,0 -10,-5 -10,-11 0,-6 5,-10 10,-10 6,0 11,4 11,10 0,6 -5,11 -11,11zm116 178c-13,0 -26,-4 -37,-10l73 0c-10,6 -23,10 -36,10zm-46 -31l46 -92 46 92 -92 0z"/>

</svg>
