<?xml version="1.0" encoding="UTF-8"?>
<!DOCTYPE svg PUBLIC "-//W3C//DTD SVG 1.1//EN" "http://www.w3.org/Graphics/SVG/1.1/DTD/svg11.dtd">
<!-- Creator: CorelDRAW X8 -->
<svg xmlns="http://www.w3.org/2000/svg" xml:space="preserve" width="142px" height="142px" version="1.1" style="shape-rendering:geometricPrecision; text-rendering:geometricPrecision; image-rendering:optimizeQuality; fill-rule:evenodd; clip-rule:evenodd"
viewBox="0 0 400 400"
 xmlns:xlink="http://www.w3.org/1999/xlink">
 <defs>
  <style type="text/css">
   <![CDATA[
    .str0 {stroke:#D2A351;stroke-width:6.66667}
    .fil0 {fill:none}
    .fil1 {fill:#D2A351;fill-rule:nonzero}
   ]]>
  </style>
 </defs>
 <g id="Layer_x0020_1">
  <metadata id="CorelCorpID_0Corel-Layer"/>
  <circle class="circle-delete fil0 str0" cx="200" cy="200" r="190"/>
  <g id="_2057853895488">
   <path class="fil1" d="M262 159l-41 -5 0 -9c0,-1 -1,-2 -2,-2l-59 0c-2,-4 -5,-6 -9,-6 -4,0 -8,2 -10,6l-2 0c-2,0 -2,1 -2,2l0 116c0,2 0,3 2,3l80 0c1,0 2,-1 2,-3l0 -3 27 4c0,0 0,0 0,0 1,0 2,-1 2,-2l13 -99c1,-1 0,-2 -1,-2zm-3 4l0 0 -1 9 -11 10 -26 -4 0 -20 38 5zm-108 -22l0 0c1,0 3,1 4,2l-9 0c1,-1 3,-2 5,-2zm66 118l0 0 -76 0 0 -112 16 0c0,0 0,0 0,0l0 20c0,2 -2,4 -4,4 -2,0 -3,-2 -3,-4l0 -2c0,0 0,0 0,0l0 -9c0,-1 0,-2 0,-2 1,0 1,1 1,2l0 9 4 0 0 -9c0,-3 -2,-6 -5,-6 -2,0 -5,3 -5,6l0 5c0,0 0,0 0,0l0 6c0,4 4,8 8,8 5,0 8,-4 8,-8l0 -20c0,0 0,0 0,0l56 0 0 112zm29 -2l0 0 -25 -3 0 -72 27 4c0,0 0,0 0,0 0,0 1,0 1,-1l8 -6 -11 78z"/>
   <polygon class="fil1" points="202,156 213,156 213,160 202,160 "/>
   <polygon class="fil1" points="194,164 213,164 213,168 194,168 "/>
   <polygon class="fil1" points="145,183 213,183 213,187 145,187 "/>
   <polygon class="fil1" points="145,192 213,192 213,196 145,196 "/>
   <polygon class="fil1" points="145,200 213,200 213,204 145,204 "/>
   <polygon class="fil1" points="145,209 175,209 175,213 145,213 "/>
   <polygon class="fil1" points="183,237 211,237 211,241 183,241 "/>
   <path class="fil1" d="M189 231c-1,-2 -2,-3 -2,-4 0,-1 0,-2 0,-3 1,0 1,0 2,0 0,0 1,1 1,1 0,1 0,2 0,3 0,0 0,1 0,1 0,1 1,2 1,3 1,1 2,2 3,2 0,0 1,0 1,-1 1,0 2,-1 2,-2 1,-1 1,-2 1,-2 0,-1 1,-2 1,-3 0,0 0,1 0,1 0,1 0,1 0,2 1,2 2,3 4,4l0 0c1,-1 2,-1 3,-1l4 -3 -3 -3 -3 2 0 0c-1,0 -1,0 -1,0 0,0 0,-1 0,-1 0,-1 0,-2 0,-2 0,-3 -2,-4 -5,-4 -1,1 -2,1 -2,2 -1,1 -1,2 -2,3 0,0 0,-1 0,-2 0,-2 -2,-4 -4,-4 -2,-1 -5,0 -6,2 -1,2 -2,4 -1,6 0,2 1,4 2,5l4 -2z"/>
  </g>
 </g>
</svg>
