<?xml version="1.0" encoding="UTF-8"?>
<!DOCTYPE svg PUBLIC "-//W3C//DTD SVG 1.1//EN" "http://www.w3.org/Graphics/SVG/1.1/DTD/svg11.dtd">
<!-- Creator: CorelDRAW X8 -->
<svg xmlns="http://www.w3.org/2000/svg" xml:space="preserve" width="142px" height="142px" version="1.1" style="shape-rendering:geometricPrecision; text-rendering:geometricPrecision; image-rendering:optimizeQuality; fill-rule:evenodd; clip-rule:evenodd"
viewBox="0 0 400 400"
 xmlns:xlink="http://www.w3.org/1999/xlink">
 <defs>
  <style type="text/css">
   <![CDATA[
    .str0 {stroke:#D2A351;stroke-width:6.66667}
    .fil0 {fill:none}
    .fil1 {fill:#D2A351}
    .fil2 {fill:#FEFEFE;fill-rule:nonzero}
   ]]>
  </style>
 </defs>
 <g id="Layer_x0020_1">
  <metadata id="CorelCorpID_0Corel-Layer"/>
  <circle class="circle-delete fil0 str0" cx="200" cy="200" r="190"/>
  <g id="_2226275610192">
   <path class="fil1" d="M225 188c-1,0 -2,0 -3,0 -1,0 -2,0 -3,0l-2 1 0 -35c0,-5 -4,-9 -10,-12 -8,-4 -19,-5 -30,-5 -11,0 -22,1 -30,5 -6,3 -10,7 -10,12l0 71c0,6 4,10 10,13 8,3 19,5 30,5 2,0 4,0 6,0 3,0 5,-1 7,-1l1 0 0 1c4,6 9,11 15,15 5,3 12,6 19,6 11,0 20,-5 27,-12 7,-6 12,-16 12,-26 0,-11 -5,-20 -12,-27 -7,-7 -16,-11 -27,-11zm-48 -46c9,0 17,1 23,3 7,3 11,6 11,9 0,3 -4,7 -11,9 -6,2 -14,3 -23,3 -9,0 -17,-1 -23,-3 -7,-2 -12,-6 -12,-9 0,-3 5,-6 12,-9 6,-2 14,-3 23,-3zm-33 23c4,2 9,4 14,5 6,1 12,2 19,2 6,0 13,-1 18,-2 6,-1 11,-3 14,-5l2 -1 0 8c0,3 -4,6 -11,9 -6,2 -14,3 -23,3 -9,0 -17,-1 -23,-3 -7,-3 -12,-6 -12,-9l0 -8 2 1zm0 18c4,2 9,4 14,5 6,1 12,2 19,2 6,0 13,-1 18,-2 6,-1 11,-3 14,-5l2 -1 0 8 0 1c-3,1 -5,2 -7,3 -2,2 -4,3 -6,5l0 0 0 0c-3,1 -7,2 -10,2 -4,1 -7,1 -11,1 -9,0 -17,-1 -23,-3 -7,-3 -12,-6 -12,-9l0 -8 2 1zm0 18c4,2 9,4 14,5 6,1 12,2 19,2 2,0 4,-1 6,-1 3,0 5,0 7,0l3 -1 -2 2c0,2 -1,3 -2,5 0,2 -1,3 -1,5l0 1 -1 0c-2,0 -3,0 -5,1 -2,0 -3,0 -5,0 -9,0 -17,-2 -23,-4 -7,-2 -12,-5 -12,-8l0 -9 2 2zm33 37c-9,0 -17,-2 -23,-4 -7,-2 -12,-6 -12,-8l0 -9 2 1c4,3 9,4 14,6 6,1 12,1 19,1 3,0 6,0 9,0l1 0 0 1c0,2 0,3 1,5 0,1 0,3 0,4l1 2 -4 0c-2,0 -5,1 -8,1zm48 20c-9,0 -17,-4 -23,-10 -5,-5 -9,-13 -9,-22 0,-9 4,-17 9,-23 6,-6 14,-10 23,-10 9,0 17,4 23,10 6,6 10,14 10,23 0,9 -4,17 -10,22 -6,6 -14,10 -23,10z"/>
   <path class="fil1" d="M238 216c0,-1 0,-1 -1,-2 -1,-1 -1,-1 -2,-1 0,0 0,0 0,0 -1,0 -2,0 -3,1l-18 19c-1,0 -1,1 -1,2 0,1 0,2 1,2 0,1 1,1 2,1 1,0 2,0 2,-1l19 -18c1,-1 1,-2 1,-3z"/>
   <path class="fil2" d="M237 216c0,0 0,0 0,-1 0,0 0,0 -1,0 0,-1 0,-1 0,-1 -1,0 -1,0 -1,0 -1,0 -1,0 -1,0 0,0 -1,0 -1,1l-19 18c0,1 0,1 0,1 0,0 0,1 0,1 0,0 0,1 0,1 0,0 0,0 0,1 1,0 1,0 1,0 0,0 1,0 1,0 0,0 1,0 1,0 0,0 0,0 1,0l18 -19c1,0 1,-1 1,-1 0,0 0,0 0,-1zm2 -1c0,0 0,1 0,1 0,1 0,1 0,2 0,0 -1,1 -1,1l-19 19c0,0 -1,1 -1,1 -1,0 -1,0 -2,0 -1,0 -1,0 -2,0 0,0 -1,-1 -1,-1 0,0 -1,-1 -1,-1 0,-1 0,-1 0,-2 0,-1 0,-1 0,-2 0,0 1,-1 1,-1l19 -19c0,0 1,0 1,-1 1,0 1,0 2,0 0,0 1,0 1,0 1,1 1,1 2,1 0,1 0,1 1,2z"/>
   <circle class="fil1" cx="217" cy="217" r="5"/>
   <path class="fil2" d="M221 217c0,-1 -1,-2 -2,-3 0,-1 -1,-1 -2,-1 -2,0 -3,0 -3,1 -1,1 -1,2 -1,3 0,1 0,2 1,3 0,0 1,1 3,1 1,0 2,-1 2,-1 1,-1 2,-2 2,-3zm0 -4c1,1 2,2 2,4 0,2 -1,3 -2,4 -1,1 -3,2 -4,2 -2,0 -4,-1 -5,-2 -1,-1 -2,-2 -2,-4 0,-2 1,-3 2,-4 1,-1 3,-2 5,-2 1,0 3,1 4,2z"/>
   <circle class="fil1" cx="234" cy="234" r="5"/>
   <path class="fil2" d="M238 234c0,-1 0,-2 -1,-3 -1,0 -2,-1 -3,-1 -1,0 -2,1 -3,1 -1,1 -1,2 -1,3 0,1 0,2 1,3 1,1 2,1 3,1 1,0 2,0 3,-1 1,-1 1,-2 1,-3zm0 -4c1,1 2,3 2,4 0,2 -1,3 -2,5 -1,1 -2,1 -4,1 -2,0 -3,0 -4,-1 -1,-2 -2,-3 -2,-5 0,-1 1,-3 2,-4 1,-1 2,-2 4,-2 2,0 3,1 4,2z"/>
  </g>
 </g>
</svg>
