<?xml version="1.0" encoding="UTF-8"?>
<!DOCTYPE svg PUBLIC "-//W3C//DTD SVG 1.1//EN" "http://www.w3.org/Graphics/SVG/1.1/DTD/svg11.dtd">
<!-- Creator: CorelDRAW X8 -->
<svg xmlns="http://www.w3.org/2000/svg" xml:space="preserve" width="210mm" height="297mm" version="1.1" style="shape-rendering:geometricPrecision; text-rendering:geometricPrecision; image-rendering:optimizeQuality; fill-rule:evenodd; clip-rule:evenodd"
viewBox="0 0 21000 29700"
 xmlns:xlink="http://www.w3.org/1999/xlink">
 <defs>
  <style type="text/css">
   <![CDATA[
    .str0 {stroke:#D2A351;stroke-width:20}
    .fil0 {fill:none}
    .fil1 {fill:#D2A351}
   ]]>
  </style>
 </defs>
 <g id="Layer_x0020_1">
  <metadata id="CorelCorpID_0Corel-Layer"/>
  <circle class="fil0 str0" cx="10503" cy="35679" r="570"/>
  <g id="_2507486078320">
   <path class="fil1" d="M10417 35612c1,-2 2,-3 3,-4 4,-2 6,-5 8,-9 2,-3 3,-6 3,-10 0,-4 -1,-8 -3,-11 -2,-3 -4,-6 -8,-8 -1,-1 -2,-3 -3,-4 -1,-2 -1,-4 0,-6 0,-1 2,-3 3,-4 1,-1 3,-1 5,-1 4,0 8,-1 12,-3 4,-2 7,-4 9,-8 2,-3 4,-6 4,-10 0,-3 0,-7 -1,-10 -1,-2 -1,-4 0,-5 0,-2 1,-4 3,-5 1,-1 3,-1 4,-1 2,0 4,0 5,1 4,3 8,4 12,5 4,1 8,0 12,-1 4,-1 7,-3 9,-6 3,-3 5,-6 6,-9 1,-2 2,-4 3,-5 1,-1 3,-1 5,-1 2,0 3,0 5,1 1,1 2,3 3,5 1,3 3,6 5,9 3,3 6,5 10,6 4,1 8,2 12,1 4,-1 8,-2 12,-5 1,-1 3,-1 5,-1 1,0 3,0 4,1 2,1 3,3 3,5 1,1 1,3 0,5 -1,3 -2,7 -1,10 0,4 2,7 4,10 2,4 5,6 9,8 3,2 7,3 11,3l1 0c2,0 4,0 5,1 1,1 3,3 3,4 1,2 1,4 0,6 -1,1 -2,3 -3,4 -4,2 -6,5 -8,8 -2,3 -3,7 -3,11 0,4 1,7 3,10 2,4 4,7 8,9 1,1 2,2 3,4 1,1 1,3 0,5 0,2 -2,3 -3,4 -1,1 -3,2 -5,2 -4,0 -8,1 -12,2 -4,2 -7,5 -9,8 -2,3 -4,7 -4,10 -1,4 0,7 1,11 1,1 1,3 0,5 0,2 -1,3 -3,4 -1,1 -3,2 -4,2 -2,0 -4,-1 -5,-2 -4,-2 -8,-4 -12,-4 -4,-1 -8,-1 -12,1 -4,1 -7,3 -10,6 -2,2 -4,5 -5,9 -1,2 -2,3 -3,4 -2,1 -3,2 -5,2 -2,0 -4,-1 -5,-2 -1,-1 -2,-2 -3,-4 -1,-4 -3,-7 -6,-9 -2,-3 -5,-5 -9,-6 -4,-2 -8,-2 -13,-1 -4,0 -7,2 -11,4 -1,1 -3,2 -5,2 -1,0 -3,-1 -4,-2 -2,-1 -3,-2 -3,-4 -1,-2 -1,-4 0,-5 1,-4 1,-7 1,-11 0,-3 -2,-7 -4,-10 -2,-3 -5,-6 -9,-8 -4,-1 -8,-2 -12,-2 -2,0 -4,-1 -5,-2 -2,-1 -3,-2 -3,-4 -1,-2 -1,-4 0,-5zm119 5c-7,8 -17,12 -28,12 -11,0 -21,-4 -29,-12 -7,-7 -11,-17 -11,-28 0,-11 4,-22 11,-29 8,-7 18,-12 29,-12 11,0 21,5 28,12 8,7 12,18 12,29 0,11 -4,21 -12,28zm-10 -47c-4,-4 -11,-7 -18,-7 -7,0 -14,3 -18,7 -5,5 -8,12 -8,19 0,7 3,14 8,18 4,5 11,8 18,8 7,0 14,-3 18,-8 5,-4 8,-11 8,-18 0,-7 -3,-14 -8,-19zm-77 -6c-2,2 -5,3 -8,4 2,3 3,5 4,8 1,4 2,8 2,13 0,4 -1,9 -2,13 -1,3 -2,5 -4,7 3,1 6,3 8,5 4,2 8,6 10,10 3,3 5,7 6,11 1,3 1,5 2,8l2 -1c2,0 5,0 7,0 3,0 5,0 7,0 2,1 5,1 7,2 4,1 8,4 12,6 2,2 4,4 6,6 2,-2 4,-4 6,-6 4,-2 8,-5 12,-6 5,-2 9,-2 14,-2 3,0 6,0 9,1 1,-3 1,-5 2,-8 1,-4 3,-8 5,-11 3,-4 7,-8 11,-10 2,-2 5,-4 8,-5 -2,-2 -3,-4 -4,-7 -1,-4 -2,-9 -2,-13 0,-5 1,-9 2,-13 1,-3 2,-5 4,-8 -3,-1 -6,-2 -8,-4 -4,-3 -8,-6 -11,-10 -2,-4 -4,-8 -5,-12 -1,-2 -1,-5 -2,-7 -3,0 -6,1 -9,1 -5,0 -9,-1 -14,-2 -4,-2 -8,-4 -12,-7 -2,-1 -4,-3 -6,-5 -2,2 -4,4 -6,5 -4,3 -8,5 -12,7 -5,1 -10,2 -14,2 -3,0 -6,-1 -9,-1 -1,2 -1,5 -2,7 -1,4 -3,8 -6,12 -2,4 -6,7 -10,10z"/>
   <path class="fil1" d="M10327 35665c69,3 164,32 226,62 41,-13 93,-25 136,-27 5,0 9,4 9,9 1,4 -3,9 -8,9 -39,1 -88,13 -125,23 -86,26 -168,70 -233,134 -1,2 -3,3 -6,3 -2,0 -4,-1 -6,-3 -3,-3 -3,-9 0,-12 18,-18 37,-35 57,-49 -17,-6 -35,-12 -53,-16 -5,-1 -7,-6 -6,-11 1,-5 6,-8 10,-6 23,5 45,12 67,20 9,-6 17,-11 26,-17 -31,-11 -64,-20 -96,-26 -5,-1 -8,-6 -7,-11 1,-5 5,-8 10,-7 39,8 77,19 113,33 10,-5 20,-10 31,-15 -47,-19 -97,-32 -147,-39 -5,0 -8,-5 -7,-10 0,-5 5,-8 9,-7 57,8 114,23 167,46 11,-5 23,-9 34,-13 -58,-26 -140,-49 -202,-52 -5,0 -9,-4 -9,-9 1,-5 5,-9 10,-9zm371 157c0,2 0,5 -1,6 -1,2 -3,4 -5,4 -22,6 -43,12 -64,20 -21,7 -41,15 -60,25l-1 0 -2 1c-2,0 -3,-1 -5,-2 -1,0 -2,-2 -3,-3 -1,-2 -1,-5 0,-7 0,-2 2,-3 4,-4 20,-10 40,-19 61,-26 22,-8 43,-15 66,-20 2,-1 4,0 6,1 2,1 3,3 4,5zm-222 55c-1,0 -1,0 -2,0 -2,0 -3,0 -4,-1 -1,0 -2,-1 -3,-3 -1,-2 -2,-4 -1,-6 0,-2 1,-4 3,-5 35,-23 70,-40 103,-53 44,-17 84,-27 116,-34 2,0 5,1 6,2 2,1 3,3 4,5l0 0c0,2 0,5 -1,6 -2,2 -4,4 -6,4 -31,6 -70,16 -113,33 -32,13 -66,29 -100,51 0,0 -1,1 -2,1zm50 -96c65,-27 124,-39 162,-44 3,0 5,0 7,2 1,1 3,3 3,5l0 0c0,2 0,5 -2,6 -1,2 -3,3 -5,4 -38,5 -95,17 -158,43 -43,18 -89,43 -132,78 -1,1 -2,1 -3,2 -1,0 -2,0 -2,0 -2,0 -3,0 -4,-1 -1,0 -2,-1 -3,-2l0 0c-1,-2 -2,-4 -2,-6 0,-2 1,-4 3,-5l0 -1c45,-36 92,-62 136,-81z"/>
  </g>
 </g>
</svg>
