<?xml version="1.0" encoding="UTF-8"?>
<!DOCTYPE svg PUBLIC "-//W3C//DTD SVG 1.1//EN" "http://www.w3.org/Graphics/SVG/1.1/DTD/svg11.dtd">
<!-- Creator: CorelDRAW X8 -->
<svg xmlns="http://www.w3.org/2000/svg" xml:space="preserve" width="142px" height="142px" version="1.1" style="shape-rendering:geometricPrecision; text-rendering:geometricPrecision; image-rendering:optimizeQuality; fill-rule:evenodd; clip-rule:evenodd"
viewBox="0 0 400 400"
 xmlns:xlink="http://www.w3.org/1999/xlink">
 <defs>
  <style type="text/css">
   <![CDATA[
    .str0 {stroke:#D2A351;stroke-width:6.66667}
    .fil0 {fill:none}
    .fil1 {fill:#D2A351;fill-rule:nonzero}
   ]]>
  </style>
 </defs>
 <g id="Layer_x0020_1">
  <metadata id="CorelCorpID_0Corel-Layer"/>
  <circle class="circle-delete fil0 str0" cx="1730" cy="6889" r="190"/>
  <g id="_2058151486032">
   <path class="fil1" d="M1792 6848l-40 -5 0 -9c0,-1 -1,-2 -2,-2l-60 0c-1,-4 -5,-6 -9,-6 -4,0 -8,2 -9,6l-3 0c-1,0 -2,1 -2,2l0 116c0,2 1,3 2,3l81 0c1,0 2,-1 2,-3l0 -3 26 4c0,0 0,0 0,0 2,0 2,-1 3,-2l13 -99c0,-1 -1,-2 -2,-2zm-3 4l0 0 -1 9 -10 10 -26 -4 0 -20 37 5zm-108 -22l0 0c2,0 3,1 4,2l-8 0c1,-1 2,-2 4,-2zm67 118l0 0 -77 0 0 -112 16 0c0,0 0,0 0,0l0 20c0,2 -1,4 -3,4 -2,0 -4,-2 -4,-4l0 -2c0,0 0,0 0,0l0 -9c0,-1 1,-2 1,-2 0,0 1,1 1,2l0 9 4 0 0 -9c0,-3 -2,-6 -5,-6 -3,0 -5,3 -5,6l0 5c0,0 0,0 0,0l0 6c0,4 3,8 8,8 4,0 7,-4 7,-8l0 -20c0,0 0,0 0,0l57 0 0 112zm29 -2l0 0 -25 -3 0 -72 26 4c0,0 0,0 0,0 1,0 1,0 2,-1l7 -6 -10 78z"/>
   <polygon class="fil1" points="1733,6845 1743,6845 1743,6849 1733,6849 "/>
   <polygon class="fil1" points="1724,6853 1743,6853 1743,6857 1724,6857 "/>
   <polygon class="fil1" points="1675,6872 1743,6872 1743,6876 1675,6876 "/>
   <polygon class="fil1" points="1675,6881 1743,6881 1743,6885 1675,6885 "/>
   <polygon class="fil1" points="1675,6889 1743,6889 1743,6893 1675,6893 "/>
   <polygon class="fil1" points="1675,6898 1705,6898 1705,6902 1675,6902 "/>
   <polygon class="fil1" points="1714,6926 1741,6926 1741,6930 1714,6930 "/>
   <path class="fil1" d="M1719 6920c-1,-1 -1,-3 -2,-4 0,-1 0,-2 1,-3 0,0 1,0 1,0 1,0 1,1 1,1 1,1 1,2 1,3 0,0 0,1 0,1 0,1 0,2 1,3 0,1 1,2 3,2 0,0 0,0 0,-1 2,0 3,-1 3,-2 0,-1 0,-2 1,-2 0,-1 0,-2 0,-3 0,0 1,1 1,1 0,1 0,1 0,2 0,2 2,3 4,4l0 0c1,-1 2,-1 2,-1l4 -3 -2 -3 -4 2 0 0c0,0 0,0 0,0 0,0 0,-1 0,-1 0,-1 0,-2 -1,-2 0,-2 -2,-4 -4,-4 -1,1 -2,1 -3,2 0,1 -1,2 -1,3 0,0 0,-1 0,-2 -1,-2 -2,-4 -4,-4 -3,-1 -5,0 -7,2 -1,2 -1,4 -1,6 1,2 2,4 3,5l3 -2z"/>
  </g>
  <circle class="fil0 str0" cx="200" cy="200" r="190"/>
  <path class="fil1" d="M236 178c0,-1 1,-1 1,-2 0,0 0,-1 0,-2l0 -1 23 0c1,0 1,0 2,-1 1,0 1,-1 1,-2 0,-1 0,-2 -1,-2 -1,-1 -1,-1 -2,-1l-25 0 -1 -1c0,0 0,-1 -1,-1 0,0 0,-1 -1,-1l0 0 0 -1c0,-2 -1,-3 -1,-5 -1,-2 -1,-4 -2,-5l-1 -2 32 0c1,0 1,0 2,-1 1,-1 1,-2 1,-3 0,0 0,-1 -1,-2 -1,-1 -1,-1 -2,-1l-40 0 0 0c-2,-1 -4,-2 -7,-3 -2,0 -5,0 -7,0 -3,0 -5,0 -8,0 -2,1 -4,2 -6,3l0 0 -48 0 0 -4c0,-1 0,-2 -1,-2 -1,-1 -2,-1 -2,-1l-1 0c-1,0 -1,0 -2,1 -1,0 -1,1 -1,2l0 113c0,0 0,1 1,2 1,1 1,1 2,1l1 0c0,0 1,0 2,-1 1,-1 1,-2 1,-2l0 -12 12 0 0 7c0,1 0,2 1,3 1,0 1,1 2,1l12 0 0 8c0,1 0,2 0,2 1,1 2,2 3,2l64 0c1,0 2,-1 2,-2 1,0 1,-1 1,-2l0 -8 11 0c1,0 2,-1 3,-1 0,-1 1,-2 1,-3l0 -7 4 0c1,0 1,0 2,-1 1,-1 1,-2 1,-2 0,-1 0,-2 -1,-3 -1,-1 -1,-1 -2,-1l-4 0 0 -1c0,-3 -1,-5 -2,-7 -1,-2 -3,-4 -5,-6l-1 -2 12 0c1,0 1,0 2,-1 1,0 1,-1 1,-2 0,-1 0,-2 -1,-2 -1,-1 -1,-1 -2,-1 -7,0 -18,-1 -24,0l-1 -1c-2,0 -4,-1 -5,-2 -3,-1 -5,-1 -6,-2l-1 0 0 0c-2,0 -3,-2 -3,-4 0,-1 0,-3 0,-3l0 0 0 -1 0 0c1,-1 1,-1 1,-1 1,-1 1,-1 1,-2l1 0 37 0c1,0 1,0 2,-1 1,-1 1,-2 1,-2 0,-1 0,-2 -1,-3 -1,-1 -1,-1 -2,-1l-36 0 5 -2c2,-1 3,-2 5,-4 1,-1 2,-3 2,-5zm-11 -13l0 1c0,1 0,2 1,3 1,0 1,1 2,1l0 0c1,0 1,0 1,1 0,0 1,0 1,0 0,1 0,2 0,3 0,0 0,1 0,2 -1,1 -1,2 -2,3 0,1 -1,2 -2,2l0 0 0 0c-1,-1 -2,-1 -3,0 0,0 -1,1 -1,2 -2,4 -4,8 -7,12 -3,2 -6,4 -9,4 -4,0 -7,-2 -9,-4 -3,-4 -6,-8 -7,-12 0,-1 -1,-2 -1,-2 -1,0 -2,-1 -2,-1 -1,0 -1,0 -1,1l0 0 0 0c-1,0 -2,-1 -3,-2 0,-1 -1,-2 -1,-3 0,-1 0,-2 0,-2 0,-1 0,-2 0,-3 0,0 0,0 0,0 1,-1 1,-1 1,-1l1 0c0,0 1,-1 2,-1 0,-1 1,-2 1,-3l0 -1c0,-6 2,-10 5,-13 4,-3 9,-5 14,-5 5,0 10,2 14,5 3,3 5,7 5,13l0 0zm-6 49c-1,2 -3,4 -5,6 -3,1 -6,2 -8,2 -3,0 -6,-1 -8,-2 -2,-2 -4,-4 -5,-6l0 -1 0 0c2,-1 2,-2 3,-3 1,-2 2,-3 2,-4l0 -2 1 1c1,0 2,1 4,1 1,0 2,0 3,0 1,0 2,0 3,0 1,0 2,-1 3,-1l1 -1 1 2c0,1 1,2 1,4 1,1 2,2 3,3l1 0 0 1zm-43 -2l-32 0 0 -16 45 0 0 0c1,1 1,1 1,2 1,0 1,0 1,1l1 0 0 1 0 0c0,0 0,3 -1,5 0,1 -1,2 -2,2l-1 0 0 0c-1,1 -3,1 -6,2 -2,1 -4,2 -6,2l0 1 0 0zm-1 -38c0,1 0,2 0,2 0,1 0,1 0,2 1,2 2,4 3,5 1,2 3,3 5,4l5 2 -44 0 0 -16 31 0 0 1zm8 -21c-1,1 -2,3 -2,5 -1,2 -1,3 -1,5l0 1 -1 0c0,0 0,1 -1,1 0,0 0,1 -1,1l0 1 -33 0 0 -16 40 0 -1 2zm-38 65l19 0 -2 2c-2,2 -3,4 -4,6 -1,2 -2,4 -2,7l0 1 -12 0 0 -16 1 0zm88 39l-56 0 0 -16 57 0 0 16 -1 0zm15 -12l-7 0 0 -7c0,-1 0,-2 -1,-3 0,-1 -1,-1 -2,-1l-64 0c-1,0 -2,0 -3,1 0,1 0,2 0,3l0 7 -8 0 0 -12c0,-3 2,-6 6,-9 4,-4 11,-7 16,-8l1 -1 0 1c2,4 5,7 8,9 4,3 8,4 12,4 4,0 8,-1 12,-4 3,-2 6,-5 7,-9l1 -1 1 1c5,1 11,4 16,8 3,3 6,6 6,9l0 12 -1 0z"/>
 </g>
</svg>
