<?xml version="1.0" encoding="UTF-8"?>
<!DOCTYPE svg PUBLIC "-//W3C//DTD SVG 1.1//EN" "http://www.w3.org/Graphics/SVG/1.1/DTD/svg11.dtd">
<!-- Creator: CorelDRAW X8 -->
<svg xmlns="http://www.w3.org/2000/svg" xml:space="preserve" width="142px" height="142px" version="1.1" style="shape-rendering:geometricPrecision; text-rendering:geometricPrecision; image-rendering:optimizeQuality; fill-rule:evenodd; clip-rule:evenodd"
viewBox="0 0 142 142"
 xmlns:xlink="http://www.w3.org/1999/xlink">
 <defs>
  <style type="text/css">
   <![CDATA[
    .str0 {stroke:#D2A351;stroke-width:2.36667}
    .fil0 {fill:none}
    .fil1 {fill:#D2A351;fill-rule:nonzero}
   ]]>
  </style>
 </defs>
 <g id="Layer_x0020_1">
  <metadata id="CorelCorpID_0Corel-Layer"/>
  <circle class="circle-delete fil0 str0" cx="71" cy="71" r="67"/>
  <g id="_2816624458896">
   <path class="fil1" d="M55 62c4,0 7,-3 7,-7 0,-4 -3,-7 -7,-7 -4,0 -7,3 -7,7 0,4 3,7 7,7zm3 -2l0 0c-2,1 -4,1 -6,0l0 -2c0,-1 1,-1 2,-1 0,0 0,0 0,0 0,0 0,-1 0,-1 0,0 0,0 0,-1 0,0 0,0 0,-1 0,0 0,-1 1,-1 1,0 2,0 2,1 0,1 0,1 -1,1 0,1 0,1 0,2 1,0 1,0 1,0 1,0 1,0 1,1l0 2zm-3 -10l0 0c3,0 5,2 5,5 0,1 0,2 0,3 0,-1 -1,-2 -2,-3 0,0 0,-1 0,-1 0,-2 -2,-3 -3,-2 -2,0 -3,1 -3,2 0,1 0,1 0,1 0,1 0,1 0,1 -1,1 -1,1 -1,2 -2,-3 -1,-6 1,-7 1,-1 2,-1 3,-1z"/>
   <path class="fil1" d="M87 48c-4,0 -7,3 -7,7 0,4 3,7 7,7 4,0 7,-3 7,-7 0,-4 -3,-7 -7,-7zm3 12l0 0c-2,1 -4,1 -6,0l0 -2c0,-1 0,-1 1,-1 0,0 0,0 0,0 1,0 1,-1 1,-1 0,0 0,0 0,-1 -1,0 -1,0 -1,-1 0,0 1,-1 2,-1 0,0 1,0 1,1 0,1 0,1 0,1 0,1 0,1 0,2 0,0 0,0 0,0 1,0 2,0 2,1l0 2zm1 -2l0 0c0,-1 0,-2 -1,-3 0,0 0,-1 0,-1 -1,-2 -2,-3 -4,-2 -1,0 -2,1 -2,2 0,1 0,1 0,1 0,1 -1,1 -1,1 0,1 -1,1 -1,2 -1,-3 0,-6 2,-7 3,-2 6,-1 7,1 1,2 1,4 0,6z"/>
   <path class="fil1" d="M71 69c0,0 -1,0 -1,0l-1 0c0,1 0,2 1,2l0 1 2 0 0 -1c1,0 1,-1 1,-2 0,-2 -1,-2 -2,-2 -1,-1 -1,-1 -1,-1 0,-1 1,-1 1,-1 0,0 1,0 1,1l1 0c0,-1 0,-2 -1,-2l0 -1 -2 0 0 1c-1,0 -1,1 -1,2 0,1 1,2 2,2 1,0 1,0 1,1 0,0 -1,0 -1,0z"/>
   <polygon class="fil1" points="70,56 72,56 72,58 70,58 "/>
   <polygon class="fil1" points="80,66 82,66 82,68 80,68 "/>
   <polygon class="fil1" points="60,66 62,66 62,68 60,68 "/>
   <polygon class="fil1" points="62,60 64,59 65,60 64,61 "/>
   <polygon class="fil1" points="77,60 78,59 80,60 78,61 "/>
   <path class="fil1" d="M94 93l0 -17c0,-1 -1,-1 -1,-1 0,0 0,0 0,0l-9 0 0 -4c0,0 -1,-1 -1,-1 0,0 0,0 0,0l-5 0c2,-4 0,-8 -4,-10 -4,-1 -8,0 -10,4 -1,2 -1,4 0,6l-5 0c0,0 -1,1 -1,1 0,0 0,0 0,0l0 4 -8 0c0,0 -1,0 -1,1 0,0 0,0 0,0l0 17c0,0 1,1 1,1 0,0 0,0 0,0l43 0c0,0 1,-1 1,-1 0,0 0,0 0,0zm-36 -1l0 0 -7 0 0 -16 7 0 0 16zm13 -31l0 0c3,0 6,3 6,6 0,4 -3,6 -6,6 -3,0 -6,-2 -6,-6 0,-3 3,-6 6,-6zm2 31l0 0 -4 0 0 -5c0,-1 1,-2 2,-2 1,0 2,1 2,2l0 5zm9 0l0 0 -8 0 0 -5c0,-2 -1,-3 -3,-3 -2,0 -3,1 -3,3l0 5 -8 0 0 -20 5 0c2,3 7,4 10,1 1,0 2,-1 2,-1l5 0 0 20zm10 0l0 0 -8 0 0 -16 8 0 0 16z"/>
   <path class="fil1" d="M66 76l-3 0c-1,0 -1,1 -1,1 0,0 0,0 0,0l0 3c0,0 0,1 1,1 0,0 0,0 0,0l3 0c0,0 0,-1 0,-1 0,0 0,0 0,0l0 -3c0,0 0,-1 0,-1 0,0 0,0 0,0zm-1 3l0 0 -2 0 0 -1 2 0 0 1z"/>
   <path class="fil1" d="M53 91l3 0c0,0 1,-1 1,-1 0,0 0,0 0,0l0 -11c0,-1 -1,-1 -1,-1 0,0 0,0 0,0l-3 0c0,0 -1,0 -1,1 0,0 0,0 0,0l0 11c0,0 1,1 1,1 0,0 0,0 0,0zm1 -12l0 0 1 0 0 10 -1 0 0 -10z"/>
   <path class="fil1" d="M87 91l3 0c0,0 1,-1 1,-1 0,0 0,0 0,0l0 -11c0,-1 -1,-1 -1,-1 0,0 0,0 0,0l-3 0c-1,0 -1,0 -1,1 0,0 0,0 0,0l0 11c0,0 0,1 1,1 0,0 0,0 0,0zm1 -12l0 0 1 0 0 10 -1 0 0 -10z"/>
   <path class="fil1" d="M73 76l-4 0c0,0 0,1 0,1 0,0 0,0 0,0l0 3c0,0 0,1 0,1 0,0 0,0 0,0l4 0c0,0 0,-1 0,-1 0,0 0,0 0,0l0 -3c0,0 0,-1 0,-1 0,0 0,0 0,0zm-1 3l0 0 -2 0 0 -1 2 0 0 1z"/>
   <path class="fil1" d="M79 84l-3 0c0,0 0,0 0,1 0,0 0,0 0,0l0 3c0,0 0,0 0,0 0,0 0,0 0,0l3 0c1,0 1,0 1,0 0,0 0,0 0,0l0 -3c0,-1 0,-1 -1,-1 0,0 0,0 0,0zm0 3l0 0 -2 0 0 -2 2 0 0 2z"/>
   <path class="fil1" d="M66 84l-3 0c-1,0 -1,0 -1,1 0,0 0,0 0,0l0 3c0,0 0,0 1,0 0,0 0,0 0,0l3 0c0,0 0,0 0,0 0,0 0,0 0,0l0 -3c0,-1 0,-1 0,-1 0,0 0,0 0,0zm-1 3l0 0 -2 0 0 -2 2 0 0 2z"/>
   <path class="fil1" d="M76 77l0 3c0,0 0,1 0,1 0,0 0,0 0,0l3 0c1,0 1,-1 1,-1 0,0 0,0 0,0l0 -3c0,0 0,-1 -1,-1 0,0 0,0 0,0l-3 0c0,0 0,1 0,1 0,0 0,0 0,0zm1 1l0 0 2 0 0 1 -2 0 0 -1z"/>
  </g>
 </g>
</svg>
