<?xml version="1.0" encoding="UTF-8"?>
<!DOCTYPE svg PUBLIC "-//W3C//DTD SVG 1.1//EN" "http://www.w3.org/Graphics/SVG/1.1/DTD/svg11.dtd">
<!-- Creator: CorelDRAW X8 -->
<svg xmlns="http://www.w3.org/2000/svg" xml:space="preserve" width="142px" height="142px" version="1.1" style="shape-rendering:geometricPrecision; text-rendering:geometricPrecision; image-rendering:optimizeQuality; fill-rule:evenodd; clip-rule:evenodd"
viewBox="0 0 500 500"
 xmlns:xlink="http://www.w3.org/1999/xlink">
 <defs>
  <style type="text/css">
   <![CDATA[
    .str0 {stroke:#D2A351;stroke-width:8.33333}
    .fil0 {fill:none}
    .fil1 {fill:#D2A351}
   ]]>
  </style>
 </defs>
 <g id="Layer_x0020_1">
  <metadata id="CorelCorpID_0Corel-Layer"/>
  <circle class="circle-delete fil0 str0" cx="250" cy="250" r="238"/>
  <g id="_2059424680192">
   <path class="fil1" d="M212 219c0,-1 1,-2 1,-2 2,-1 3,-2 4,-4 0,-1 1,-2 1,-4 0,-2 -1,-3 -1,-4 -1,-2 -2,-3 -4,-4 0,0 -1,-1 -1,-2 0,0 0,-1 0,-2 0,-1 1,-1 1,-2 1,0 2,0 2,0 2,0 4,-1 5,-1 2,-1 3,-2 4,-4 1,-1 2,-2 2,-4 0,-1 0,-3 -1,-4 0,-1 0,-2 0,-2 0,-1 1,-2 1,-2 1,0 2,-1 3,-1 0,0 1,1 2,1 1,1 3,2 4,2 2,0 4,0 5,-1 2,0 3,-1 4,-2 1,-1 2,-2 3,-4 0,-1 0,-1 1,-2 1,0 1,0 2,0 1,0 1,0 2,0 1,1 1,1 1,2 1,2 2,3 3,4 1,1 2,2 4,2 1,1 3,1 5,1 1,0 3,-1 4,-2 1,0 2,-1 2,-1 1,0 2,1 3,1 0,0 1,1 1,2 0,0 0,1 0,2 -1,1 -1,3 -1,4 0,2 1,3 2,4 1,2 2,3 3,4 2,0 4,1 5,1l1 0c0,0 1,0 2,0 0,1 1,1 1,2 0,1 0,2 0,2 0,1 -1,2 -1,2 -2,1 -3,2 -4,4 0,1 -1,2 -1,4 0,2 1,3 1,4 1,2 2,3 4,4 0,0 1,1 1,2 0,0 0,1 0,2 0,1 -1,1 -1,2 -1,0 -2,0 -2,0 -2,0 -4,1 -5,1 -2,1 -3,2 -4,4 -1,1 -2,2 -2,4 0,1 0,3 1,4 0,1 0,2 0,2 0,1 -1,2 -1,2 -1,0 -2,1 -3,1 0,0 -1,-1 -2,-1 -1,-1 -3,-2 -4,-2 -2,0 -4,0 -5,1 -2,0 -3,1 -4,2 -1,1 -2,2 -3,4 0,1 0,1 -1,2 -1,0 -1,0 -2,0 -1,0 -1,0 -2,0 -1,-1 -1,-1 -1,-2 -1,-2 -2,-3 -3,-4 -1,-1 -2,-2 -4,-2 -1,-1 -3,-1 -5,-1 -1,0 -3,1 -4,2 -1,0 -2,1 -2,1 -1,0 -2,-1 -3,-1 0,0 -1,-1 -1,-2 0,0 0,-1 0,-2 1,-1 1,-3 1,-4 0,-2 -1,-3 -2,-4 -1,-2 -2,-3 -4,-4 -1,0 -3,-1 -5,-1 0,0 -1,0 -2,0 0,-1 -1,-1 -1,-2 0,-1 0,-2 0,-2zm50 2c-3,3 -7,5 -12,5 -5,0 -9,-2 -12,-5 -3,-3 -5,-7 -5,-12 0,-5 2,-9 5,-12 3,-3 7,-5 12,-5 5,0 9,2 12,5 3,3 5,7 5,12 0,5 -2,9 -5,12zm-4 -20c-2,-2 -5,-3 -8,-3 -3,0 -6,1 -8,3 -2,2 -3,5 -3,8 0,3 1,6 3,8 2,2 5,3 8,3 3,0 6,-1 8,-3 2,-2 3,-5 3,-8 0,-3 -1,-6 -3,-8zm-32 -2c-1,0 -3,1 -4,1 1,1 1,2 2,3 0,2 1,4 1,6 0,2 -1,4 -1,5 -1,2 -1,3 -2,4 1,0 3,1 4,1 1,1 3,3 4,5 1,1 2,3 2,4 0,1 1,3 1,4l1 -1c1,0 2,0 3,0 1,0 2,0 3,0 1,0 2,1 2,1 2,1 4,1 5,3 1,0 2,1 3,2 1,-1 2,-2 3,-2 1,-2 3,-2 5,-3 1,-1 3,-1 5,-1 2,0 3,0 4,1 0,-1 1,-3 1,-4 0,-1 1,-3 2,-4 1,-2 3,-4 4,-5 2,0 3,-1 4,-1 -1,-1 -1,-2 -2,-4 0,-1 -1,-3 -1,-5 0,-2 1,-4 1,-6 1,-1 1,-2 2,-3 -1,0 -2,-1 -4,-1 -1,-1 -3,-3 -4,-5 -1,-1 -2,-3 -2,-4 0,-1 -1,-3 -1,-4 -1,1 -2,1 -4,1 -2,0 -4,0 -5,-1 -2,-1 -4,-2 -5,-3 -1,0 -2,-1 -3,-2 -1,1 -2,2 -3,2 -1,1 -3,2 -5,3 -1,1 -3,1 -5,1 -2,0 -3,0 -4,-1 0,1 -1,3 -1,4 0,1 -1,3 -2,4 -1,2 -3,4 -4,5z"/>
   <path class="fil1" d="M174 241c30,1 69,13 95,26 17,-6 38,-11 57,-12 2,0 3,2 3,4 0,2 -1,4 -3,4 -16,0 -37,5 -52,10 -36,10 -70,28 -97,55 -1,1 -2,1 -3,1 -1,0 -2,0 -2,-1 -2,-1 -2,-3 0,-5 7,-7 15,-14 24,-20 -8,-3 -15,-5 -23,-7 -2,0 -3,-2 -2,-4 0,-2 2,-4 4,-3 10,2 19,5 28,8 4,-2 7,-4 11,-6 -13,-5 -27,-9 -40,-12 -2,0 -4,-2 -3,-4 0,-2 2,-3 4,-3 16,3 32,8 47,14 4,-2 9,-5 13,-7 -20,-7 -40,-13 -61,-16 -2,0 -4,-2 -3,-4 0,-2 2,-3 4,-3 23,3 47,10 69,19 5,-2 10,-3 14,-5 -24,-11 -58,-21 -84,-22 -2,0 -3,-2 -3,-4 0,-2 1,-3 3,-3zm155 65c0,1 0,2 0,3 -1,1 -2,1 -2,1 -10,3 -18,5 -27,8 -9,4 -17,7 -25,11l-1 0 0 0c-1,0 -2,0 -2,0 -1,-1 -1,-1 -2,-2 0,0 0,-1 0,-2 1,-1 1,-2 2,-2 8,-4 17,-8 26,-11 9,-3 18,-6 27,-8 1,-1 2,0 3,0 0,0 1,1 1,2zm-92 23c-1,0 -1,0 -1,0 -1,0 -1,0 -2,0 0,0 -1,-1 -1,-1 -1,-1 -1,-2 -1,-3 1,-1 1,-2 2,-2 14,-10 29,-17 43,-22 18,-7 35,-12 48,-14 1,0 2,0 3,0 0,1 1,2 1,2l0 1c0,1 0,1 0,2 -1,1 -2,2 -3,2 -13,2 -29,6 -47,13 -13,6 -27,13 -41,22 -1,0 -1,0 -1,0zm21 -40c26,-11 51,-16 67,-18 1,0 2,0 3,0 1,1 1,2 1,3l0 0c0,1 0,2 -1,2 0,1 -1,2 -2,2 -15,2 -39,7 -66,18 -18,7 -37,18 -55,32 0,1 0,1 -1,1 0,0 0,0 -1,0 0,0 -1,0 -1,0 -1,0 -1,-1 -1,-1l-1 0c0,-1 0,-2 0,-3 0,-1 0,-1 1,-2l0 0c18,-15 38,-26 57,-34z"/>
  </g>
 </g>
</svg>
