<?xml version="1.0" encoding="UTF-8"?>
<!DOCTYPE svg PUBLIC "-//W3C//DTD SVG 1.1//EN" "http://www.w3.org/Graphics/SVG/1.1/DTD/svg11.dtd">
<!-- Creator: CorelDRAW X8 -->
<svg xmlns="http://www.w3.org/2000/svg" xml:space="preserve" width="142px" height="142px" version="1.1" style="shape-rendering:geometricPrecision; text-rendering:geometricPrecision; image-rendering:optimizeQuality; fill-rule:evenodd; clip-rule:evenodd"
viewBox="0 0 300 300"
 xmlns:xlink="http://www.w3.org/1999/xlink">
 <defs>
  <style type="text/css">
   <![CDATA[
    .str0 {stroke:#D2A351;stroke-width:5}
    .fil0 {fill:none}
    .fil1 {fill:#D2A351}
   ]]>
  </style>
 </defs>
 <g id="Layer_x0020_1">
  <metadata id="CorelCorpID_0Corel-Layer"/>
  <circle class="circle-delete fil0 str0" cx="150" cy="150" r="143"/>
  <path class="fil1" d="M197 176c0,0 0,-1 0,-1l-14 -29c2,-1 4,-3 4,-6 0,-2 -1,-3 -3,-3 -1,0 -3,1 -3,3 0,1 -1,2 -2,2 -2,0 -3,-1 -3,-2 0,-2 -1,-3 -2,-3l-16 -4c-1,-3 -3,-5 -5,-6l0 -5 4 -4c1,-1 1,-2 1,-3l-6 -11c-1,-2 -3,-2 -4,0l-6 11c0,1 0,2 1,3l4 4 0 5c-1,0 -3,2 -4,3l-16 -3c-2,-1 -3,0 -3,2 0,1 -1,3 -3,3 -1,0 -3,-2 -3,-3 0,-1 -1,-3 -2,-3 -2,0 -3,2 -3,3 0,3 2,6 4,7l-14 29c0,0 0,2 0,2 5,6 11,9 18,9 7,0 14,-3 18,-9 1,0 1,-2 0,-2l-14 -29c1,-1 3,-2 3,-4l14 3c0,3 3,6 5,7l0 42 -5 0c-1,0 -1,0 -2,1l-8 8c0,1 -1,2 0,3 0,1 1,1 2,1l32 0c1,0 2,0 2,-1 1,-1 0,-2 0,-3l-8 -8c-1,-1 -1,-1 -2,-1l-5 0 0 -42c1,-1 3,-2 4,-4l14 4c1,2 2,4 4,4l-14 29c-1,1 -1,2 0,3 4,6 11,9 18,9 7,0 13,-3 18,-9 0,-1 0,-2 0,-2 0,0 0,0 0,0 0,0 0,0 0,0zm-76 -5c-3,0 -6,-1 -9,-3l18 0c-3,2 -6,3 -9,3zm12 -8l-23 0 11 -23 12 23zm17 -52l2 4 -2 2 -2 -2 2 -4zm7 78l2 3 -18 0 2 -3 14 0zm-7 -52c-2,0 -3,-1 -3,-3 0,-1 1,-2 3,-2 1,0 3,1 3,2 0,2 -2,3 -3,3zm29 45c-3,0 -7,-1 -9,-3l18 0c-3,2 -6,3 -9,3zm-12 -8l12 -23 11 23 -23 0z"/>
 </g>
</svg>
