<?xml version="1.0" encoding="UTF-8"?>
<!DOCTYPE svg PUBLIC "-//W3C//DTD SVG 1.1//EN" "http://www.w3.org/Graphics/SVG/1.1/DTD/svg11.dtd">
<!-- Creator: CorelDRAW X8 -->
<svg xmlns="http://www.w3.org/2000/svg" xml:space="preserve" width="142px" height="142px" version="1.1" style="shape-rendering:geometricPrecision; text-rendering:geometricPrecision; image-rendering:optimizeQuality; fill-rule:evenodd; clip-rule:evenodd"
viewBox="0 0 400 400"
 xmlns:xlink="http://www.w3.org/1999/xlink">
 <defs>
  <style type="text/css">
   <![CDATA[
    .str0 {stroke:#D2A351;stroke-width:6.66667}
    .fil0 {fill:none}
    .fil2 {fill:#D2A351}
    .fil3 {fill:#FEFEFE;fill-rule:nonzero}
    .fil1 {fill:#D2A351;fill-rule:nonzero}
   ]]>
  </style>
 </defs>
 <g id="Layer_x0020_1">
  <metadata id="CorelCorpID_0Corel-Layer"/>
  <circle class="circle-delete fil0 str0" cx="1730" cy="6889" r="190"/>
  <g id="_2058151500272">
   <path class="fil1" d="M1792 6848l-40 -5 0 -9c0,-1 -1,-2 -2,-2l-60 0c-1,-4 -5,-6 -9,-6 -4,0 -8,2 -9,6l-3 0c-1,0 -2,1 -2,2l0 116c0,2 1,3 2,3l81 0c1,0 2,-1 2,-3l0 -3 26 4c0,0 0,0 0,0 2,0 2,-1 3,-2l13 -99c0,-1 -1,-2 -2,-2zm-3 4l0 0 -1 9 -10 10 -26 -4 0 -20 37 5zm-108 -22l0 0c2,0 3,1 4,2l-8 0c1,-1 2,-2 4,-2zm67 118l0 0 -77 0 0 -112 16 0c0,0 0,0 0,0l0 20c0,2 -1,4 -3,4 -2,0 -4,-2 -4,-4l0 -2c0,0 0,0 0,0l0 -9c0,-1 1,-2 1,-2 0,0 1,1 1,2l0 9 4 0 0 -9c0,-3 -2,-6 -5,-6 -3,0 -5,3 -5,6l0 5c0,0 0,0 0,0l0 6c0,4 3,8 8,8 4,0 7,-4 7,-8l0 -20c0,0 0,0 0,0l57 0 0 112zm29 -2l0 0 -25 -3 0 -72 26 4c0,0 0,0 0,0 1,0 1,0 2,-1l7 -6 -10 78z"/>
   <polygon class="fil1" points="1733,6845 1743,6845 1743,6849 1733,6849 "/>
   <polygon class="fil1" points="1724,6853 1743,6853 1743,6857 1724,6857 "/>
   <polygon class="fil1" points="1675,6872 1743,6872 1743,6876 1675,6876 "/>
   <polygon class="fil1" points="1675,6881 1743,6881 1743,6885 1675,6885 "/>
   <polygon class="fil1" points="1675,6889 1743,6889 1743,6893 1675,6893 "/>
   <polygon class="fil1" points="1675,6898 1705,6898 1705,6902 1675,6902 "/>
   <polygon class="fil1" points="1714,6926 1741,6926 1741,6930 1714,6930 "/>
   <path class="fil1" d="M1719 6920c-1,-1 -1,-3 -2,-4 0,-1 0,-2 1,-3 0,0 1,0 1,0 1,0 1,1 1,1 1,1 1,2 1,3 0,0 0,1 0,1 0,1 0,2 1,3 0,1 1,2 3,2 0,0 0,0 0,-1 2,0 3,-1 3,-2 0,-1 0,-2 1,-2 0,-1 0,-2 0,-3 0,0 1,1 1,1 0,1 0,1 0,2 0,2 2,3 4,4l0 0c1,-1 2,-1 2,-1l4 -3 -2 -3 -4 2 0 0c0,0 0,0 0,0 0,0 0,-1 0,-1 0,-1 0,-2 -1,-2 0,-2 -2,-4 -4,-4 -1,1 -2,1 -3,2 0,1 -1,2 -1,3 0,0 0,-1 0,-2 -1,-2 -2,-4 -4,-4 -3,-1 -5,0 -7,2 -1,2 -1,4 -1,6 1,2 2,4 3,5l3 -2z"/>
  </g>
  <circle class="fil0 str0" cx="-1328" cy="8817" r="190"/>
  <path class="fil1" d="M-1298 8794c0,0 0,-1 1,-1 0,-1 0,-1 0,-2l0 -1 22 0c1,0 2,0 3,-1 0,-1 1,-1 1,-2 0,-1 -1,-2 -1,-3 -1,-1 -2,-1 -3,-1l-24 0 -1 0c0,-1 0,-1 -1,-1 0,-1 0,-1 -1,-1l0 -1 0 0c0,-2 -1,-4 -1,-6 -1,-2 -1,-3 -2,-5l-1 -1 31 0c1,0 2,-1 3,-1 0,-1 1,-2 1,-3 0,-1 -1,-2 -1,-2 -1,-1 -2,-1 -3,-1l-39 0 0 -1c-2,-1 -5,-1 -7,-2 -2,-1 -5,-1 -7,-1 -3,0 -5,0 -8,1 -2,1 -4,1 -6,2l0 1 -48 0 0 -4c0,-1 -1,-2 -1,-3 -1,-1 -2,-1 -3,-1l0 0c-1,0 -2,0 -2,1 -1,1 -1,2 -1,3l0 112c0,1 0,2 1,3 0,0 1,1 2,1l0 0c1,0 2,-1 3,-1 0,-1 1,-2 1,-3l0 -11 12 0 0 7c0,1 0,2 1,2 0,1 1,1 2,1l11 0 0 9c0,1 1,1 1,2 1,1 2,1 3,1l64 0c1,0 1,0 2,-1 1,-1 1,-1 1,-2l0 -9 11 0c1,0 2,0 3,-1 0,0 1,-1 1,-2l0 -7 3 0c1,0 2,-1 3,-1 0,-1 1,-2 1,-3 0,-1 -1,-2 -1,-2 -1,-1 -2,-1 -3,-1l-3 0 0 -1c0,-3 -1,-5 -2,-7 -1,-2 -3,-4 -5,-6l-2 -2 12 0c1,0 2,0 3,-1 0,-1 1,-1 1,-2 0,-1 -1,-2 -1,-3 -1,-1 -2,-1 -3,-1 -6,0 -17,-1 -24,0l0 0c-2,-1 -4,-2 -6,-2 -2,-1 -5,-2 -5,-2l-1 0 0 0c-2,-1 -3,-2 -3,-4 0,-2 0,-3 0,-3l0 -1 0 0 0 -1c1,0 1,0 1,-1 0,0 1,-1 1,-1l0 0 37 0c1,0 2,-1 3,-1 0,-1 1,-2 1,-3 0,-1 -1,-2 -1,-2 -1,-1 -2,-1 -3,-1l-35 0 5 -2c2,-1 3,-2 4,-4 2,-2 3,-4 3,-6zm-11 -13l0 2c0,1 0,2 1,2 0,1 1,1 2,1l0 0c0,1 1,1 1,1 0,0 0,1 1,1 0,1 0,1 0,2 0,1 0,2 0,2 -1,2 -1,3 -2,3 -1,2 -2,2 -2,2l0 0 0 0c-1,0 -2,0 -3,0 0,1 -1,1 -1,2 -2,4 -4,9 -7,12 -3,3 -6,5 -9,5 -4,0 -7,-2 -9,-5 -3,-3 -6,-8 -7,-12 -1,0 -1,-1 -2,-1 0,-1 -1,-1 -1,-1 -1,0 -1,0 -1,0l0 0 0 0c-1,0 -2,0 -3,-2 0,0 -1,-1 -1,-3 0,0 -1,-1 0,-2 0,-1 0,-1 0,-2 0,0 0,-1 0,-1 1,0 1,0 1,-1l0 0c1,0 2,0 3,-1 0,0 0,-1 0,-2l0 -2c0,-5 2,-9 6,-12 3,-3 9,-5 14,-5 5,0 10,2 14,5 3,3 5,7 5,12l0 0zm-6 50c-1,2 -3,4 -6,5 -2,2 -5,3 -7,3 -3,0 -6,-1 -8,-3 -2,-1 -4,-3 -5,-5l-1 -1 1 -1c1,0 2,-1 3,-3 1,-1 2,-2 2,-4l0 -1 1 0c1,1 2,1 3,1 1,0 3,1 4,1 1,0 2,-1 3,-1 1,0 2,0 3,-1l1 0 1 1c0,2 0,3 1,4 1,2 2,3 3,3l1 1 0 1zm-43 -3l-32 0 0 -15 45 0 0 0c1,0 1,1 1,1 1,1 1,1 1,1l1 1 -1 0 1 1c0,0 0,2 -1,4 0,2 -1,2 -2,3l-1 0 0 0c-1,0 -3,1 -6,2 -2,0 -4,1 -6,2l0 0 0 0zm-1 -37c0,1 0,1 0,2 0,0 0,1 0,1 1,2 2,4 3,6 1,2 3,3 5,4l5 2 -44 0 0 -16 31 0 0 1zm8 -22c-1,2 -2,3 -2,5 -1,2 -1,4 -1,6l0 0 -1 1c0,0 -1,0 -1,1 0,0 -1,0 -1,1l0 0 -33 0 0 -15 40 0 -1 1zm-38 66l19 0 -2 2c-2,2 -3,4 -4,6 -1,2 -2,4 -2,7l0 1 -12 0 0 -16 1 0zm88 38l-56 0 0 -15 57 0 0 15 -1 0zm15 -12l-7 0 0 -7c0,-1 0,-2 -1,-2 -1,-1 -1,-1 -2,-1l-64 0c-1,0 -2,0 -3,1 0,0 -1,1 -1,2l0 7 -7 0 0 -11c0,-4 2,-7 6,-10 4,-3 11,-6 16,-8l1 0 0 1c2,4 4,7 8,9 3,2 8,4 12,4 4,0 8,-2 12,-4 3,-2 6,-5 7,-9l0 -1 1 0c6,2 12,5 17,8 3,3 6,6 6,10l0 11 -1 0z"/>
  <circle class="fil0 str0" cx="201" cy="9071" r="190"/>
  <path class="fil2" d="M201 9007c-7,0 -13,2 -18,6 -5,4 -8,10 -9,16l0 1 -33 0c-1,0 -2,1 -2,1 -1,1 -2,2 -2,3l0 48c0,1 1,2 2,3 0,0 1,1 2,1l3 0 0 45c0,1 1,1 1,2 1,1 2,1 3,1l106 0c1,0 2,0 3,-1 0,-1 1,-1 1,-2l0 -45 3 0c1,0 2,-1 2,-1 1,-1 1,-2 1,-3l0 -48c0,-1 0,-2 -1,-3 0,0 -1,-1 -2,-1l-33 0 0 -1c-1,-6 -4,-12 -9,-16 -5,-4 -11,-6 -18,-6zm0 120l-49 0 0 -41 12 0 0 5c0,1 1,2 1,2 1,1 2,2 3,2l18 0c1,0 2,-1 3,-2 0,0 1,-1 1,-2l0 -5 22 0 0 5c0,1 1,2 1,2 1,1 2,2 3,2l18 0c1,0 2,-1 3,-2 0,0 1,-1 1,-2l0 -5 12 0 0 41 -49 0zm0 -48l-11 0 0 -6c0,-1 -1,-1 -1,-2 -1,-1 -2,-1 -3,-1l-18 0c-1,0 -2,0 -3,1 0,1 -1,1 -1,2l0 6 -19 0 0 -42 112 0 0 42 -19 0 0 -6c0,-1 -1,-1 -1,-2 -1,-1 -2,-1 -3,-1l-18 0c-1,0 -2,0 -3,1 0,1 -1,1 -1,2l0 6 -11 0zm0 -49l-20 0 0 -1c1,-5 4,-8 8,-11 3,-3 7,-4 12,-4 5,0 9,1 12,4 4,3 7,6 8,11l0 1 -20 0zm20 47l10 0 0 11 -11 0 0 -11 1 0zm-48 0l9 0 0 11 -11 0 0 -11 2 0z"/>
  <circle class="fil0 str0" cx="1730" cy="8817" r="190"/>
  <g id="_2058151492784">
   <path class="fil2" d="M1756 8804c-1,0 -2,0 -3,0 -2,1 -3,1 -4,1l-1 0 0 -34c0,-6 -5,-10 -11,-13 -8,-3 -19,-5 -30,-5 -10,0 -21,2 -29,5 -7,3 -11,8 -11,13l0 71c0,5 4,9 11,12 7,4 18,6 29,6 2,0 5,0 7,-1 2,0 4,0 7,0l0 0 1 0c3,7 8,12 14,16 6,3 13,5 20,5 10,0 20,-4 27,-11 7,-7 11,-16 11,-27 0,-10 -4,-20 -11,-27 -7,-7 -17,-11 -27,-11zm-49 -45c9,0 17,1 23,3 8,2 12,6 12,9 0,3 -4,6 -12,9 -6,1 -14,3 -23,3 -9,0 -17,-2 -22,-3 -8,-3 -12,-6 -12,-9 0,-3 4,-7 12,-9 5,-2 13,-3 22,-3zm-32 22c3,3 8,4 14,6 5,1 12,2 18,2 7,0 13,-1 19,-2 5,-2 10,-3 14,-6l2 -1 0 9c0,2 -4,6 -12,8 -6,2 -14,4 -23,4 -9,0 -17,-2 -22,-4 -8,-2 -12,-6 -12,-8l0 -9 2 1zm0 18c3,3 8,4 14,6 5,1 12,1 18,1 7,0 13,0 19,-1 5,-2 10,-3 14,-6l2 -1 0 9 -1 0c-2,1 -5,2 -7,4 -2,1 -4,3 -5,5l0 0 -1 0c-3,1 -6,1 -10,2 -3,0 -7,1 -11,1 -9,0 -17,-2 -22,-4 -8,-2 -12,-6 -12,-9l0 -8 2 1zm0 18c3,2 8,4 14,5 5,2 12,2 18,2 2,0 5,0 7,0 2,0 4,-1 7,-1l2 0 -1 2c-1,1 -2,3 -2,5 -1,1 -1,3 -2,5l0 0 -1 1c-1,0 -3,0 -4,0 -2,0 -4,0 -6,0 -9,0 -17,-1 -22,-3 -8,-2 -12,-6 -12,-9l0 -8 2 1zm32 37c-9,0 -17,-1 -22,-3 -8,-3 -12,-6 -12,-9l0 -8 2 1c3,2 8,4 14,5 5,1 12,2 18,2 3,0 6,0 9,-1l2 0 0 2c0,1 0,3 0,4 0,2 1,3 1,5l0 1 -3 1c-3,0 -6,0 -9,0zm49 20c-9,0 -17,-3 -23,-9 -6,-6 -10,-14 -10,-23 0,-9 4,-17 10,-23 6,-5 14,-9 23,-9 9,0 17,4 23,9 6,6 9,14 9,23 0,9 -3,17 -9,23 -6,6 -14,9 -23,9z"/>
   <path class="fil2" d="M1768 8833c0,-1 0,-2 -1,-2 0,-1 -1,-1 -2,-1 0,0 0,0 0,0 -1,0 -1,0 -2,1l-19 18c-1,1 -1,2 -1,3 0,0 0,1 1,2 1,0 2,1 2,1 1,0 2,-1 3,-1l19 -19c0,-1 0,-1 0,-2z"/>
   <path class="fil3" d="M1767 8833c0,0 0,-1 0,-1 0,0 0,0 0,-1 0,0 -1,0 -1,0 0,0 -1,0 -1,0 0,0 0,0 -1,0 0,0 0,0 0,0l-19 19c0,0 -1,1 -1,1 0,0 0,0 0,1 0,0 0,0 0,0 0,1 1,1 1,1 0,0 0,1 1,1 0,0 0,0 0,0 1,0 1,0 1,0 0,0 1,-1 1,-1l19 -19c0,0 0,0 0,0 0,-1 0,-1 0,-1zm2 -2c0,1 0,1 0,2 0,0 0,1 0,1 0,1 0,1 -1,2l-19 19c0,0 0,0 -1,1 0,0 -1,0 -2,0 0,0 -1,0 -1,0 -1,-1 -1,-1 -2,-1 0,-1 0,-1 -1,-2 0,0 0,-1 0,-1 0,-1 0,-2 0,-2 1,-1 1,-1 1,-1l19 -19c1,-1 1,-1 2,-1 0,0 1,0 1,0 1,0 1,0 2,0 0,0 1,0 1,1 1,0 1,1 1,1z"/>
   <circle class="fil2" cx="1747" cy="8833" r="5"/>
   <path class="fil3" d="M1751 8833c0,-1 0,-2 -1,-2 -1,-1 -2,-2 -3,-2 -1,0 -2,1 -3,2 -1,0 -1,1 -1,2 0,2 0,3 1,3 1,1 2,2 3,2 1,0 2,-1 3,-2 1,0 1,-1 1,-3zm0 -4c1,1 2,3 2,4 0,2 -1,4 -2,5 -1,1 -2,2 -4,2 -2,0 -3,-1 -4,-2 -1,-1 -2,-3 -2,-5 0,-1 1,-3 2,-4 1,-1 2,-2 4,-2 2,0 3,1 4,2z"/>
   <circle class="fil2" cx="1765" cy="8851" r="5"/>
   <path class="fil3" d="M1769 8851c0,-1 -1,-2 -2,-3 0,-1 -1,-1 -2,-1 -2,0 -3,0 -3,1 -1,1 -2,2 -2,3 0,1 1,2 2,3 0,0 1,1 3,1 1,0 2,-1 2,-1 1,-1 2,-2 2,-3zm0 -4c1,1 2,2 2,4 0,2 -1,3 -2,4 -1,1 -3,2 -4,2 -2,0 -4,-1 -5,-2 -1,-1 -2,-2 -2,-4 0,-2 1,-3 2,-4 1,-2 3,-2 5,-2 1,0 3,0 4,2z"/>
  </g>
  <circle class="fil0 str0" cx="-1328" cy="10748" r="190"/>
  <g id="_2058151488080">
   <path class="fil1" d="M-1373 10722c11,0 19,-8 19,-19 0,-10 -8,-19 -19,-19 -10,0 -19,9 -19,19 0,11 9,19 19,19zm9 -6l0 0c-6,3 -12,3 -17,0l0 -5c0,-2 1,-3 3,-3 0,0 0,0 0,0 2,0 2,-1 2,-2 0,-1 0,-1 0,-2 -1,-1 -1,-2 -1,-3 0,-2 2,-4 4,-4 2,0 4,1 4,3 1,2 0,3 -1,4 -1,1 -1,2 0,3 1,0 1,1 2,1 2,0 4,1 4,3l0 5zm-9 -27l0 0c8,0 15,6 15,14 0,3 -1,6 -2,8 0,-3 -2,-6 -5,-7 1,-1 1,-3 0,-4 -1,-5 -5,-8 -10,-7 -4,1 -6,4 -6,8 0,1 0,2 0,3 -1,1 -2,1 -2,2 -2,1 -3,3 -3,5 -4,-7 -2,-16 5,-20 3,-2 5,-2 8,-2z"/>
   <path class="fil1" d="M-1284 10684c-11,0 -19,9 -19,19 0,11 8,19 19,19 10,0 19,-8 19,-19 0,-10 -9,-19 -19,-19zm8 32l0 0c-5,3 -11,3 -16,0l0 -5c-1,-2 1,-3 3,-3 0,0 0,0 0,0 1,0 2,-1 2,-2 0,-1 0,-1 0,-2 -1,-1 -1,-2 -1,-3 0,-2 2,-4 4,-4 2,0 4,1 4,3 0,2 0,3 -1,4 -1,1 -1,2 0,3 1,0 1,1 2,1 2,0 3,1 3,3l0 5zm5 -5l0 0c0,-3 -2,-6 -5,-7 0,-1 1,-3 0,-4 -1,-5 -5,-8 -10,-7 -4,1 -6,4 -6,8 0,1 0,2 0,3 -1,1 -2,1 -2,2 -2,1 -3,3 -3,5 -4,-7 -2,-16 5,-20 7,-5 16,-2 21,5 3,4 3,10 0,15z"/>
   <path class="fil1" d="M-1328 10744c-2,0 -3,-1 -3,-2l-4 0c0,2 2,5 4,5l0 3 5 0 0 -3c2,0 4,-3 4,-5 0,-5 -4,-6 -6,-7 -2,0 -3,-1 -3,-2 0,-1 1,-2 3,-2 1,0 2,1 2,2l4 0c0,-3 -2,-5 -4,-6l0 -2 -5 0 0 2c-2,1 -4,3 -4,6 0,5 4,6 6,6 2,1 3,1 3,3 0,1 -1,2 -2,2z"/>
   <polygon class="fil1" points="-1331,10706 -1326,10706 -1326,10712 -1331,10712 "/>
   <polygon class="fil1" points="-1303,10735 -1297,10735 -1297,10739 -1303,10739 "/>
   <polygon class="fil1" points="-1360,10735 -1354,10735 -1354,10739 -1360,10739 "/>
   <polygon class="fil1" points="-1352,10716 -1349,10713 -1345,10718 -1348,10721 "/>
   <polygon class="fil1" points="-1312,10718 -1308,10713 -1305,10716 -1309,10721 "/>
   <path class="fil1" d="M-1265 10809l0 -48c0,-2 -1,-3 -2,-3 0,0 0,0 0,0l-25 0 0 -10c0,-1 -1,-2 -3,-2 0,0 0,0 0,0l-14 0c5,-11 0,-23 -11,-28 -11,-5 -23,0 -28,11 -2,5 -2,11 0,17l-14 0c-2,0 -2,1 -2,2 0,0 0,0 0,0l0 10 -24 0c-1,0 -2,1 -2,3 0,0 0,0 0,0l0 48c0,1 1,2 2,2 0,0 0,0 0,0l121 0c1,0 2,-1 2,-2 0,0 0,0 0,0zm-99 -2l0 0 -22 0 0 -44 22 0 0 44zm36 -87l0 0c9,0 16,8 16,17 0,10 -7,17 -16,17 -10,0 -17,-7 -17,-17 0,-9 7,-17 17,-17zm4 87l0 0 -9 0 0 -15c0,-2 2,-4 5,-4 2,0 4,2 4,4l0 15zm27 0l0 0 -23 0 0 -15c0,-4 -4,-8 -8,-8 -5,0 -9,4 -9,8l0 15 -23 0 0 -57 15 0c7,9 20,11 29,4 2,-1 3,-2 4,-4l15 0 0 57zm28 0l0 0 -23 0 0 -44 23 0 0 44z"/>
   <path class="fil1" d="M-1343 10763l-9 0c-1,0 -2,1 -2,2 0,0 0,0 0,0l0 8c0,1 1,2 2,2 0,0 0,0 0,0l9 0c1,0 2,-1 2,-2 0,0 0,0 0,0l0 -8c0,-1 -1,-2 -2,-2 0,0 0,0 0,0zm-2 8l0 0 -5 0 0 -4 5 0 0 4z"/>
   <path class="fil1" d="M-1379 10803l8 0c1,0 2,-1 2,-2 0,0 0,0 0,0l0 -32c0,-1 -1,-2 -2,-2 0,0 0,0 0,0l-8 0c-1,0 -2,1 -2,2 0,0 0,0 0,0l0 32c0,1 1,2 2,2 0,0 0,0 0,0zm2 -32l0 0 4 0 0 28 -4 0 0 -28z"/>
   <path class="fil1" d="M-1284 10803l8 0c2,0 3,-1 3,-2 0,0 0,0 0,0l0 -32c0,-1 -1,-2 -3,-2 0,0 0,0 0,0l-8 0c-1,0 -2,1 -2,2 0,0 0,0 0,0l0 32c0,1 1,2 2,2 0,0 0,0 0,0zm2 -32l0 0 4 0 0 28 -4 0 0 -28z"/>
   <path class="fil1" d="M-1324 10763l-9 0c-1,0 -2,1 -2,2 0,0 0,0 0,0l0 8c0,1 1,2 2,2 0,0 0,0 0,0l9 0c1,0 2,-1 2,-2 0,0 0,0 0,0l0 -8c0,-1 -1,-2 -2,-2 0,0 0,0 0,0zm-2 8l0 0 -5 0 0 -4 5 0 0 4z"/>
   <path class="fil1" d="M-1305 10784l-9 0c-1,0 -2,1 -2,2 0,0 0,0 0,0l0 8c0,2 1,3 2,3 0,0 0,0 0,0l9 0c1,0 2,-1 2,-3 0,0 0,0 0,0l0 -8c0,-1 -1,-2 -2,-2 0,0 0,0 0,0zm-2 8l0 0 -5 0 0 -4 5 0 0 4z"/>
   <path class="fil1" d="M-1343 10784l-9 0c-1,0 -2,1 -2,2 0,0 0,0 0,0l0 8c0,2 1,3 2,3 0,0 0,0 0,0l9 0c1,0 2,-1 2,-3 0,0 0,0 0,0l0 -8c0,-1 -1,-2 -2,-2 0,0 0,0 0,0zm-2 8l0 0 -5 0 0 -4 5 0 0 4z"/>
   <path class="fil1" d="M-1316 10765l0 8c0,1 1,2 2,2 0,0 0,0 0,0l9 0c1,0 2,-1 2,-2 0,0 0,0 0,0l0 -8c0,-1 -1,-2 -2,-2 0,0 0,0 0,0l-9 0c-1,0 -2,1 -2,2 0,0 0,0 0,0zm4 2l0 0 5 0 0 4 -5 0 0 -4z"/>
  </g>
  <circle class="fil0 str0" cx="200" cy="200" r="190"/>
  <path class="fil1" d="M154 179c-1,0 -1,0 -1,0 -1,-1 -2,-1 -2,-1 -1,-1 -2,-1 -2,-2l0 0c0,-1 -1,-1 -1,-2 0,-1 0,-2 0,-2 0,-1 0,-1 0,-1 0,-1 0,-1 -1,-1 0,0 0,-1 0,-1 0,0 0,0 0,-1 -1,0 -1,-1 -1,-2 -1,0 -1,-1 -1,-2l0 0c0,-1 0,-2 1,-2 0,-1 0,-2 1,-2 0,-1 0,-1 0,-1 0,0 0,-1 0,-1 1,0 1,0 1,-1 0,0 0,0 0,-1 0,0 0,-1 0,-2 0,-1 1,-1 1,-2l0 0c0,-1 1,-1 2,-1 0,-1 1,-1 2,-2 0,0 0,0 1,0 0,0 0,0 0,0 1,0 1,-1 1,-1 0,0 0,0 1,-1 0,0 1,-1 1,-1 1,-1 1,-1 2,-1l0 0c1,-1 2,-1 2,-1 1,0 2,1 3,1 0,0 0,0 1,0 0,0 0,0 0,0 1,0 1,0 1,0 1,0 1,0 1,0 1,0 2,-1 2,-1 1,0 2,0 3,1l0 0c0,0 1,0 2,1 0,0 1,1 1,1 0,1 1,1 1,1 0,0 0,1 1,1 0,0 0,0 0,0 1,0 1,0 1,0 1,1 2,1 2,2 1,0 1,0 2,1l0 0c0,1 1,1 1,2 0,1 0,2 0,2 0,1 0,1 0,1 0,1 0,1 0,1 1,0 1,1 1,1 0,0 0,0 0,1 1,0 1,1 1,2 1,0 1,1 1,2l0 0c0,1 0,2 -1,2 0,1 0,2 -1,2 0,1 0,1 0,1 0,0 0,1 -1,1 0,0 0,0 0,1 0,0 0,0 0,1 0,0 0,1 0,2 0,1 -1,1 -1,2l0 0c-1,1 -1,1 -2,2 0,0 -1,0 -2,1 0,0 0,0 -1,0 0,0 0,0 0,0 -1,1 -1,1 -1,1 0,0 -1,0 -1,1 0,0 -1,1 -1,1 -1,1 -2,1 -2,1l0 0c-1,0 -1,1 -1,1 0,0 -1,0 -1,0 -1,0 -1,0 -1,-1 -1,0 -1,0 -2,0 0,0 0,0 -1,0 0,0 0,0 -1,0 0,0 0,0 0,0 -1,0 -1,0 -1,0 -1,0 -2,1 -3,1 0,0 -1,0 -2,-1l0 0c-1,0 -1,0 -2,-1 0,0 -1,-1 -1,-1 -1,-1 -1,-1 -1,-1 0,0 0,0 -1,-1 0,0 0,0 0,0zm92 -36l1 0 0 1 -1 0 0 -1 0 0zm7 2l9 7c1,0 1,1 1,2 1,1 0,3 0,4l-40 57c-1,0 -1,1 -1,1 -1,1 -1,1 -2,1 0,0 0,0 0,0l0 0 -28 33c-1,0 -2,1 -3,1 -1,0 -2,0 -3,-1l0 0 -5 1c0,0 0,0 -1,0 0,0 0,0 -1,-1l-1 -1 0 1c0,2 0,4 -1,5 -2,1 -3,2 -5,2 -2,0 -3,-1 -4,-2 -1,-1 -2,-3 -2,-5l0 -21c0,0 0,-1 -1,-1 0,-1 0,-1 -1,-1 0,0 -1,0 -1,1 0,0 0,1 0,1l0 21c0,0 -1,1 -1,1 -1,1 -1,1 -2,1 0,0 -1,0 -1,-1 -1,0 -1,-1 -1,-1l0 -21c0,-2 1,-3 2,-4 1,-1 2,-2 4,-2 2,0 3,1 5,2 1,1 1,2 1,4l0 21c0,1 1,1 1,2 0,0 1,0 1,0 1,0 1,0 1,0 1,-1 1,-1 1,-2l0 -6c0,0 0,-1 0,-1 0,0 0,0 1,-1l0 0c0,0 1,0 1,0 1,0 1,0 2,0l4 4 3 0c0,0 0,0 0,-1 0,0 0,0 0,0l21 -38c0,0 0,-1 0,-1 0,-1 0,-2 1,-2l40 -58c0,-1 1,-1 3,-1 1,-1 2,0 3,0l0 0zm-44 66l-20 35 26 -31 -6 -4zm36 -47c1,1 3,2 5,3l-5 -3zm-34 42l8 6 31 -44 -8 -6 -31 44zm41 -43c-1,0 -3,-2 -4,-3l4 3zm-8 -5l9 6 6 -9 -9 -6 -6 9zm-25 100c1,-1 1,-2 1,-3l0 -31c1,-1 2,-2 2,-3l0 0c1,0 1,0 2,0 0,0 0,-1 1,-1l0 0 0 35c0,2 -1,4 -3,6 -1,2 -4,2 -6,3l-71 0c-2,-1 -4,-1 -6,-3 -2,-2 -2,-4 -2,-6l0 -110c0,-2 0,-4 2,-6 2,-2 4,-2 6,-2l71 0c2,0 5,0 6,2 2,2 3,4 3,6l0 24c-2,2 -3,5 -5,7l0 -31c0,-1 0,-2 -1,-3 -1,-1 -2,-1 -3,-1l-71 0c-1,0 -2,0 -3,1 -1,1 -1,2 -1,3l0 110c0,1 0,2 1,3 1,1 2,1 3,1l71 0c1,0 2,0 3,-1zm-68 -55l51 0 0 0c-1,1 -1,1 -1,2 0,0 0,1 0,1l0 0c0,1 0,1 -1,2l-49 0c-1,0 -2,-1 -2,-1 0,0 -1,-1 -1,-2 0,0 1,-1 1,-1 0,-1 1,-1 2,-1zm0 -11l58 0c-1,2 -2,3 -3,5l-55 0c-1,0 -2,0 -2,-1 0,0 -1,-1 -1,-1 0,-1 1,-2 1,-2 0,0 1,-1 2,-1zm-2 26c0,-1 -1,-1 -1,-2 0,0 1,-1 1,-1 0,-1 1,-1 2,-1l46 0 -3 4 -43 0c-1,0 -2,0 -2,0zm25 -46c-3,2 -5,4 -9,4 -3,0 -6,-2 -8,-4 -2,-2 -3,-5 -3,-8 0,-3 1,-6 3,-8 2,-2 5,-4 8,-4 4,0 6,2 9,4 2,2 3,5 3,8 0,3 -1,6 -3,8zm-4 -13c-1,-1 -3,-2 -5,-2 -2,0 -3,1 -5,2 -1,1 -2,3 -2,5 0,2 1,4 2,5 2,1 3,2 5,2 2,0 4,-1 5,-2 2,-1 2,-3 2,-5 0,-2 0,-4 -2,-5zm-19 2c0,0 0,1 -1,1l0 0c0,0 0,1 0,1 0,0 0,1 0,1 0,0 0,1 0,1 0,0 0,1 0,1l0 0c1,0 1,1 1,1 0,1 1,1 1,1l0 0c0,1 0,1 0,2 0,0 0,1 0,1l0 0c0,1 0,1 0,1 0,1 0,1 1,1 0,1 0,1 0,1 1,0 1,0 2,0l0 0c0,1 0,1 1,1 0,0 1,0 1,1l0 0c0,0 1,0 1,1 0,0 1,0 1,1l0 0c0,0 0,0 1,0 0,1 0,1 1,1 0,0 0,0 1,0 0,0 0,0 1,0l0 0c0,0 1,0 1,0 0,0 1,-1 1,-1l0 0c1,0 1,1 2,1 0,0 1,0 1,0l0 0c1,0 1,0 1,0 1,0 1,0 1,0 1,0 1,0 1,-1 0,0 1,0 1,0l0 0c0,-1 1,-1 1,-1 0,-1 1,-1 1,-1l0 0c0,-1 1,-1 1,-1 0,0 1,0 1,-1l0 0c1,0 1,0 1,0 1,0 1,0 1,-1 0,0 0,0 1,-1 0,0 0,0 0,-1l0 0c0,0 0,-1 0,-1 0,-1 0,-1 0,-2l0 0c0,0 0,0 1,-1 0,0 0,-1 0,-1l0 0c1,0 1,-1 1,-1 0,0 0,-1 0,-1 0,0 0,-1 0,-1 0,0 0,-1 -1,-1l0 0c0,0 0,-1 0,-1 -1,-1 -1,-1 -1,-1l0 0c0,-1 0,-1 0,-2 0,0 0,-1 0,-1l0 0c0,-1 0,-1 0,-1 -1,-1 -1,-1 -1,-1 0,-1 0,-1 -1,-1 0,0 0,0 -1,0l0 0c0,-1 -1,-1 -1,-1 0,0 -1,0 -1,-1l0 0c0,0 -1,0 -1,-1 0,0 -1,0 -1,-1l0 0c0,0 -1,0 -1,0 0,-1 0,-1 -1,-1 0,0 0,0 -1,0 0,0 0,0 -1,0l0 0c0,0 -1,0 -1,0 -1,1 -1,1 -2,1l0 0c0,0 -1,0 -1,-1 0,0 -1,0 -1,0l0 0c-1,0 -1,0 -1,0 -1,0 -1,0 -1,0 -1,0 -1,0 -1,1 -1,0 -1,0 -1,0l0 0c0,1 -1,1 -1,1 0,1 -1,1 -1,1l0 0c0,1 -1,1 -1,1 -1,0 -1,0 -1,1l0 0c-1,0 -1,0 -2,0 0,0 0,0 0,1 -1,0 -1,0 -1,1 0,0 0,0 0,1l0 0c0,0 0,1 0,1 0,1 0,1 0,2l0 0c0,0 -1,0 -1,1z"/>
 </g>
</svg>
