<?xml version="1.0" encoding="UTF-8"?>
<!DOCTYPE svg PUBLIC "-//W3C//DTD SVG 1.1//EN" "http://www.w3.org/Graphics/SVG/1.1/DTD/svg11.dtd">
<!-- Creator: CorelDRAW X8 -->
<svg xmlns="http://www.w3.org/2000/svg" xml:space="preserve" width="89px" height="59px" version="1.1" style="shape-rendering:geometricPrecision; text-rendering:geometricPrecision; image-rendering:optimizeQuality; fill-rule:evenodd; clip-rule:evenodd"
viewBox="0 0 89 59"
 xmlns:xlink="http://www.w3.org/1999/xlink">
 <defs>
  <style type="text/css">
   <![CDATA[
    .fil1 {fill:#FEFEFE}
    .fil2 {fill:#FEFEFE;fill-rule:nonzero}
    .fil0 {fill:#EBECEC;fill-rule:nonzero}
   ]]>
  </style>
 </defs>
 <g id="Layer_x0020_1">
  <metadata id="CorelCorpID_0Corel-Layer"/>
  <g id="_2303294090976">
   <path class="fil0" d="M-731 5373c-3,0 -5,-1 -7,-2 -1,-2 -2,-4 -2,-7 0,-2 1,-4 2,-6 2,-2 4,-3 7,-3 2,0 4,1 6,3 2,2 3,4 3,6 0,3 -1,5 -3,7 -2,1 -4,2 -6,2zm0 -16c-2,0 -4,0 -6,2 -1,1 -2,3 -2,5 0,2 1,4 2,6 2,1 4,2 6,2 2,0 4,-1 5,-2 2,-2 2,-4 2,-6 0,-2 0,-4 -2,-5 -1,-2 -3,-2 -5,-2zm3 11c-1,1 -2,1 -3,1 -2,0 -3,0 -4,-1 -1,-1 -1,-2 -1,-4 0,-1 0,-2 1,-3 1,-1 2,-2 4,-2 1,0 2,1 3,1l0 2 0 0c-1,-1 -2,-1 -3,-1 -2,0 -3,1 -3,3 0,3 1,4 3,4 1,0 2,-1 3,-1l0 0 0 1z"/>
   <path id="1" class="fil0" d="M-569 5371l0 -15 4 0c1,0 1,0 2,0 0,0 1,0 1,0 1,0 1,0 2,1 0,0 0,0 0,1 1,0 1,1 1,1 0,2 -1,3 -2,3l0 0c1,1 2,1 2,2 1,1 1,1 1,2 0,2 -1,3 -2,4 -1,1 -2,1 -4,1l-5 0zm1 -14l0 5 3 0c2,0 2,0 3,-1 1,0 1,-1 1,-2 0,0 0,-1 -1,-1 0,0 -1,-1 -3,-1l-3 0zm0 7l0 6 3 0c2,0 3,-1 4,-1 1,-1 1,-1 1,-2 0,-1 0,-2 0,-2 -1,0 -1,-1 -1,-1 -1,0 -2,0 -3,0l-4 0z"/>
   <path id="2" class="fil0" d="M-547 5371c-2,0 -3,0 -4,0 -2,0 -3,0 -4,-1 -1,-1 -1,-3 -1,-5 0,-1 0,-3 1,-4 1,-1 3,-2 4,-2 1,0 3,1 4,1l0 2 0 0c-1,-1 -3,-1 -4,-1 -1,0 -2,0 -3,1 0,1 -1,2 -1,3 0,2 1,3 1,4 1,1 2,1 3,1 1,0 3,-1 4,-1l0 0 0 2z"/>
   <path id="3" class="fil0" d="M-543 5357l-2 0 0 -2 2 0 0 2zm0 14l-2 0 0 -11 2 0 0 11z"/>
   <polygon id="4" class="fil0" points="-523,5371 -525,5371 -525,5361 -531,5361 -531,5371 -533,5371 -533,5360 -523,5360 "/>
   <path id="5" class="fil0" d="M-518 5371l0 4 -1 0 0 -15 1 0 0 1c2,-1 3,-2 4,-2 2,0 3,1 3,2 1,1 2,2 2,4 0,2 -1,4 -2,5 -1,1 -2,1 -3,1 -2,0 -3,0 -4,0zm0 -9l0 7c1,1 2,1 3,1 1,0 2,-1 3,-1 0,-1 1,-2 1,-4 0,-3 -1,-4 -3,-4 -1,0 -3,0 -4,1z"/>
   <path id="6" class="fil0" d="M-500 5368l0 -3c-2,0 -4,1 -5,1 0,0 -1,1 -1,2 0,1 1,2 3,2 1,0 2,-1 3,-2zm0 3l0 -1c-1,1 -2,1 -2,1 -1,0 -1,1 -2,1 -1,0 -2,-1 -3,-1 0,-1 -1,-2 -1,-3 0,-1 1,-2 2,-3 1,-1 3,-1 6,-1l0 -1c0,0 0,-1 0,-1 -1,-1 -2,-1 -3,-1 -1,0 -2,0 -4,1l0 0 0 -2c2,0 3,-1 4,-1 2,0 3,1 4,1 1,1 1,2 1,3l0 8 -2 0z"/>
   <path id="7" class="fil0" d="M-495 5371l0 -11 5 0c2,0 3,0 3,0 1,1 1,1 1,2 0,1 0,2 -2,3l0 0c2,0 3,1 3,3 0,1 -1,2 -1,2 -1,1 -2,1 -4,1l-5 0zm2 -10l0 3 3 0c1,0 1,0 2,0 0,0 0,-1 0,-1 0,-1 0,-1 0,-1 -1,-1 -1,-1 -3,-1l-2 0zm0 5l0 4 2 0c2,0 3,0 3,-1 1,0 1,-1 1,-1 0,-1 0,-1 0,-1 0,-1 -1,-1 -1,-1 0,0 -1,0 -2,0l-3 0z"/>
   <path id="8" class="fil0" d="M-476 5368l0 -3c-2,0 -4,1 -4,1 -1,0 -2,1 -2,2 0,1 1,2 3,2 1,0 2,-1 3,-2zm0 3l0 -1c0,1 -1,1 -2,1 -1,0 -1,1 -2,1 -1,0 -2,-1 -2,-1 -1,-1 -1,-2 -1,-3 0,-1 0,-2 1,-3 1,-1 3,-1 6,-1l0 -1c0,0 0,-1 0,-1 -1,-1 -2,-1 -3,-1 -1,0 -2,0 -3,1l0 0 0 -2c1,0 2,-1 3,-1 2,0 3,1 4,1 1,1 1,2 1,3l0 8 -2 0z"/>
   <path id="9" class="fil0" d="M-464 5371l0 -2 0 0c1,0 2,1 4,1 1,0 2,0 2,-1 1,0 1,0 1,-1 0,-1 0,-1 -1,-2 0,0 -1,0 -2,0l-2 0 0 -2 1 0c2,0 3,0 3,0 0,0 1,-1 1,-1 0,-2 -1,-2 -3,-2 -1,0 -3,0 -4,1l0 0 0 -2c2,0 3,-1 4,-1 1,0 2,1 3,1 1,1 2,1 2,2 0,2 -1,3 -3,3l0 0c2,1 3,1 3,3 0,1 -1,2 -2,3 0,0 -2,0 -3,0 -1,0 -3,0 -4,0z"/>
   <path id="10" class="fil0" d="M-446 5368l0 -3c-2,0 -4,1 -4,1 -1,0 -2,1 -2,2 0,1 1,2 3,2 1,0 2,-1 3,-2zm0 3l0 -1c0,1 -1,1 -2,1 -1,0 -1,1 -2,1 -1,0 -2,-1 -2,-1 -1,-1 -1,-2 -1,-3 0,-1 0,-2 1,-3 1,-1 3,-1 6,-1l0 -1c0,0 0,-1 0,-1 -1,-1 -2,-1 -3,-1 -1,0 -2,0 -3,1l0 0 0 -2c1,0 2,-1 3,-1 2,0 3,1 4,1 1,1 1,2 1,3l0 8 -2 0z"/>
   <polygon id="11" class="fil0" points="-431,5371 -433,5371 -436,5367 -440,5371 -442,5371 -437,5365 -442,5360 -439,5360 -436,5364 -433,5360 -431,5360 -435,5365 "/>
   <polygon id="12" class="fil0" points="-419,5371 -421,5371 -421,5362 -427,5371 -429,5371 -429,5360 -427,5360 -427,5368 -421,5360 -419,5360 "/>
   <polygon id="13" class="fil0" points="-401,5371 -416,5371 -416,5360 -414,5360 -414,5370 -409,5370 -409,5360 -408,5360 -408,5370 -403,5370 -403,5360 -401,5360 -401,5370 -400,5370 -400,5374 -401,5374 "/>
   <path id="14" class="fil0" d="M-396 5364l6 0c0,-2 -1,-3 -3,-3 -1,0 -2,0 -2,1 -1,0 -1,1 -1,2zm4 7c-2,0 -4,0 -5,-1 -1,-1 -1,-3 -1,-4 0,-2 0,-4 1,-5 1,-1 3,-2 4,-2 2,0 3,1 4,2 1,1 1,2 1,4l0 1 -8 0c0,1 0,2 1,3 0,1 1,1 3,1 1,0 2,-1 4,-1l0 0 0 2c-2,0 -3,0 -4,0z"/>
   <polygon id="15" class="fil0" points="-376,5371 -378,5371 -378,5366 -384,5366 -384,5371 -385,5371 -385,5360 -384,5360 -384,5364 -378,5364 -378,5360 -376,5360 "/>
   <path id="16" class="fil0" d="M-368 5372c-2,0 -3,-1 -4,-2 -1,-1 -1,-3 -1,-5 0,-1 0,-3 1,-4 1,-1 2,-2 4,-2 2,0 3,1 4,2 1,1 1,3 1,4 0,2 0,4 -1,5 -1,1 -2,2 -4,2zm0 -11c-1,0 -2,0 -2,1 -1,1 -1,2 -1,3 0,2 0,3 1,4 0,1 1,1 2,1 1,0 2,0 3,-1 0,-1 1,-2 1,-4 0,-3 -2,-4 -4,-4z"/>
   <path id="17" class="fil0" d="M-700 5370c-2,1 -4,2 -5,2 -2,0 -4,-1 -6,-3 -1,-1 -2,-3 -2,-6 0,-2 1,-4 2,-5 2,-2 4,-2 6,-2 2,0 4,0 5,1l0 2 0 0c-1,-1 -3,-2 -5,-2 -2,0 -3,1 -4,2 -1,1 -2,3 -2,4 0,2 1,4 2,5 1,1 2,2 4,2 1,0 2,0 4,-1l0 -4 -4 0 0 -1 5 0 0 6z"/>
   <path id="18" class="fil0" d="M-689 5365l-2 -7 -3 7 5 0zm3 6l-2 -4 -7 0 -1 4 -2 0 5 -15 3 0 6 15 -2 0z"/>
   <path id="19" class="fil0" d="M-676 5372c-3,0 -4,-1 -6,-3 -1,-1 -1,-3 -1,-5 0,-3 0,-5 1,-6 2,-2 3,-3 6,-3 2,0 4,1 5,3 1,1 2,3 2,6 0,2 -1,4 -2,5 -1,2 -3,3 -5,3zm0 -15c-2,0 -3,1 -4,2 -1,1 -1,2 -1,5 0,2 0,3 1,4 1,1 2,2 4,2 1,0 2,-1 3,-2 1,-1 2,-2 2,-4 0,-3 -1,-4 -2,-5 -1,-1 -2,-2 -3,-2z"/>
   <path id="20" class="fil0" d="M-651 5371c-1,0 -3,0 -4,0 -1,0 -3,0 -4,-1 -1,-1 -1,-3 -1,-5 0,-1 0,-3 1,-4 1,-1 3,-2 4,-2 2,0 3,1 4,1l0 2 0 0c-1,-1 -3,-1 -4,-1 -1,0 -2,0 -2,1 -1,1 -1,2 -1,3 0,2 0,3 1,4 0,1 1,1 2,1 2,0 3,-1 4,-1l0 0 0 2z"/>
   <path id="21" class="fil0" d="M-644 5372c-2,0 -3,-1 -4,-2 -1,-1 -2,-3 -2,-5 0,-1 1,-3 2,-4 1,-1 2,-2 4,-2 1,0 3,1 4,2 1,1 1,3 1,4 0,2 0,4 -1,5 -1,1 -3,2 -4,2zm0 -11c-1,0 -2,0 -3,1 0,1 -1,2 -1,3 0,2 1,3 1,4 1,1 2,1 3,1 1,0 2,0 2,-1 1,-1 1,-2 1,-4 0,-3 -1,-4 -3,-4z"/>
   <path id="22" class="fil0" d="M-621 5371l0 -6c0,-2 -1,-2 -1,-3 0,0 0,0 0,-1 -1,0 -1,0 -2,0 -1,0 -2,1 -3,2 0,0 0,0 0,1l0 7 -2 0 0 -6c0,-2 0,-2 0,-3 0,0 -1,0 -1,-1 0,0 -1,0 -1,0 -1,0 -2,1 -4,2l0 8 -1 0 0 -11 1 0 0 1c2,-1 3,-2 4,-2 2,0 3,1 4,2 1,-1 2,-2 4,-2 2,0 3,2 3,5l0 7 -1 0z"/>
   <polygon id="23" class="fil0" points="-613,5371 -615,5371 -615,5368 -613,5368 "/>
   <path id="24" class="fil0" d="M-599 5371l-2 0 0 -1c-2,1 -3,2 -4,2 -1,0 -2,-1 -3,-2 -1,0 -1,-1 -1,-3l0 -7 2 0 0 6c0,2 0,3 0,3 1,1 1,1 2,1 1,0 3,-1 4,-2l0 -8 2 0 0 11z"/>
   <path id="25" class="fil0" d="M-589 5368l0 -3c-3,0 -4,1 -5,1 -1,0 -1,1 -1,2 0,1 1,2 3,2 1,0 2,-1 3,-2zm0 3l0 -1c-1,1 -2,1 -2,1 -1,0 -2,1 -2,1 -1,0 -2,-1 -3,-1 -1,-1 -1,-2 -1,-3 0,-1 1,-2 2,-3 1,-1 3,-1 6,-1l0 -1c0,0 0,-1 -1,-1 0,-1 -1,-1 -2,-1 -1,0 -2,0 -4,1l0 0 0 -2c1,0 3,-1 4,-1 2,0 3,1 4,1 0,1 1,2 1,3l0 8 -2 0z"/>
   <polygon id="26" class="fil0" points="-664,5371 -666,5371 -666,5368 -664,5368 "/>
   <g>
    <g>
     <polygon class="fil1" points="841,5369 838,5374 847,5374 843,5366 "/>
     <polygon class="fil1" points="833,5351 829,5358 829,5358 830,5355 834,5365 833,5366 837,5359 "/>
     <path class="fil1" d="M814 5351l-4 7 2 -3 3 10 0 1 4 -7 -5 -8zm-4 7l5 8 0 0 -5 -8z"/>
     <polygon class="fil1" points="795,5349 790,5349 787,5349 782,5341 782,5341 787,5349 790,5349 782,5341 790,5341 "/>
     <path class="fil1" d="M782 5341l14 25 -4 8 -15 -25 5 -8zm9 22l1 2 1 0 -1 1 0 1 -1 -1 -1 1 0 -1 -1 -1 2 0 0 -2zm-2 -4l0 2 2 0 -1 1 0 1 -1 -1 -1 1 0 -1 -1 -1 1 0 1 -2zm-2 -4l0 2 2 0 -2 0 1 2 -1 -1 -2 1 1 -2 -1 0 1 0 1 -2zm-3 -4l1 1 1 0 -1 1 0 2 -1 -1 -1 1 0 -2 -1 -1 2 0 0 -1zm-2 -4l0 1 2 0 -1 1 0 2 -1 -1 -1 1 0 -2 -1 -1 1 0 1 -1z"/>
     <polygon class="fil1" points="781,5374 773,5374 777,5367 "/>
     <polygon class="fil1" points="801,5341 815,5366 810,5374 791,5341 "/>
     <polygon class="fil1" points="819,5341 833,5366 829,5374 810,5341 "/>
     <path class="fil1" d="M791 5372l1 2 0 0 -1 -2zm1 2l-10 0 -4 -8 6 0 7 8 1 0z"/>
     <polygon class="fil1" points="838,5341 843,5349 838,5358 829,5341 "/>
    </g>
    <path class="fil2" d="M772 5388l0 -7 2 0 1 5c0,1 0,1 1,1 0,0 0,0 0,-1l2 -5 1 0 0 7 -1 0 0 -5 -2 5 -1 0 -2 -6 0 6 -1 0z"/>
    <path id="1" class="fil2" d="M783 5388c0,0 0,0 0,0 -1,0 -1,0 -1,0 -1,0 -1,0 -2,0 0,0 0,-1 0,-1 0,0 0,0 0,-1 0,0 0,0 0,0 1,0 1,0 1,0 0,0 1,0 1,-1 1,0 1,0 1,0 0,0 0,0 0,0 0,0 0,-1 0,-1 0,0 0,0 -1,0 0,0 -1,0 -1,0 0,0 0,1 0,1l-1 0c0,-1 0,-1 0,-1 1,0 1,0 1,-1 0,0 1,0 1,0 1,0 1,0 1,0 1,0 1,1 1,1 0,0 0,0 0,0 0,1 0,1 0,1l0 1c0,1 0,2 0,2 0,0 0,0 1,0l-1 0c0,0 -1,0 -1,0zm0 -2c0,0 0,0 -1,0 0,0 -1,0 -1,0 0,0 0,1 0,1 0,0 0,0 0,0 0,0 0,0 0,1 0,0 0,0 1,0 0,0 0,0 1,0 0,-1 0,-1 0,-1 0,0 0,0 0,-1l0 0z"/>
    <polygon id="2" class="fil2" points="786,5388 786,5381 786,5381 786,5385 788,5383 790,5383 788,5385 790,5388 789,5388 787,5386 786,5386 786,5388 "/>
    <path id="3" class="fil2" d="M794 5387l1 0c0,0 -1,1 -1,1 0,0 -1,0 -1,0 -1,0 -2,0 -2,0 -1,-1 -1,-1 -1,-2 0,-1 0,-2 1,-2 0,-1 1,-1 1,-1 1,0 2,0 2,1 1,0 1,1 1,2 0,0 0,0 0,0l-4 0c0,1 0,1 0,1 1,1 1,1 2,1 0,0 0,0 0,0 1,-1 1,-1 1,-1zm-3 -2l3 0c0,0 0,0 0,-1 -1,0 -1,0 -2,0 0,0 0,0 0,0 -1,1 -1,1 -1,1z"/>
    <path id="4" class="fil2" d="M799 5388l0 0 0 -7 0 0 0 3c1,-1 1,-1 2,-1 0,0 0,0 1,0 0,1 0,1 0,1 0,0 1,0 1,1 0,0 0,0 0,1 0,1 0,1 -1,2 0,0 -1,0 -1,0 -1,0 -1,0 -2,0l0 0zm0 -2c0,0 0,1 1,1 0,1 0,1 1,1 0,0 0,0 1,-1 0,0 0,0 0,-1 0,-1 0,-1 0,-2 -1,0 -1,0 -1,0 -1,0 -1,0 -1,0 -1,1 -1,1 -1,2z"/>
    <path id="5" class="fil2" d="M804 5390l0 0c0,0 0,0 0,0 0,0 1,0 1,0 0,-1 0,-1 0,-1 0,0 0,0 0,0 0,0 0,-1 0,-1l-2 -5 1 0 1 3c1,1 1,1 1,1 0,0 0,0 0,-1l1 -3 1 0 -2 5c0,1 0,1 0,2 0,0 -1,0 -1,0 0,0 0,0 -1,0 0,0 0,0 0,0z"/>
    <path id="6" class="fil2" d="M811 5386l1 0c0,0 0,1 0,1 1,0 1,0 1,0 0,1 1,1 1,1 1,0 1,0 1,0 0,-1 1,-1 1,-1 0,0 0,0 0,0 0,-1 0,-1 0,-1 0,0 -1,0 -1,0 0,-1 -1,-1 -1,-1 -1,0 -1,0 -1,0 -1,0 -1,-1 -1,-1 0,0 0,0 0,-1 0,0 0,0 0,-1 0,0 0,0 1,0 0,-1 1,-1 1,-1 0,0 1,0 1,1 1,0 1,0 1,0 0,1 1,1 1,1l-1 0c0,0 -1,0 -1,-1 0,0 0,0 -1,0 -1,0 -1,0 -1,0 0,1 -1,1 -1,1 0,0 1,1 1,1 0,0 0,0 1,0 1,0 1,1 2,1 0,0 0,0 1,0 0,1 0,1 0,1 0,1 0,1 -1,1 0,1 0,1 0,1 -1,0 -1,1 -2,1 0,0 -1,-1 -1,-1 -1,0 -1,0 -1,-1 -1,0 -1,0 -1,-1z"/>
    <path id="7" class="fil2" d="M820 5388l0 0c0,0 -1,0 -1,0 0,0 0,0 0,0 -1,0 -1,0 -1,0 0,0 0,-1 0,-1l0 -3 -1 0 0 -1 1 0 0 -1 1 0 0 1 1 0 0 1 -1 0 0 3c0,0 0,0 0,0 0,0 0,1 0,1 0,0 0,0 0,0 1,0 1,0 1,0z"/>
    <path id="8" class="fil2" d="M824 5388c0,0 -1,0 -1,0 0,0 -1,0 -1,0 0,0 -1,0 -1,0 -1,0 -1,-1 -1,-1 0,0 0,0 1,-1 0,0 0,0 0,0 0,0 0,0 1,0 0,0 0,0 0,-1 1,0 2,0 2,0 0,0 0,0 0,0 0,0 0,-1 0,-1 -1,0 -1,0 -1,0 -1,0 -1,0 -1,0 0,0 -1,1 -1,1l-1 0c1,-1 1,-1 1,-1 0,0 0,0 1,-1 0,0 0,0 1,0 0,0 1,0 1,0 0,0 0,1 0,1 1,0 1,0 1,0 0,1 0,1 0,1l0 1c0,1 0,2 0,2 0,0 0,0 0,0l-1 0c0,0 0,0 0,0zm0 -2c0,0 -1,0 -2,0 0,0 0,0 0,0 0,0 -1,1 -1,1 0,0 0,0 0,0 0,0 0,0 1,1 0,0 0,0 0,0 1,0 1,0 1,0 0,-1 1,-1 1,-1 0,0 0,0 0,-1l0 0z"/>
    <path id="9" class="fil2" d="M826 5388l0 -5 1 0 0 1c0,0 0,0 0,-1 0,0 1,0 1,0 0,0 0,0 1,1l-1 0c0,0 0,0 0,0 0,0 -1,0 -1,0 0,0 0,1 0,1 0,0 0,0 0,1l0 2 -1 0z"/>
    <path id="10" class="fil2" d="M833 5388l-2 -7 1 0 1 5c1,0 1,1 1,1 0,0 0,-1 0,-1l1 -5 1 0 1 4c1,1 1,2 1,2 0,0 0,-1 0,-1l1 -5 1 0 -2 7 0 0 -2 -5c0,0 0,-1 0,-1 0,1 0,1 0,1l-2 5 -1 0z"/>
    <path id="11" class="fil2" d="M844 5388c0,0 -1,0 -1,0 0,0 0,0 -1,0 0,0 -1,0 -1,0 0,0 -1,-1 -1,-1 0,0 1,0 1,-1 0,0 0,0 0,0 0,0 0,0 1,0 0,0 0,0 0,-1 1,0 2,0 2,0 0,0 0,0 0,0 0,0 0,-1 0,-1 0,0 -1,0 -1,0 -1,0 -1,0 -1,0 0,0 0,1 -1,1l0 0c0,-1 0,-1 0,-1 0,0 0,0 1,-1 0,0 0,0 1,0 0,0 1,0 1,0 0,0 0,1 1,1 0,0 0,0 0,0 0,1 0,1 0,1l0 1c0,1 0,2 0,2 0,0 0,0 0,0l-1 0c0,0 0,0 0,0zm0 -2c0,0 -1,0 -1,0 -1,0 -1,0 -1,0 0,0 0,1 -1,1 0,0 0,0 0,0 0,0 0,0 1,1 0,0 0,0 0,0 1,0 1,0 1,0 1,-1 1,-1 1,-1 0,0 0,0 0,-1l0 0z"/>
    <path id="12" class="fil2" d="M846 5390l0 0c0,0 0,0 1,0 0,0 0,0 0,0 0,-1 0,-1 0,-1 0,0 0,0 1,0 0,0 0,-1 0,-1l-2 -5 1 0 1 3c0,1 0,1 0,1 0,0 0,0 0,-1l1 -3 1 0 -2 5c0,1 0,1 0,2 0,0 0,0 -1,0 0,0 0,0 0,0 0,0 -1,0 -1,0z"/>
   </g>
   <g>
    <polygon class="fil0" points="35,5371 33,5371 33,5357 25,5357 25,5371 23,5371 23,5355 35,5355 "/>
    <path id="1" class="fil0" d="M41 5370l0 5 -2 0 0 -16 2 0 0 2c1,-1 2,-2 4,-2 1,0 2,1 3,2 1,1 1,2 1,4 0,2 -1,3 -1,4 -1,2 -3,2 -4,2 -1,0 -2,0 -3,-1zm0 -8l0 7c1,0 2,1 3,1 1,0 2,-1 2,-2 1,0 1,-2 1,-3 0,-3 -1,-4 -3,-4 -1,0 -2,0 -3,1z"/>
    <path id="2" class="fil0" d="M56 5371c-2,0 -3,0 -4,-1 -1,-2 -1,-3 -1,-5 0,-2 0,-3 1,-4 1,-1 2,-2 4,-2 2,0 3,1 4,2 1,1 1,2 1,4 0,2 0,4 -1,5 -1,1 -2,1 -4,1zm0 -10c-1,0 -2,0 -2,1 -1,1 -1,2 -1,3 0,2 0,3 1,3 0,1 1,2 2,2 1,0 2,-1 3,-2 0,0 1,-1 1,-3 0,-3 -2,-4 -4,-4z"/>
    <polygon id="3" class="fil0" points="81,5371 79,5371 79,5366 73,5366 73,5371 71,5371 71,5359 73,5359 73,5364 79,5364 79,5359 81,5359 "/>
    <path id="4" class="fil0" d="M91 5368l0 -3c-2,0 -4,0 -5,1 0,0 -1,1 -1,1 0,2 1,3 3,3 1,0 2,-1 3,-2zm0 3l0 -1c-1,0 -2,1 -2,1 -1,0 -1,0 -2,0 -1,0 -2,0 -3,-1 0,0 -1,-1 -1,-2 0,-2 1,-3 2,-3 1,-1 3,-2 6,-2l0 0c0,-1 0,-1 -1,-2 0,0 -1,0 -2,0 -1,0 -2,0 -4,0l0 0 0 -1c2,-1 3,-1 4,-1 2,0 3,0 4,1 1,1 1,2 1,3l0 8 -2 0z"/>
    <path id="5" class="fil0" d="M105 5370c-2,1 -3,1 -4,1 -2,0 -3,0 -4,-1 -1,-1 -2,-3 -2,-5 0,-2 1,-3 2,-4 1,-1 2,-2 4,-2 1,0 2,0 4,1l0 2 0 0c-2,-1 -3,-1 -4,-1 -1,0 -2,0 -3,1 0,1 -1,2 -1,3 0,2 1,3 1,3 1,1 2,2 3,2 1,0 2,-1 4,-2l0 0 0 2z"/>
    <path class="fil0" d="M470 5371l0 -16 10 0 0 2 -9 0 0 5 4 0c2,0 4,0 5,1 1,1 1,2 1,3 0,2 -1,3 -2,4 -1,0 -2,1 -4,1l-5 0zm1 -8l0 6 3 0c2,0 3,0 4,-1 1,0 1,-1 1,-2 0,-1 0,-1 -1,-2 0,0 0,0 -1,-1 0,0 -1,0 -3,0l-3 0z"/>
    <path id="1" class="fil0" d="M493 5371l-2 0 0 -10 -5 0 0 3c0,1 0,2 0,3 0,1 0,2 -1,3 0,0 -1,0 -1,1 0,0 -1,0 -1,0l-1 0 0 -2 0 0 0 0c1,0 1,0 1,0 1,0 1,-1 1,-2 0,0 1,-1 1,-2 0,-1 0,-3 0,-6l8 0 0 12z"/>
    <path id="2" class="fil0" d="M501 5371c-2,0 -3,0 -4,-1 -1,-2 -2,-3 -2,-5 0,-2 1,-3 2,-4 1,-1 2,-2 4,-2 1,0 3,1 4,2 0,1 1,2 1,4 0,2 -1,4 -1,5 -1,1 -3,1 -4,1zm0 -10c-1,0 -2,0 -3,1 -1,1 -1,2 -1,3 0,2 0,3 1,3 1,1 2,2 3,2 1,0 2,-1 2,-2 1,0 1,-1 1,-3 0,-3 -1,-4 -3,-4z"/>
    <polygon id="3" class="fil0" points="516,5361 510,5361 510,5371 509,5371 509,5359 516,5359 "/>
    <polygon class="fil0" points="324,5371 322,5371 322,5357 314,5357 314,5371 312,5371 312,5355 324,5355 "/>
    <path id="1" class="fil0" d="M329 5370l0 5 -2 0 0 -16 2 0 0 2c2,-1 3,-2 4,-2 1,0 3,1 3,2 1,1 2,2 2,4 0,2 -1,3 -2,4 -1,2 -2,2 -4,2 -1,0 -2,0 -3,-1zm0 -8l0 7c1,0 2,1 3,1 1,0 2,-1 3,-2 0,0 1,-2 1,-3 0,-3 -1,-4 -3,-4 -2,0 -3,0 -4,1z"/>
    <path id="2" class="fil0" d="M347 5368l0 -3c-2,0 -4,0 -5,1 0,0 -1,1 -1,1 0,2 1,3 3,3 1,0 2,-1 3,-2zm0 3l0 -1c-1,0 -2,1 -2,1 -1,0 -1,0 -2,0 -1,0 -2,0 -3,-1 0,0 -1,-1 -1,-2 0,-2 1,-3 2,-3 1,-1 3,-2 6,-2l0 0c0,-1 0,-1 -1,-2 0,0 -1,0 -2,0 -1,0 -2,0 -4,0l0 0 0 -1c2,-1 3,-1 4,-1 2,0 3,0 4,1 1,1 1,2 1,3l0 8 -2 0z"/>
    <path id="3" class="fil0" d="M362 5371l-2 0 -5 -5 -1 0 0 5 -2 0 0 -12 2 0 0 5c1,0 1,0 2,0 0,0 1,-1 1,-1 0,-1 0,-1 1,-2 0,0 0,0 0,-1 1,0 1,0 1,0 1,-1 1,-1 2,-1l1 0 0 2 -1 0c-1,0 -1,0 -1,0 -1,0 -1,1 -1,1 -1,2 -1,2 -2,3l5 6z"/>
    <polygon id="4" class="fil0" points="373,5361 369,5361 369,5371 367,5371 367,5361 363,5361 363,5359 373,5359 "/>
    <polygon id="5" class="fil0" points="384,5371 382,5371 382,5362 376,5371 375,5371 375,5359 376,5359 376,5368 383,5359 384,5359 "/>
    <path id="6" class="fil0" d="M398 5371l-3 0 -4 -5 -1 0 0 5 -2 0 0 -12 2 0 0 5c0,0 1,0 1,0 1,0 1,-1 1,-1 0,-1 1,-1 1,-2 0,0 0,0 1,-1 0,0 0,0 1,0 0,-1 1,-1 1,-1l1 0 0 2 -1 0c0,0 -1,0 -1,0 0,0 -1,1 -1,1 0,2 -1,2 -2,3l6 6z"/>
    <polygon id="7" class="fil0" points="409,5371 407,5371 407,5362 401,5371 400,5371 400,5359 401,5359 401,5368 408,5359 409,5359 "/>
    <path class="fil0" d="M177 5371l-2 0 -6 -7 -2 0 0 7 -2 0 0 -16 2 0 0 7c1,0 1,0 2,0 0,0 0,0 1,0 0,-1 0,-1 0,-1 1,-1 1,-1 1,-2 1,-2 1,-2 2,-3 1,0 1,-1 3,-1l0 0 0 2 -1 0c0,0 -1,0 -1,1 -1,0 -1,1 -1,2 -1,0 -1,1 -1,1 -1,1 -1,1 -2,2l7 8z"/>
    <path id="1" class="fil0" d="M183 5371c-2,0 -3,0 -4,-1 -1,-2 -2,-3 -2,-5 0,-2 1,-3 2,-4 1,-1 2,-2 4,-2 1,0 3,1 4,2 1,1 1,2 1,4 0,2 0,4 -1,5 -1,1 -3,1 -4,1zm0 -10c-1,0 -2,0 -3,1 0,1 -1,2 -1,3 0,2 1,3 1,3 1,1 2,2 3,2 1,0 2,-1 2,-2 1,0 1,-1 1,-3 0,-3 -1,-4 -3,-4z"/>
    <polygon id="2" class="fil0" points="202,5371 200,5371 200,5361 197,5368 195,5368 192,5361 192,5371 191,5371 191,5359 193,5359 196,5366 199,5359 202,5359 "/>
    <path id="3" class="fil0" d="M212 5368l0 -3c-3,0 -4,0 -5,1 -1,0 -1,1 -1,1 0,2 1,3 3,3 1,0 2,-1 3,-2zm0 3l0 -1c-1,0 -2,1 -2,1 -1,0 -2,0 -2,0 -1,0 -2,0 -3,-1 -1,0 -1,-1 -1,-2 0,-2 1,-3 2,-3 1,-1 3,-2 6,-2l0 0c0,-1 0,-1 -1,-2 0,0 -1,0 -2,0 -1,0 -2,0 -4,0l0 0 0 -1c1,-1 3,-1 4,-1 2,0 3,0 4,1 0,1 1,2 1,3l0 8 -2 0z"/>
    <polygon id="4" class="fil0" points="227,5371 225,5371 225,5366 219,5366 219,5371 217,5371 217,5359 219,5359 219,5364 225,5364 225,5359 227,5359 "/>
    <path id="5" class="fil0" d="M241 5374l-2 0 0 -3 -9 0 0 3 -2 0 0 -5 2 0c0,-1 1,-2 1,-4 1,-2 1,-4 1,-6l7 0 0 10 2 0 0 5zm-4 -5l0 -8 -3 0c0,3 -1,6 -3,8l6 0z"/>
    <path id="6" class="fil0" d="M250 5368l0 -3c-3,0 -4,0 -5,1 -1,0 -1,1 -1,1 0,2 1,3 2,3 2,0 3,-1 4,-2zm0 3l0 -1c-1,0 -2,1 -2,1 -1,0 -2,0 -2,0 -1,0 -2,0 -3,-1 -1,0 -1,-1 -1,-2 0,-2 1,-3 2,-3 1,-1 3,-2 6,-2l0 0c0,-1 0,-1 -1,-2 0,0 -1,0 -2,0 -1,0 -2,0 -4,0l0 0 0 -1c1,-1 3,-1 4,-1 2,0 3,0 4,1 0,1 1,2 1,3l0 8 -2 0z"/>
    <path class="fil0" d="M589 5371l-3 0 -6 -7 -1 0 0 7 -2 0 0 -16 2 0 0 7c0,0 1,0 1,0 1,0 1,0 1,0 1,-1 1,-1 1,-1 0,-1 1,-1 1,-2 0,-2 1,-2 2,-3 0,0 1,-1 2,-1l1 0 0 2 -1 0c-1,0 -1,0 -2,1 0,0 0,1 -1,2 0,0 0,1 -1,1 0,1 0,1 -1,2l7 8z"/>
    <path id="1" class="fil0" d="M594 5371c-1,0 -2,0 -3,-1 -1,-2 -2,-3 -2,-5 0,-2 1,-3 2,-4 1,-1 2,-2 3,-2 2,0 3,1 4,2 1,1 2,2 2,4 0,2 -1,4 -2,5 -1,1 -2,1 -4,1zm0 -10c-1,0 -1,0 -2,1 -1,1 -1,2 -1,3 0,2 0,3 1,3 1,1 1,2 2,2 2,0 2,-1 3,-2 1,0 1,-1 1,-3 0,-3 -1,-4 -4,-4z"/>
    <polygon id="2" class="fil0" points="612,5371 610,5371 610,5366 604,5366 604,5371 602,5371 602,5359 604,5359 604,5364 610,5364 610,5359 612,5359 "/>
    <polygon id="3" class="fil0" points="624,5361 620,5361 620,5371 618,5371 618,5361 614,5361 614,5359 624,5359 "/>
    <path id="4" class="fil0" d="M633 5368l0 -3c-3,0 -4,0 -5,1 -1,0 -1,1 -1,1 0,2 1,3 2,3 1,0 3,-1 4,-2zm0 3l0 -1c-1,0 -2,1 -3,1 0,0 -1,0 -2,0 -1,0 -1,0 -2,-1 -1,0 -1,-1 -1,-2 0,-2 0,-3 1,-3 1,-1 4,-2 7,-2l0 0c0,-1 0,-1 -1,-2 0,0 -1,0 -2,0 -2,0 -3,0 -4,0l0 0 0 -1c1,-1 2,-1 4,-1 1,0 3,0 3,1 1,1 2,2 2,3l0 8 -2 0z"/>
    <path id="5" class="fil0" d="M648 5371l-2 0 -5 -5 -1 0 0 5 -2 0 0 -12 2 0 0 5c0,0 1,0 1,0 1,0 1,-1 1,-1 1,-1 1,-1 1,-2 0,0 1,0 1,-1 0,0 1,0 1,0 0,-1 1,-1 2,-1l0 0 0 2 0 0c-1,0 -1,0 -2,0 0,0 0,1 -1,1 0,2 -1,2 -1,3l5 6z"/>
    <polygon id="6" class="fil0" points="658,5361 654,5361 654,5371 652,5371 652,5361 648,5361 648,5359 658,5359 "/>
    <polygon id="7" class="fil0" points="670,5371 668,5371 668,5362 662,5371 660,5371 660,5359 662,5359 662,5368 668,5359 670,5359 "/>
   </g>
  </g>
  <g id="_2303294083328">
   <g>
    <polygon class="fil1" points="75,33 72,38 82,38 77,30 "/>
    <polygon class="fil1" points="67,15 63,22 63,22 65,19 68,29 68,30 72,23 "/>
    <path class="fil1" d="M49 15l-4 7 1 -3 3 10 0 1 4 -7 -4 -8zm-4 7l4 8 0 0 -4 -8z"/>
    <polygon class="fil1" points="29,13 24,13 21,13 16,5 16,5 21,13 24,13 17,5 24,5 "/>
    <path class="fil1" d="M16 5l15 25 -5 8 -14 -25 4 -8zm10 22l0 2 2 0 -2 1 1 1 -1 -1 -2 1 1 -1 -1 -1 1 0 1 -2zm-3 -4l1 2 1 0 -1 1 0 1 -1 -1 -1 1 0 -1 -1 -1 2 0 0 -2zm-2 -4l0 2 2 0 -1 1 0 1 -1 -1 -1 1 0 -1 -1 -1 1 0 1 -2zm-2 -4l0 2 2 0 -2 1 1 1 -1 -1 -2 1 1 -1 -2 -1 2 0 1 -2zm-3 -4l1 2 1 0 -1 0 0 2 -1 -1 -1 1 0 -2 -1 0 2 0 0 -2z"/>
    <polygon class="fil1" points="15,38 7,38 11,31 "/>
    <polygon class="fil1" points="35,5 49,30 45,38 26,5 "/>
    <polygon class="fil1" points="54,5 68,30 63,38 44,5 "/>
    <path class="fil1" d="M25 36l1 2 0 0 -1 -2zm1 2l-9 0 -5 -8 6 0 8 8 0 0z"/>
    <polygon class="fil1" points="72,5 77,14 72,22 63,5 "/>
   </g>
   <path class="fil2" d="M6 53l0 -7 2 0 1 5c1,0 1,0 1,1 0,-1 0,-1 0,-2l2 -4 1 0 0 7 -1 0 0 -6 -2 6 -1 0 -2 -6 0 6 -1 0z"/>
   <path id="1" class="fil2" d="M18 52c-1,0 -1,0 -1,1 0,0 -1,0 -1,0 -1,0 -1,0 -1,-1 -1,0 -1,0 -1,-1 0,0 0,0 0,0 0,-1 1,-1 1,-1 0,0 0,0 0,0 1,0 1,0 1,0 1,0 1,-1 2,-1 0,0 0,0 0,0 0,0 0,0 -1,-1 0,0 0,0 -1,0 0,0 0,0 0,0 -1,0 -1,1 -1,1l-1 0c0,0 1,-1 1,-1 0,0 0,0 0,0 1,-1 1,-1 2,-1 0,0 0,0 1,1 0,0 0,0 0,0 0,0 0,0 0,1 1,0 1,0 1,0l0 1c0,1 0,2 0,2 0,0 0,0 0,1l-1 0c0,-1 0,-1 0,-1zm0 -2c-1,0 -1,0 -2,0 0,0 0,0 0,1 -1,0 -1,0 -1,0 0,0 0,0 0,0 0,0 0,1 0,1 0,0 1,0 1,0 0,0 1,0 1,0 0,0 0,-1 1,-1 0,0 0,0 0,-1l0 0z"/>
   <polygon id="2" class="fil2" points="20,53 20,46 21,46 21,50 23,48 24,48 22,49 24,53 23,53 21,50 21,51 21,53 "/>
   <path id="3" class="fil2" d="M28 51l1 0c0,1 0,1 -1,1 0,1 -1,1 -1,1 -1,0 -2,-1 -2,-1 0,0 -1,-1 -1,-2 0,-1 1,-1 1,-2 1,0 1,-1 2,-1 0,0 1,1 1,1 1,1 1,1 1,2 0,0 0,0 0,0l-4 0c0,1 0,1 1,2 0,0 0,0 1,0 0,0 0,0 1,0 0,0 0,-1 0,-1zm-3 -1l3 0c0,-1 0,-1 0,-1 0,-1 -1,-1 -1,-1 -1,0 -1,0 -1,1 0,0 -1,0 -1,1z"/>
   <path id="4" class="fil2" d="M34 53l-1 0 0 -7 1 0 0 2c0,0 0,-1 1,-1 0,0 1,0 1,1 0,0 0,0 1,0 0,0 0,1 0,1 0,0 0,1 0,1 0,1 0,2 0,2 -1,0 -1,1 -2,1 -1,0 -1,-1 -1,-1l0 1zm0 -3c0,1 0,1 0,1 0,1 0,1 1,1 0,0 1,0 1,-1 0,0 0,0 0,-1 0,-1 0,-1 0,-1 0,-1 -1,-1 -1,-1 0,0 -1,0 -1,1 0,0 0,0 0,1z"/>
   <path id="5" class="fil2" d="M38 55l0 -1c0,0 0,0 1,0 0,0 0,0 0,0 0,0 0,0 0,-1 0,0 0,0 1,0 0,0 0,0 0,0l-2 -5 1 0 1 2c0,1 0,1 0,2 0,-1 0,-1 0,-2l1 -2 1 0 -2 5c0,0 0,1 0,1 0,0 0,0 -1,0 0,1 0,1 0,1 0,0 -1,0 -1,0z"/>
   <path id="6" class="fil2" d="M46 50l0 0c0,1 1,1 1,1 0,0 0,1 0,1 1,0 1,0 1,0 1,0 1,0 1,0 1,0 1,-1 1,-1 0,0 0,0 0,0 0,-1 0,-1 0,-1 0,0 0,0 -1,0 0,0 0,0 -1,-1 -1,0 -1,0 -1,0 -1,0 -1,0 -1,-1 0,0 0,0 0,-1 0,0 0,0 0,-1 0,0 1,0 1,0 0,0 1,0 1,0 1,0 1,0 2,0 0,0 0,0 1,0 0,1 0,1 0,2l-1 0c0,-1 0,-1 -1,-1 0,-1 0,-1 -1,-1 0,0 -1,0 -1,1 0,0 0,0 0,0 0,1 0,1 0,1 0,0 1,0 1,0 1,1 2,1 2,1 0,0 1,0 1,1 0,0 0,0 0,1 0,0 0,0 0,1 0,0 -1,0 -1,0 -1,1 -1,1 -2,1 0,0 -1,0 -1,-1 -1,0 -1,0 -1,0 0,-1 0,-1 0,-2z"/>
   <path id="7" class="fil2" d="M54 52l0 1c0,0 0,0 0,0 -1,0 -1,0 -1,-1 0,0 0,0 -1,0 0,0 0,0 0,-1l0 -3 0 0 0 0 0 0 0 -2 1 0 0 2 1 0 0 0 -1 0 0 3c0,0 0,1 0,1 0,0 0,0 0,0 0,0 1,0 1,0 0,0 0,0 0,0z"/>
   <path id="8" class="fil2" d="M58 52c0,0 0,0 -1,1 0,0 0,0 -1,0 0,0 -1,0 -1,-1 0,0 0,0 0,-1 0,0 0,0 0,0 0,-1 0,-1 0,-1 0,0 1,0 1,0 0,0 0,0 1,0 0,0 1,-1 1,-1 0,0 0,0 0,0 0,0 0,0 0,-1 0,0 -1,0 -1,0 0,0 -1,0 -1,0 0,0 0,1 0,1l-1 0c0,0 0,-1 0,-1 0,0 1,0 1,0 0,-1 1,-1 1,-1 0,0 1,0 1,1 0,0 1,0 1,0 0,0 0,0 0,1 0,0 0,0 0,0l0 1c0,1 0,2 0,2 0,0 0,0 0,1l-1 0c0,-1 0,-1 0,-1zm0 -2c0,0 -1,0 -1,0 -1,0 -1,0 -1,1 0,0 0,0 0,0 0,0 0,0 0,0 0,0 0,1 0,1 0,0 0,0 1,0 0,0 0,0 0,0 1,0 1,-1 1,-1 0,0 0,0 0,-1l0 0z"/>
   <path id="9" class="fil2" d="M60 53l0 -5 1 0 0 0c0,0 0,0 1,0 0,-1 0,-1 0,-1 0,0 1,1 1,1l0 0c0,0 -1,0 -1,0 0,0 0,0 0,0 -1,1 -1,1 -1,1 0,0 0,1 0,1l0 3 -1 0z"/>
   <path id="10" class="fil2" d="M68 53l-2 -7 1 0 1 4c0,1 0,1 0,2 0,-1 0,-2 0,-2l2 -4 1 0 1 3c0,1 0,2 0,3 0,-1 0,-1 1,-2l1 -4 1 0 -2 7 -1 0 -2 -6c0,0 0,0 0,-1 0,1 0,1 0,1l-2 6 0 0z"/>
   <path id="11" class="fil2" d="M78 52c0,0 0,0 -1,1 0,0 0,0 -1,0 0,0 -1,0 -1,-1 0,0 0,0 0,-1 0,0 0,0 0,0 0,-1 0,-1 0,-1 1,0 1,0 1,0 0,0 0,0 1,0 0,0 1,-1 1,-1 0,0 0,0 0,0 0,0 0,0 0,-1 0,0 -1,0 -1,0 0,0 -1,0 -1,0 0,0 0,1 0,1l-1 0c0,0 0,-1 0,-1 0,0 1,0 1,0 0,-1 1,-1 1,-1 1,0 1,0 1,1 0,0 1,0 1,0 0,0 0,0 0,1 0,0 0,0 0,0l0 1c0,1 0,2 0,2 0,0 0,0 0,1l-1 0c0,-1 0,-1 0,-1zm0 -2c0,0 -1,0 -1,0 -1,0 -1,0 -1,1 0,0 0,0 0,0 0,0 0,0 0,0 0,0 0,1 0,1 0,0 0,0 1,0 0,0 0,0 1,0 0,0 0,-1 0,-1 0,0 0,0 0,-1l0 0z"/>
   <path id="12" class="fil2" d="M80 55l0 -1c0,0 1,0 1,0 0,0 0,0 0,0 0,0 0,0 1,-1 0,0 0,0 0,0 0,0 0,0 0,0l-2 -5 1 0 1 2c0,1 0,1 0,2 0,-1 0,-1 1,-2l1 -2 1 0 -2 5c-1,0 -1,1 -1,1 0,0 0,0 0,0 -1,1 -1,1 -1,1 0,0 0,0 -1,0z"/>
  </g>
 </g>
</svg>
