<?xml version="1.0" encoding="UTF-8"?>
<!DOCTYPE svg PUBLIC "-//W3C//DTD SVG 1.1//EN" "http://www.w3.org/Graphics/SVG/1.1/DTD/svg11.dtd">
<!-- Creator: CorelDRAW X8 -->
<svg xmlns="http://www.w3.org/2000/svg" xml:space="preserve" width="88.1944mm" height="88.1944mm" version="1.1" style="shape-rendering:geometricPrecision; text-rendering:geometricPrecision; image-rendering:optimizeQuality; fill-rule:evenodd; clip-rule:evenodd"
viewBox="0 0 8819 8819"
 xmlns:xlink="http://www.w3.org/1999/xlink">
 <defs>
  <style type="text/css">
   <![CDATA[
    .fil0 {fill:#D2A351}
   ]]>
  </style>
 </defs>
 <g id="Layer_x0020_1">
  <metadata id="CorelCorpID_0Corel-Layer"/>
  <path class="fil0" d="M4410 882c1948,0 3528,1579 3528,3528 0,1948 -1580,3528 -3528,3528 -1949,0 -3528,-1580 -3528,-3528 0,-1949 1579,-3528 3528,-3528zm-369 1677c0,-198 161,-359 359,-359 198,0 359,161 359,359l0 1929 1675 968c171,99 230,319 131,489 -100,171 -319,230 -490,131l-1831 -1057c-120,-58 -203,-181 -203,-324l0 -2136z"/>
 </g>
</svg>
