<?xml version="1.0" encoding="UTF-8"?>
<!DOCTYPE svg PUBLIC "-//W3C//DTD SVG 1.1//EN" "http://www.w3.org/Graphics/SVG/1.1/DTD/svg11.dtd">
<!-- Creator: CorelDRAW X8 -->
<svg xmlns="http://www.w3.org/2000/svg" xml:space="preserve" width="21.1666mm" height="21.1666mm" version="1.1" style="shape-rendering:geometricPrecision; text-rendering:geometricPrecision; image-rendering:optimizeQuality; fill-rule:evenodd; clip-rule:evenodd"
viewBox="0 0 2117 2117"
 xmlns:xlink="http://www.w3.org/1999/xlink">
 <defs>
  <style type="text/css">
   <![CDATA[
    .fil0 {fill:#D2A351}
   ]]>
  </style>
 </defs>
 <g id="Layer_x0020_1">
  <metadata id="CorelCorpID_0Corel-Layer"/>
  <path class="fil0" d="M1225 235c99,28 191,81 265,155l46 52 40 56c25,40 46,84 61,129 15,46 25,93 30,141 4,45 2,90 -3,135 -5,44 -14,88 -26,130 -20,76 -49,150 -83,222 -34,72 -72,141 -112,206 -35,56 -70,109 -106,159l-117 152 -32 39 -45 52 -19 17c-8,7 -18,13 -29,17l-2 1c-9,4 -20,8 -35,7 -10,-1 -18,-3 -24,-6l-3 -1c-30,-11 -50,-34 -66,-54l-47 -54 -38 -47c-43,-52 -83,-105 -121,-159 -39,-55 -75,-111 -109,-168 -40,-67 -77,-136 -108,-207 -32,-73 -58,-148 -75,-225 -9,-42 -16,-85 -18,-128 -3,-43 -1,-87 6,-131 7,-40 17,-80 31,-118 15,-37 33,-74 54,-108 43,-68 98,-127 163,-173 64,-46 137,-80 215,-99 102,-23 208,-20 307,8zm-167 395c110,0 199,88 199,198 0,109 -89,198 -199,198 -109,0 -198,-89 -198,-198 0,-110 89,-198 198,-198z"/>
 </g>
</svg>
