<?xml version="1.0" encoding="UTF-8"?>
<!DOCTYPE svg PUBLIC "-//W3C//DTD SVG 1.1//EN" "http://www.w3.org/Graphics/SVG/1.1/DTD/svg11.dtd">
<!-- Creator: CorelDRAW X8 -->
<svg xmlns="http://www.w3.org/2000/svg" xml:space="preserve" width="21.1666mm" height="21.1666mm" version="1.1" style="shape-rendering:geometricPrecision; text-rendering:geometricPrecision; image-rendering:optimizeQuality; fill-rule:evenodd; clip-rule:evenodd"
viewBox="0 0 2117 2117"
 xmlns:xlink="http://www.w3.org/1999/xlink">
 <defs>
  <style type="text/css">
   <![CDATA[
    .fil0 {fill:#D2A351}
   ]]>
  </style>
 </defs>
 <g id="Layer_x0020_1">
  <metadata id="CorelCorpID_0Corel-Layer"/>
  <path class="fil0" d="M1058 212c468,0 847,379 847,846 0,468 -379,847 -847,847 -467,0 -846,-379 -846,-847 0,-467 379,-846 846,-846zm294 990c0,55 -20,101 -60,140 -40,39 -97,63 -172,72l0 111 -99 0 0 -108c-49,-3 -96,-11 -140,-26 -44,-15 -80,-32 -107,-54l54 -121c26,19 55,34 89,47 34,13 68,20 104,24l0 -166c-47,-11 -87,-24 -119,-38 -33,-14 -60,-34 -82,-61 -21,-27 -32,-62 -32,-107 0,-55 20,-102 60,-141 40,-40 98,-64 173,-72l0 -110 99 0 0 108c82,6 149,27 202,60l-50 123c-49,-29 -100,-46 -152,-52l0 169c47,10 86,22 118,36 32,14 59,34 81,61 22,26 33,62 33,105zm-404 -295c0,17 6,31 18,41 13,11 31,20 55,27l0 -141c-25,6 -44,15 -56,28 -11,13 -17,28 -17,45zm172 376c24,-6 42,-14 54,-26 12,-12 18,-26 18,-43 0,-16 -6,-30 -19,-40 -12,-11 -29,-20 -53,-28l0 137z"/>
 </g>
</svg>
