<?xml version="1.0" encoding="UTF-8"?>
<!DOCTYPE svg PUBLIC "-//W3C//DTD SVG 1.1//EN" "http://www.w3.org/Graphics/SVG/1.1/DTD/svg11.dtd">
<!-- Creator: CorelDRAW X8 -->
<svg xmlns="http://www.w3.org/2000/svg" xml:space="preserve" width="21.1666mm" height="21.1666mm" version="1.1" style="shape-rendering:geometricPrecision; text-rendering:geometricPrecision; image-rendering:optimizeQuality; fill-rule:evenodd; clip-rule:evenodd"
viewBox="0 0 2117 2117"
 xmlns:xlink="http://www.w3.org/1999/xlink">
 <defs>
  <style type="text/css">
   <![CDATA[
    .fil0 {fill:#D2A351}
   ]]>
  </style>
 </defs>
 <g id="Layer_x0020_1">
  <metadata id="CorelCorpID_0Corel-Layer"/>
  <g id="_2429686279664" i:extraneous="self">
   <g>
    <path class="fil0" d="M1696 383l-123 0 0 -63c0,-60 -51,-108 -114,-108 -64,0 -114,48 -114,108l0 63 -575 0 0 -63c0,-60 -51,-108 -114,-108 -63,0 -114,48 -114,108l0 63 -123 0c-114,0 -207,89 -207,198l0 101 1693 0 0 -101c-2,-111 -93,-198 -209,-198z"/>
    <path class="fil0" d="M212 1707c0,109 93,198 207,198l1279 0c114,0 207,-89 207,-198l0 -900 -1693 0 0 900zm1111 -563c0,-20 16,-34 35,-34l170 0c20,0 35,16 35,34l0 107c0,19 -16,34 -35,34l-170 0c-21,0 -35,-16 -35,-34l0 -107zm0 317c0,-19 16,-34 35,-34l170 0c20,0 35,16 35,34l0 107c0,20 -16,34 -35,34l-170 0c-21,0 -35,-16 -35,-34l0 -107zm-387 -317c0,-20 17,-34 36,-34l169 0c21,0 36,16 36,34l0 107c0,19 -17,34 -36,34l-169 0c-21,0 -36,-16 -36,-34l0 -107zm0 317c0,-19 17,-34 36,-34l169 0c21,0 36,16 36,34l0 107c0,20 -17,34 -36,34l-169 0c-21,0 -36,-16 -36,-34l0 -107zm-385 -317c0,-20 17,-34 36,-34l170 0c20,0 35,16 35,34l0 107c0,19 -16,34 -35,34l-170 0c-21,0 -36,-16 -36,-34l0 -107zm0 317c0,-19 17,-34 36,-34l170 0c20,0 35,16 35,34l0 107c0,20 -16,34 -35,34l-170 0c-21,0 -36,-16 -36,-34l0 -107z"/>
   </g>
  </g>
 </g>
</svg>
