<?xml version="1.0" encoding="UTF-8"?>
<!DOCTYPE svg PUBLIC "-//W3C//DTD SVG 1.1//EN" "http://www.w3.org/Graphics/SVG/1.1/DTD/svg11.dtd">
<!-- Creator: CorelDRAW X8 -->
<svg xmlns="http://www.w3.org/2000/svg" xml:space="preserve" width="29px" height="29px" version="1.1" style="shape-rendering:geometricPrecision; text-rendering:geometricPrecision; image-rendering:optimizeQuality; fill-rule:evenodd; clip-rule:evenodd"
viewBox="0 0 29 29"
 xmlns:xlink="http://www.w3.org/1999/xlink">
 <defs>
  <style type="text/css">
   <![CDATA[
    .fil0 {fill:#054C23}
   ]]>
  </style>
 </defs>
 <g id="Layer_x0020_1">
  <metadata id="CorelCorpID_0Corel-Layer"/>
  <g id="_1895440362784">
   <path class="fil0" d="M13 1c-1,0 -1,0 -1,0l-1 3c0,0 -1,0 -2,1l-2 -2c0,0 -1,0 -1,0l-3 3c0,0 0,1 0,1l2 2c-1,1 -1,2 -1,2l-3 1c0,0 0,0 0,1l0 3c0,1 0,1 0,1l3 1c0,0 0,1 1,2l-2 2c0,0 0,1 0,1l3 3c0,0 1,0 1,0l2 -2c1,1 2,1 2,1l1 3c0,0 0,0 1,0l3 0c1,0 1,0 1,0l1 -3c0,0 1,0 2,-1l2 2c0,0 1,0 1,0l3 -3c0,0 0,-1 0,-1l-2 -2c1,-1 1,-2 1,-2l3 -1c0,0 0,0 0,-1l0 -3c0,-1 0,-1 0,-1l-3 -1c0,0 0,-1 -1,-2l2 -2c0,0 0,-1 0,-1l-3 -3c0,0 -1,0 -1,0l-2 2c-1,-1 -2,-1 -2,-1l-1 -3c0,0 0,0 -1,0l-3 0 0 0zm0 1l3 0 0 3c0,0 1,0 1,0 1,1 1,1 2,1 0,1 1,1 1,0l2 -1 2 2 -1 2c-1,0 -1,1 0,1 0,1 0,1 1,2 0,0 0,1 0,1l3 0 0 3 -3 0c0,0 0,1 0,1 -1,1 -1,1 -1,2 -1,0 -1,1 0,1l1 2 -2 2 -2 -1c0,-1 -1,-1 -1,0 -1,0 -1,0 -2,1 0,0 -1,0 -1,0l0 3 -3 0 0 -3c0,0 -1,0 -1,0 -1,-1 -1,-1 -2,-1 0,-1 -1,-1 -1,0l-2 1 -2 -2 1 -2c1,0 1,-1 0,-1 0,-1 0,-1 -1,-2 0,0 0,-1 0,-1l-3 0 0 -3 3 0c0,0 0,-1 0,-1 1,-1 1,-1 1,-2 1,0 1,-1 0,-1l-1 -2 2 -2 2 1c0,1 1,1 1,0 1,0 1,0 2,-1 0,0 1,0 1,0l0 -3zm2 6c-4,0 -7,3 -7,7 0,3 3,6 7,6 3,0 6,-3 6,-6 0,-4 -3,-7 -6,-7zm0 2c2,0 4,2 4,5 0,2 -2,4 -4,4 -3,0 -5,-2 -5,-4 0,-3 2,-5 5,-5z" display="inline"/>
  </g>
 </g>
</svg>
